<svg width="39" height="50" viewBox="0 0 39 50" fill="none" xmlns="http://www.w3.org/2000/svg">
<rect width="39" height="50" rx="19.5" fill="#C4C4C4"/>
<path d="M20.3413 14.3759C20.1044 14.1253 19.8228 14 19.4991 14C19.1753 14 18.899 14.1253 18.67 14.3759L13.4061 19.9456C13.1692 20.1878 13.0508 20.4803 13.0508 20.8228C13.0508 21.1653 13.1692 21.4633 13.4061 21.7139C13.6351 21.9562 13.9114 22.0759 14.2352 22.0759C14.5589 22.0759 14.8405 21.9562 15.0774 21.7139L18.3147 18.2747L18.3147 34.7468C18.3147 35.0894 18.4331 35.3873 18.67 35.638C18.899 35.8803 19.1753 36 19.4991 36C19.8228 36 20.1044 35.8803 20.3413 35.638C20.5703 35.3873 20.6834 35.0894 20.6834 34.7468L20.6834 18.2747L23.9339 21.7139C24.1629 21.9562 24.4392 22.0759 24.763 22.0759C25.0867 22.0759 25.3683 21.9562 25.6052 21.7139C25.8342 21.4633 25.9473 21.1653 25.9473 20.8228C25.9473 20.4803 25.8342 20.1878 25.6052 19.9456L20.3413 14.3759Z" fill="white"/>
</svg>
