<svg width="80" height="80" viewBox="0 0 80 80" fill="none" xmlns="http://www.w3.org/2000/svg">
<circle cx="39.9995" cy="40" r="32.9412" fill="url(#paint0_linear)"/>
<circle cx="40" cy="40" r="39.5" stroke="#CFCFCF"/>
<path d="M32.6477 53.7221C33.2171 53.8808 33.6557 54.1701 33.9637 54.5901C34.2811 55.0101 34.4397 55.5234 34.4397 56.1301C34.4397 56.9701 34.1364 57.6281 33.5297 58.1041C32.9324 58.5801 32.1064 58.8181 31.0517 58.8181H27.4397C27.1691 58.8181 26.9544 58.7434 26.7957 58.5941C26.6464 58.4448 26.5717 58.2348 26.5717 57.9641V49.8021C26.5717 49.5314 26.6464 49.3214 26.7957 49.1721C26.9544 49.0228 27.1691 48.9481 27.4397 48.9481H30.9117C31.9384 48.9481 32.7411 49.1768 33.3197 49.6341C33.9077 50.0821 34.2017 50.7121 34.2017 51.5241C34.2017 52.0468 34.0617 52.4994 33.7817 52.8821C33.5111 53.2648 33.1331 53.5448 32.6477 53.7221ZM28.3357 53.1061H30.6177C31.8591 53.1061 32.4797 52.6441 32.4797 51.7201C32.4797 51.2534 32.3257 50.9081 32.0177 50.6841C31.7097 50.4601 31.2431 50.3481 30.6177 50.3481H28.3357V53.1061ZM30.8557 57.4181C31.5091 57.4181 31.9851 57.3014 32.2837 57.0681C32.5824 56.8348 32.7317 56.4708 32.7317 55.9761C32.7317 55.4814 32.5777 55.1128 32.2697 54.8701C31.9711 54.6274 31.4997 54.5061 30.8557 54.5061H28.3357V57.4181H30.8557ZM44.9376 57.7401C44.9936 57.8614 45.0216 57.9828 45.0216 58.1041C45.0216 58.3188 44.933 58.5008 44.7556 58.6501C44.5876 58.7994 44.3916 58.8741 44.1676 58.8741C44.0183 58.8741 43.8783 58.8368 43.7476 58.7621C43.617 58.6781 43.5143 58.5521 43.4396 58.3841L42.5996 56.5081H37.6716L36.8316 58.3841C36.757 58.5521 36.6543 58.6781 36.5236 58.7621C36.393 58.8368 36.2483 58.8741 36.0896 58.8741C35.875 58.8741 35.679 58.7994 35.5016 58.6501C35.3243 58.5008 35.2356 58.3188 35.2356 58.1041C35.2356 57.9828 35.2636 57.8614 35.3196 57.7401L39.1836 49.4381C39.2676 49.2514 39.3936 49.1114 39.5616 49.0181C39.739 48.9154 39.9256 48.8641 40.1216 48.8641C40.3176 48.8641 40.4996 48.9154 40.6676 49.0181C40.845 49.1114 40.9756 49.2514 41.0596 49.4381L44.9376 57.7401ZM38.2876 55.1081H41.9836L40.1356 50.9501L38.2876 55.1081ZM40.1356 61.5901C39.865 61.5901 39.641 61.5061 39.4636 61.3381C39.2956 61.1794 39.2116 60.9648 39.2116 60.6941C39.2116 60.4328 39.2956 60.2228 39.4636 60.0641C39.6316 59.9054 39.8556 59.8261 40.1356 59.8261C40.4063 59.8261 40.6256 59.9054 40.7936 60.0641C40.971 60.2228 41.0596 60.4328 41.0596 60.6941C41.0596 60.9648 40.971 61.1794 40.7936 61.3381C40.6256 61.5061 40.4063 61.5901 40.1356 61.5901ZM50.4778 58.9441C49.5258 58.9441 48.6905 58.7388 47.9718 58.3281C47.2625 57.9174 46.7165 57.3294 46.3338 56.5641C45.9511 55.7988 45.7598 54.9028 45.7598 53.8761C45.7598 52.8494 45.9511 51.9581 46.3338 51.2021C46.7165 50.4368 47.2625 49.8488 47.9718 49.4381C48.6905 49.0274 49.5258 48.8221 50.4778 48.8221C51.0938 48.8221 51.6725 48.9154 52.2138 49.1021C52.7552 49.2794 53.2358 49.5408 53.6558 49.8861C53.7772 49.9794 53.8612 50.0774 53.9078 50.1801C53.9545 50.2828 53.9778 50.4088 53.9778 50.5581C53.9778 50.7634 53.9218 50.9361 53.8098 51.0761C53.6978 51.2161 53.5625 51.2861 53.4038 51.2861C53.2172 51.2861 53.0258 51.2208 52.8298 51.0901C52.4285 50.7914 52.0552 50.5861 51.7098 50.4741C51.3645 50.3528 50.9818 50.2921 50.5618 50.2921C49.5912 50.2921 48.8538 50.5954 48.3498 51.2021C47.8552 51.8088 47.6078 52.7001 47.6078 53.8761C47.6078 55.0614 47.8552 55.9574 48.3498 56.5641C48.8538 57.1708 49.5912 57.4741 50.5618 57.4741C50.9632 57.4741 51.3318 57.4134 51.6678 57.2921C52.0132 57.1708 52.4005 56.9654 52.8298 56.6761C52.9232 56.6201 53.0165 56.5734 53.1098 56.5361C53.2032 56.4988 53.3012 56.4801 53.4038 56.4801C53.5625 56.4801 53.6978 56.5501 53.8098 56.6901C53.9218 56.8301 53.9778 57.0028 53.9778 57.2081C53.9778 57.3481 53.9545 57.4741 53.9078 57.5861C53.8612 57.6888 53.7772 57.7868 53.6558 57.8801C53.2358 58.2254 52.7552 58.4914 52.2138 58.6781C51.6725 58.8554 51.0938 58.9441 50.4778 58.9441Z" fill="white"/>
<path d="M21.8182 29.0908L22.9612 32.6086H26.6599L23.6676 34.7826L24.8106 38.3004L21.8182 36.1263L18.8258 38.3004L19.9688 34.7826L16.9765 32.6086H20.6752L21.8182 29.0908Z" fill="white"/>
<path d="M40.0001 16L41.1431 19.5177H44.8418L41.8495 21.6918L42.9924 25.2095L40.0001 23.0355L37.0077 25.2095L38.1507 21.6918L35.1583 19.5177H38.8571L40.0001 16Z" fill="white"/>
<path d="M57.4544 29.0908L58.5974 32.6086H62.2962L59.3038 34.7826L60.4468 38.3004L57.4544 36.1263L54.4621 38.3004L55.6051 34.7826L52.6127 32.6086H56.3115L57.4544 29.0908Z" fill="white"/>
<defs>
<linearGradient id="paint0_linear" x1="31.2728" y1="7.27279" x2="58.1819" y2="67.6364" gradientUnits="userSpaceOnUse">
<stop stop-color="#C5C5C5"/>
<stop offset="0.463542" stop-color="#D9D9D9"/>
<stop offset="1" stop-color="#C2C2C2"/>
</linearGradient>
</defs>
</svg>
