<svg width="80" height="81" viewBox="0 0 80 81" fill="none" xmlns="http://www.w3.org/2000/svg">
<g clip-path="url(#clip0)">
<path opacity="0.1" d="M40.5647 80.626C54.3908 80.626 65.599 78.688 65.599 76.2974C65.599 73.9067 54.3908 71.9688 40.5647 71.9688C26.7385 71.9688 15.5303 73.9067 15.5303 76.2974C15.5303 78.688 26.7385 80.626 40.5647 80.626Z" fill="black"/>
<path d="M40.0074 0C45.9622 0 54.1704 20.8699 55.0796 21.4354C55.9889 22.0022 78.0346 24.6682 79.8629 28.9561C81.6911 33.244 64.7289 48.7554 64.3093 49.8106C63.8884 50.8657 68.1272 72.9213 64.6405 75.8089C61.1537 78.6951 41.2239 67.4071 40.0088 67.4014C38.7937 67.3944 19.6692 78.7554 15.3771 75.8089C11.085 72.8624 16.0183 51.0046 15.7082 49.8106C15.3982 48.6179 -1.78439 34.6331 0.15331 28.9561C2.09101 23.2791 24.1452 22.0233 24.9365 21.4354C25.7279 20.8475 34.054 0 40.0074 0Z" fill="#FFBD39"/>
<path d="M40.0074 2.5918C45.5581 2.5918 52.8346 22.7896 53.6821 23.3186C54.5296 23.8462 75.45 25.5846 77.1548 29.5821C78.8596 33.5782 62.6747 47.6641 62.2832 48.6476C61.8917 49.6312 66.2147 70.5629 62.9651 73.2527C59.7155 75.9438 41.1397 65.0501 40.006 65.043C38.8722 65.036 21.0471 76 17.0468 73.2527C13.0465 70.5068 18.391 50.1335 18.1019 49.0209C17.8157 47.9068 1.05267 34.8733 2.85988 29.5807C4.66569 24.2882 25.9678 23.8658 26.7072 23.3172C27.4439 22.77 34.458 2.5918 40.0074 2.5918Z" fill="url(#paint0_linear)"/>
<path d="M7.71589 30.5594C7.33003 26.7963 19.676 24.5808 20.2204 28.9851C20.7649 33.3881 8.24346 35.6864 7.71589 30.5594Z" fill="white"/>
<path d="M23.3816 27.7496C23.289 25.3292 26.9792 25.1819 27.1714 27.1673C27.3861 29.3898 23.4672 30.0128 23.3816 27.7496Z" fill="white"/>
<g opacity="0.6">
<g opacity="0.6">
<g opacity="0.6">
<g opacity="0.6">
<path opacity="0.6" d="M28.4017 47.4881C28.4017 49.9365 26.2522 51.9219 23.6003 51.9219C20.9484 51.9219 18.7988 49.9365 18.7988 47.4881C18.7988 45.0397 20.9484 43.0557 23.6003 43.0557C26.2522 43.0557 28.4017 45.0397 28.4017 47.4881Z" fill="#FF5F82"/>
</g>
<g opacity="0.6">
<path opacity="0.6" d="M61.2025 47.4881C61.2025 49.9365 59.053 51.9219 56.4011 51.9219C53.7492 51.9219 51.5996 49.9365 51.5996 47.4881C51.5996 45.0397 53.7492 43.0557 56.4011 43.0557C59.053 43.0557 61.2025 45.0397 61.2025 47.4881Z" fill="#FF5F82"/>
</g>
</g>
</g>
</g>
<path d="M29.5424 45.0529C30.5288 44.3079 50.6312 44.3079 51.6289 45.0529C52.6279 45.798 49.1552 54.2911 40.5905 54.2911C32.0259 54.2897 28.5574 45.7966 29.5424 45.0529Z" fill="#872A2A"/>
<path d="M57.0168 31.0523C56.5033 29.8541 47.1276 34.4465 47.3072 36.8809C47.4882 39.3153 56.05 41.6936 57.1361 40.4139C58.2221 39.1343 51.4689 38.0062 51.4085 36.6395C51.3482 35.2743 57.7408 32.7417 57.0168 31.0523Z" fill="#541300"/>
<path d="M22.9865 31.0523C23.5014 29.8541 32.8771 34.4465 32.6961 36.8809C32.5151 39.3153 23.9518 41.6936 22.8672 40.4139C21.7812 39.1343 28.5344 38.0062 28.5947 36.6395C28.6551 35.2743 22.2625 32.7417 22.9865 31.0523Z" fill="#541300"/>
</g>
<defs>
<linearGradient id="paint0_linear" x1="21.4479" y1="20.5981" x2="65.2533" y2="73.2187" gradientUnits="userSpaceOnUse">
<stop offset="0.043" stop-color="#FFF466"/>
<stop offset="0.0753" stop-color="#FFF466"/>
<stop offset="0.3152" stop-color="#FFEC5F"/>
<stop offset="0.6922" stop-color="#FFD54D"/>
<stop offset="0.8602" stop-color="#FFC943"/>
</linearGradient>
<clipPath id="clip0">
<rect width="80" height="80.6258" fill="white"/>
</clipPath>
</defs>
</svg>
