<svg width="22" height="18" viewBox="0 0 22 18" fill="none" xmlns="http://www.w3.org/2000/svg">
<g clip-path="url(#clip0)">
<path d="M19.4615 3.27462H16.445L15.7131 1.54423C15.3112 0.605 14.3931 0 13.3735 0H8.62654C7.60692 0 6.68885 0.605 6.29115 1.54846L5.55923 3.27885H2.53846C1.13808 3.27885 0 4.41692 0 5.81731V15.1208C0 16.5212 1.13808 17.6592 2.53846 17.6592H19.4615C20.8619 17.6592 22 16.5212 22 15.1208V5.81308C22 4.41269 20.8619 3.27462 19.4615 3.27462ZM21.1538 15.1165C21.1538 16.0515 20.3965 16.8088 19.4615 16.8088H2.53846C1.60346 16.8088 0.846154 16.0515 0.846154 15.1165V5.81308C0.846154 4.87808 1.60346 4.12077 2.53846 4.12077H6.11769L7.06961 1.87423C7.33615 1.25231 7.94538 0.846154 8.62654 0.846154H13.3692C14.0504 0.846154 14.6596 1.25231 14.9262 1.87846L15.8781 4.125H19.4615C20.3965 4.125 21.1538 4.88231 21.1538 5.81731V15.1165Z" fill="black"/>
<path d="M11 5.06836C8.04696 5.06836 5.63965 7.47144 5.63965 10.4287C5.63965 13.3861 8.04696 15.7849 11 15.7849C13.9531 15.7849 16.3604 13.3818 16.3604 10.4245C16.3604 7.46721 13.9531 5.06836 11 5.06836ZM11 14.9387C8.51234 14.9387 6.4858 12.9122 6.4858 10.4245C6.4858 7.93682 8.51234 5.91028 11 5.91028C13.4877 5.91028 15.5143 7.93682 15.5143 10.4245C15.5143 12.9164 13.4877 14.9387 11 14.9387Z" fill="black"/>
</g>
<defs>
<clipPath id="clip0">
<rect width="22" height="17.655" fill="white"/>
</clipPath>
</defs>
</svg>
