<svg width="32" height="24" viewBox="0 0 32 24" fill="none" xmlns="http://www.w3.org/2000/svg">
<g clip-path="url(#clip0)">
<path d="M15.9847 17.594C18.2 17.594 19.9959 15.7833 19.9959 13.5497C19.9959 11.3161 18.2 9.50537 15.9847 9.50537C13.7695 9.50537 11.9736 11.3161 11.9736 13.5497C11.9736 15.7833 13.7695 17.594 15.9847 17.594Z" fill="#636363"/>
<path d="M0.482422 6.65877V20.7252C0.482422 22.4442 1.87935 23.849 3.58059 23.849H28.3806C30.0855 23.849 31.4824 22.4405 31.4824 20.7252V6.65877C31.4824 4.93974 30.0855 3.53495 28.3806 3.53495H24.6628C24.1495 3.53495 23.5995 3.13569 23.4382 2.64401L22.4776 1.12092C22.3162 0.629238 21.7663 0.22998 21.253 0.22998H10.7119C10.1986 0.22998 9.65226 0.629238 9.49094 1.12092L8.52666 2.64401C8.36533 3.13199 7.81536 3.53125 7.30206 3.53125H3.58059C1.87935 3.53125 0.482422 4.93974 0.482422 6.65877ZM8.67332 13.6014C8.67332 9.5312 11.9475 6.22994 15.9843 6.22994C20.021 6.22994 23.2952 9.5312 23.2952 13.6014C23.2952 17.6716 20.021 20.9729 15.9843 20.9729C11.9475 20.9729 8.67332 17.6716 8.67332 13.6014Z" fill="#636363"/>
</g>
<defs>
<clipPath id="clip0">
<rect width="31" height="23.619" fill="white" transform="translate(0.482422 0.22998)"/>
</clipPath>
</defs>
</svg>
