<svg width="61" height="60" viewBox="0 0 61 60" fill="none" xmlns="http://www.w3.org/2000/svg">
<g clip-path="url(#clip0)">
<path fill-rule="evenodd" clip-rule="evenodd" d="M15.0882 30.346C15.4947 30.7199 15.5211 31.3525 15.1473 31.759L3.71005 44.1934L15.096 44.1728C15.5166 44.172 15.8928 44.4345 16.0371 44.8295L19.9263 55.4722L27.7151 39.5559C27.9579 39.0598 28.5568 38.8545 29.0529 39.0972C29.5489 39.34 29.7543 39.9389 29.5115 40.435L20.6909 58.4597C20.5147 58.8198 20.1406 59.0398 19.7404 59.0188C19.3401 58.9978 18.991 58.7399 18.8535 58.3634L14.3991 46.174L1.42956 46.1975C1.03236 46.1982 0.672387 45.9638 0.512428 45.6002C0.352469 45.2366 0.422854 44.8129 0.691753 44.5205L13.6753 30.4051C14.0491 29.9986 14.6818 29.9721 15.0882 30.346Z" fill="#353535"/>
<path fill-rule="evenodd" clip-rule="evenodd" d="M45.8562 30.4389C46.2627 30.065 46.8953 30.0913 47.2692 30.4977L60.3084 44.6688C60.5774 44.9612 60.6478 45.385 60.4879 45.7486C60.3279 46.1122 59.9679 46.3467 59.5707 46.3459L46.6011 46.3225L42.1468 58.5058C42.0092 58.8822 41.6602 59.14 41.26 59.1611C40.8598 59.1821 40.4858 58.9622 40.3095 58.6023L31.4147 40.4415C31.1717 39.9455 31.3769 39.3465 31.8729 39.1035C32.3689 38.8606 32.9679 39.0658 33.2108 39.5618L41.0738 55.6159L44.9632 44.9778C45.1076 44.5829 45.4837 44.3204 45.9042 44.3212L57.2897 44.3418L45.7975 31.8519C45.4235 31.4455 45.4498 30.8129 45.8562 30.4389Z" fill="#353535"/>
<path fill-rule="evenodd" clip-rule="evenodd" d="M30.5001 2.73779C20.6296 2.73779 12.6279 10.7394 12.6279 20.61C12.6279 30.4805 20.6296 38.4821 30.5001 38.4821C40.3706 38.4821 48.3723 30.4805 48.3723 20.61C48.3723 10.7394 40.3706 2.73779 30.5001 2.73779ZM10.6279 20.61C10.6279 9.63486 19.525 0.737793 30.5001 0.737793C41.4752 0.737793 50.3723 9.63486 50.3723 20.61C50.3723 31.5851 41.4752 40.4821 30.5001 40.4821C19.525 40.4821 10.6279 31.5851 10.6279 20.61Z" fill="#353535"/>
<path fill-rule="evenodd" clip-rule="evenodd" d="M39.5021 14.3175C39.8925 14.7081 39.8923 15.3413 39.5017 15.7317L28.3305 26.8967C27.94 27.287 27.307 27.2869 26.9165 26.8965L21.498 21.4779C21.1074 21.0874 21.1074 20.4542 21.498 20.0637C21.8885 19.6732 22.5217 19.6732 22.9122 20.0637L27.6238 24.7753L38.0878 14.3171C38.4785 13.9267 39.1116 13.9269 39.5021 14.3175Z" fill="#353535"/>
</g>
<defs>
<clipPath id="clip0">
<rect width="60" height="58.2804" fill="white" transform="translate(0.5 0.810059)"/>
</clipPath>
</defs>
</svg>
