<svg width="25" height="19" viewBox="0 0 25 19" fill="none" xmlns="http://www.w3.org/2000/svg">
<g clip-path="url(#clip0)">
<path fill-rule="evenodd" clip-rule="evenodd" d="M6.5075 3H2.5C1.1175 3 0 4.12 0 5.5V16C0 17.3775 1.12 18.5 2.5 18.5H22.5C23.8825 18.5 25 17.38 25 16V5.5C25 4.1225 23.88 3 22.5 3H18.51C18 3 18 2.4975 18 2.4975C18 1.1175 16.88 0 15.5 0H9.5C8.12 0 6.9975 1.1175 6.9975 2.4975C6.9975 2.4975 6.9975 3 6.5075 3ZM12.5 15.5C15.1225 15.5 17.25 13.3725 17.25 10.75C17.25 8.1275 15.1225 6 12.5 6C9.8775 6 7.75 8.1275 7.75 10.75C7.75 13.3725 9.8775 15.5 12.5 15.5ZM13 10.25V8.25C13 7.9725 12.775 7.75 12.5 7.75C12.2225 7.75 12 7.975 12 8.25V10.25H10C9.7225 10.25 9.5 10.475 9.5 10.75C9.5 11.0275 9.725 11.25 10 11.25H12V13.25C12 13.5275 12.225 13.75 12.5 13.75C12.7775 13.75 13 13.525 13 13.25V11.25H15C15.2775 11.25 15.5 11.025 15.5 10.75C15.5 10.4725 15.275 10.25 15 10.25H13Z" fill="#106909"/>
</g>
<defs>
<clipPath id="clip0">
<rect width="25" height="18.5" fill="white"/>
</clipPath>
</defs>
</svg>
