<svg width="35" height="39" viewBox="0 0 35 39" fill="none" xmlns="http://www.w3.org/2000/svg">
<path d="M17.5 0C13.3966 0 10.0632 3.33344 10.0632 7.43682V7.87428H7.00097C5.56172 7.87428 4.42433 9.05544 4.37621 10.4597L0.00161083 35.8324C-0.0508843 37.3066 1.18713 38.4965 2.62637 38.4965H32.3736C33.8129 38.4965 35.0509 37.3066 34.9984 35.8324L30.6238 10.4597C30.5757 9.05981 29.4383 7.87428 27.999 7.87428H24.9368V7.43682C24.9368 3.33344 21.6077 0 17.5 0ZM17.5 1.74984C20.6672 1.74984 23.187 4.26961 23.187 7.43682V7.87428H11.813V7.43682C11.813 4.27398 14.3372 1.74984 17.5 1.74984ZM7.00097 9.62412H10.0632V11.9602C9.04828 12.3233 8.31335 13.3032 8.31335 14.4362C8.31335 15.8754 9.49886 17.0609 10.9381 17.0609C12.3773 17.0609 13.5629 15.8754 13.5629 14.4362C13.5629 13.3032 12.8279 12.3276 11.813 11.9602V9.62412H23.187V11.9602C22.1721 12.3233 21.4371 13.3032 21.4371 14.4362C21.4371 15.8754 22.6227 17.0609 24.0619 17.0609C25.5011 17.0609 26.6867 15.8754 26.6867 14.4362C26.6867 13.3032 25.9517 12.3276 24.9368 11.9602V9.62412H27.999C28.4977 9.62412 28.8565 9.99158 28.874 10.5253L33.2486 35.898C33.2661 36.3617 32.8723 36.7466 32.3736 36.7466H2.62637C2.12767 36.7466 1.73395 36.3617 1.75145 35.898L6.12605 10.5253C6.14792 9.99158 6.50226 9.62412 7.00097 9.62412ZM10.9381 13.5613C11.4324 13.5613 11.813 13.9418 11.813 14.4362C11.813 14.9305 11.4324 15.3111 10.9381 15.3111C10.4438 15.3111 10.0632 14.9305 10.0632 14.4362C10.0632 13.9418 10.4481 13.5613 10.9381 13.5613ZM24.0619 13.5613C24.5562 13.5613 24.9368 13.9418 24.9368 14.4362C24.9368 14.9305 24.5562 15.3111 24.0619 15.3111C23.5676 15.3111 23.187 14.9305 23.187 14.4362C23.187 13.9418 23.5719 13.5613 24.0619 13.5613Z" fill="#222222"/>
</svg>
