<svg width="58" height="56" viewBox="0 0 58 56" fill="none" xmlns="http://www.w3.org/2000/svg">
<g clip-path="url(#clip0)">
<path d="M26.6941 17.7142C26.586 17.7142 26.4851 17.6959 26.3842 17.6531C25.0798 17.1214 23.8042 17.1214 22.4998 17.6531C22.1394 17.7997 21.707 17.6714 21.5413 17.3659C21.3683 17.0603 21.5197 16.6997 21.88 16.5531C23.5808 15.8625 25.3104 15.8625 27.0112 16.5531C27.3715 16.6997 27.5229 17.0664 27.3499 17.3659C27.2202 17.5859 26.9608 17.7142 26.6941 17.7142Z" fill="#353535"/>
<path d="M35.2625 17.7142C35.1544 17.7142 35.0535 17.6959 34.9526 17.6531C33.6481 17.1214 32.3726 17.1214 31.0681 17.6531C30.7078 17.7997 30.2754 17.6714 30.1096 17.3659C29.9367 17.0603 30.088 16.6997 30.4483 16.5531C32.1491 15.8625 33.8788 15.8625 35.5796 16.5531C35.9399 16.6997 36.0912 17.0664 35.9183 17.3659C35.7814 17.5859 35.5291 17.7142 35.2625 17.7142Z" fill="#353535"/>
<path d="M28.914 26.2331C27.7465 26.2331 26.579 25.7687 25.4475 24.8337C25.1593 24.5953 25.1593 24.2103 25.4331 23.972C25.7142 23.7276 26.1682 23.7276 26.4493 23.9598C28.1429 25.3592 29.6635 25.3592 31.3787 23.9598C31.667 23.7276 32.121 23.7337 32.3948 23.972C32.6687 24.2164 32.6615 24.6014 32.3804 24.8337C31.249 25.7626 30.0815 26.2331 28.914 26.2331Z" fill="#353535"/>
<path d="M57.2793 54.228H45.1792V53.2135L47.9033 50.1458C48.5808 49.3819 48.9555 48.4346 48.9555 47.4813V38.443C48.9555 35.7785 46.7142 33.4991 43.6225 33.0163L42.9307 32.9063V23.2996C43.9901 23.2141 44.826 22.4624 44.826 21.5458V16.6446C44.826 15.7219 43.9901 14.9702 42.9307 14.8907V12.3302C42.9235 5.77908 36.6392 0.450195 28.9135 0.450195C21.1951 0.450195 14.9036 5.77908 14.9036 12.3302V14.8907C13.8442 14.9763 13.0082 15.728 13.0082 16.6446V21.5396C13.0082 22.4624 13.8442 23.2141 14.9036 23.2935V32.9063L14.2117 33.0163C11.12 33.493 8.87873 35.7785 8.87873 38.443V47.463C8.87873 48.4346 9.26068 49.3941 9.95974 50.1641L12.8136 53.3113V54.228H0.720676C0.324304 54.228 0 54.503 0 54.8391C0 55.1752 0.324304 55.4502 0.720676 55.4502H12.8136H45.1792H57.2721C57.6685 55.4502 57.9928 55.1752 57.9928 54.8391C57.9928 54.503 57.6757 54.228 57.2793 54.228ZM46.7502 49.4124L45.1792 51.1785V42.1952L47.507 40.4169V47.4874C47.5142 48.1719 47.2403 48.8563 46.7502 49.4124ZM47.5142 38.443V38.7669L45.1215 40.5941C44.8188 39.1274 43.3126 38.003 41.4965 38.003H36.2284C37.2085 36.6157 38.0517 35.1063 38.7435 33.4991L43.3631 34.2141C45.7701 34.593 47.5142 36.3713 47.5142 38.443ZM23.2922 38.0091C22.1896 36.5607 21.2599 34.9535 20.5032 33.218C22.3265 32.6496 23.6021 31.2135 23.7319 29.5391C24.6615 30.0646 25.6705 30.5046 26.7443 30.8346C27.4433 31.0485 28.1784 31.1585 28.9135 31.1585C29.6486 31.1585 30.3837 31.0546 31.0828 30.8346C32.1566 30.5046 33.1583 30.0646 34.0952 29.5391C34.2249 31.2135 35.4933 32.6496 37.3238 33.218C36.5743 34.9474 35.6446 36.5607 34.5348 38.0091H23.2922ZM18.2908 14.8907C25.3966 14.0291 29.908 12.6908 32.7115 10.5885C34.7005 12.5013 36.5887 13.7541 39.5291 15.123L39.0102 20.3785C38.8877 21.6252 38.5129 22.8291 37.9076 23.9657C37.5832 24.5646 37.1941 25.1452 36.7545 25.683C36.5743 25.8969 36.3797 26.1046 36.1851 26.3124C36.0914 26.3185 35.9978 26.3246 35.9041 26.3246H31.6953C31.299 26.3246 30.9746 26.5996 30.9746 26.9358C30.9746 27.2719 31.299 27.5469 31.6953 27.5469H34.7798C33.5547 28.4819 32.1566 29.203 30.5999 29.6858C29.5189 30.0158 28.3298 30.0158 27.2488 29.6858C22.5572 28.2496 19.2565 24.5952 18.8385 20.3785L18.2908 14.8907ZM39.7381 23.318H40.0984C39.9182 24.2041 39.3561 24.9863 38.5634 25.5302C38.794 25.188 39.0174 24.8396 39.212 24.4791C39.4138 24.0941 39.5867 23.7091 39.7381 23.318ZM38.4048 32.2096C36.7256 31.9469 35.5149 30.7124 35.5149 29.2641V28.6224C35.7671 28.4391 36.0266 28.2558 36.2644 28.0602C36.4878 27.8708 36.6968 27.6691 36.913 27.4674C39.1976 27.1191 41.0137 25.6219 41.4893 23.703V32.6863L38.4048 32.2096ZM43.3775 16.6446V21.5396C43.3775 21.8452 43.0892 22.0896 42.7289 22.0896H40.1344C40.2714 21.558 40.3795 21.0202 40.4371 20.4763L40.8695 16.0946H42.7289C43.0892 16.0946 43.3775 16.3452 43.3775 16.6446ZM28.9135 1.67242C35.8464 1.67242 41.4821 6.45131 41.4821 12.3302V14.8724H40.992L40.9993 14.8235C41.0209 14.5791 40.8767 14.3469 40.6245 14.2308C37.3743 12.758 35.4645 11.4685 33.3168 9.30519C33.1871 9.17075 32.9997 9.09742 32.7908 9.09131C32.5746 9.0852 32.3872 9.15242 32.2502 9.27464C29.663 11.4991 25.0939 12.8863 17.4187 13.7602C17.0368 13.803 16.7629 14.0902 16.799 14.4202L16.8422 14.8785H16.3521V12.3363C16.3449 6.45131 21.9878 1.67242 28.9135 1.67242ZM14.4496 21.5458V16.6446C14.4496 16.3391 14.7378 16.0946 15.0982 16.0946H16.9575L17.3899 20.4763C17.4476 21.0263 17.5485 21.5641 17.6854 22.0896H15.0982C14.745 22.0958 14.4496 21.8452 14.4496 21.5458ZM16.3449 23.318H18.089C18.9105 25.3835 20.3735 27.2291 22.3121 28.6408V29.2702C22.3121 30.7185 21.0942 31.953 19.4222 32.2157L16.3449 32.6924V23.318ZM14.4712 34.2202L19.0907 33.5052C19.7753 35.1185 20.6185 36.628 21.6059 38.0091H16.5107C14.6441 38.0091 13.1163 39.1885 12.8713 40.7163L10.3273 38.7669V38.443C10.3201 36.3713 12.0641 34.593 14.4712 34.2202ZM11.1056 49.4185C10.6011 48.8624 10.3201 48.1658 10.3201 47.463V40.4108L12.8208 42.3174V51.3008L11.1056 49.4185ZM14.255 54.228V41.1441C14.255 40.093 15.2639 39.2374 16.5035 39.2374H41.4821C42.7217 39.2374 43.7378 40.093 43.7378 41.1441V54.228H14.255Z" fill="#353535"/>
<path d="M29.2887 48.8441C27.4582 48.8441 25.9736 47.5853 25.9736 46.033C25.9736 44.4808 27.4582 43.2219 29.2887 43.2219C31.1193 43.2219 32.6039 44.4808 32.6039 46.033C32.6039 47.5853 31.1193 48.8441 29.2887 48.8441ZM29.2887 44.4441C28.2582 44.4441 27.415 45.1591 27.415 46.033C27.415 46.9069 28.2582 47.6219 29.2887 47.6219C30.3193 47.6219 31.1625 46.9069 31.1625 46.033C31.1625 45.153 30.3193 44.4441 29.2887 44.4441Z" fill="#353535"/>
</g>
<defs>
<clipPath id="clip0">
<rect width="58" height="55" fill="white" transform="translate(0 0.450195)"/>
</clipPath>
</defs>
</svg>
