<svg width="20" height="20" viewBox="0 0 20 20" fill="none" xmlns="http://www.w3.org/2000/svg">
<path d="M17.8331 0H2.13763C0.966325 0 0 0.966325 0 2.13763V17.8624C0 19.0337 0.966325 20 2.13763 20H17.8624C19.0337 20 20 19.0337 20 17.8624V2.13763C19.9707 0.937043 19.0337 0 17.8331 0ZM4.74378 9.39971C5.06589 9.0776 5.59297 9.0776 5.91508 9.39971L8.16984 11.6545C8.25769 11.7423 8.37482 11.7423 8.46266 11.6545L14.0556 6.06149C14.3777 5.73939 14.9048 5.73939 15.2269 6.06149C15.549 6.3836 15.549 6.91069 15.2269 7.2328L8.63836 13.8214C8.46266 13.9971 8.16984 13.9971 7.96486 13.8214L4.74378 10.571C4.42167 10.2489 4.42167 9.72182 4.74378 9.39971Z" fill="#FE2B6D"/>
</svg>
