<svg width="26" height="26" viewBox="0 0 26 26" fill="none" xmlns="http://www.w3.org/2000/svg">
<circle cx="13" cy="13" r="12.5" fill="white" stroke="#2457B6"/>
<path d="M12.778 18.084C12.526 18.084 12.316 18.014 12.148 17.874C11.9893 17.7247 11.91 17.5147 11.91 17.244V11.84C11.91 11.5693 11.9893 11.364 12.148 11.224C12.316 11.084 12.526 11.014 12.778 11.014C13.03 11.014 13.24 11.084 13.408 11.224C13.576 11.364 13.66 11.5693 13.66 11.84V17.244C13.66 17.5147 13.576 17.7247 13.408 17.874C13.24 18.014 13.03 18.084 12.778 18.084ZM12.778 9.768C12.4607 9.768 12.2087 9.684 12.022 9.516C11.8353 9.33867 11.742 9.11 11.742 8.83C11.742 8.55 11.8353 8.326 12.022 8.158C12.2087 7.99 12.4607 7.906 12.778 7.906C13.086 7.906 13.3333 7.99 13.52 8.158C13.716 8.326 13.814 8.55 13.814 8.83C13.814 9.11 13.7207 9.33867 13.534 9.516C13.3473 9.684 13.0953 9.768 12.778 9.768Z" fill="#2457B6"/>
</svg>
