<svg width="49" height="18" viewBox="0 0 49 18" fill="none" xmlns="http://www.w3.org/2000/svg">
<path d="M8.41116 17.0411C6.84716 17.0411 5.47482 16.7038 4.29416 16.0291C3.12882 15.3544 2.23182 14.3884 1.60316 13.1311C0.974489 11.8738 0.660156 10.4018 0.660156 8.71511C0.660156 7.02844 0.974489 5.56411 1.60316 4.32211C2.23182 3.06478 3.12882 2.09878 4.29416 1.42411C5.47482 0.749442 6.84716 0.412109 8.41116 0.412109C9.42316 0.412109 10.3738 0.565443 11.2632 0.87211C12.1525 1.16344 12.9422 1.59278 13.6322 2.16011C13.8315 2.31344 13.9695 2.47444 14.0462 2.64311C14.1228 2.81178 14.1612 3.01878 14.1612 3.26411C14.1612 3.60144 14.0692 3.88511 13.8852 4.11511C13.7012 4.34511 13.4788 4.46011 13.2182 4.46011C12.9115 4.46011 12.5972 4.35278 12.2752 4.13811C11.6158 3.64744 11.0025 3.31011 10.4352 3.12611C9.86782 2.92678 9.23916 2.82711 8.54916 2.82711C6.95449 2.82711 5.74316 3.32544 4.91516 4.32211C4.10249 5.31878 3.69616 6.78311 3.69616 8.71511C3.69616 10.6624 4.10249 12.1344 4.91516 13.1311C5.74316 14.1278 6.95449 14.6261 8.54916 14.6261C9.20849 14.6261 9.81416 14.5264 10.3662 14.3271C10.9335 14.1278 11.5698 13.7904 12.2752 13.3151C12.4285 13.2231 12.5818 13.1464 12.7352 13.0851C12.8885 13.0238 13.0495 12.9931 13.2182 12.9931C13.4788 12.9931 13.7012 13.1081 13.8852 13.3381C14.0692 13.5681 14.1612 13.8518 14.1612 14.1891C14.1612 14.4191 14.1228 14.6261 14.0462 14.8101C13.9695 14.9788 13.8315 15.1398 13.6322 15.2931C12.9422 15.8604 12.1525 16.2974 11.2632 16.6041C10.3738 16.8954 9.42316 17.0411 8.41116 17.0411Z" fill="#A6A6A6"/>
<path d="M23.6841 17.0411C22.1047 17.0411 20.7324 16.7038 19.5671 16.0291C18.4171 15.3544 17.5277 14.3884 16.8991 13.1311C16.2704 11.8738 15.9561 10.4018 15.9561 8.71511C15.9561 7.02844 16.2627 5.56411 16.8761 4.32211C17.5047 3.06478 18.4017 2.09878 19.5671 1.42411C20.7324 0.749442 22.1047 0.412109 23.6841 0.412109C25.2634 0.412109 26.6281 0.749442 27.7781 1.42411C28.9434 2.09878 29.8327 3.06478 30.4461 4.32211C31.0747 5.56411 31.3891 7.02844 31.3891 8.71511C31.3891 10.4018 31.0747 11.8738 30.4461 13.1311C29.8174 14.3884 28.9204 15.3544 27.7551 16.0291C26.6051 16.7038 25.2481 17.0411 23.6841 17.0411ZM23.6841 14.6721C25.1714 14.6721 26.3291 14.1584 27.1571 13.1311C28.0004 12.1038 28.4221 10.6318 28.4221 8.71511C28.4221 6.79844 28.0004 5.33411 27.1571 4.32211C26.3291 3.29478 25.1714 2.78111 23.6841 2.78111C22.1814 2.78111 21.0084 3.29478 20.1651 4.32211C19.3371 5.33411 18.9231 6.79844 18.9231 8.71511C18.9231 10.6318 19.3371 12.1038 20.1651 13.1311C21.0084 14.1584 22.1814 14.6721 23.6841 14.6721Z" fill="#A6A6A6"/>
<path d="M35.8119 16.8341C35.3672 16.8341 35.0145 16.7114 34.7539 16.4661C34.5085 16.2208 34.3859 15.8758 34.3859 15.4311V2.02211C34.3859 1.57744 34.5085 1.23244 34.7539 0.98711C35.0145 0.741776 35.3672 0.619109 35.8119 0.619109H40.3659C43.0186 0.619109 45.0732 1.33211 46.5299 2.75811C48.0019 4.16878 48.7379 6.15444 48.7379 8.71511C48.7379 11.2911 48.0019 13.2921 46.5299 14.7181C45.0732 16.1288 43.0186 16.8341 40.3659 16.8341H35.8119ZM40.1819 14.4191C43.9079 14.4191 45.7709 12.5178 45.7709 8.71511C45.7709 4.92778 43.9079 3.03411 40.1819 3.03411H37.3529V14.4191H40.1819Z" fill="#A6A6A6"/>
</svg>
