<svg width="16" height="16" viewBox="0 0 16 16" fill="none" xmlns="http://www.w3.org/2000/svg">
<g clip-path="url(#clip0)">
<path d="M2.60153 12.4008C2.71701 12.5057 2.7515 12.6722 2.69001 12.8147C2.59703 13.0381 2.51755 13.2646 2.40357 13.479C2.12762 13.9934 1.71221 14.3789 1.29379 14.7643C1.10183 14.9472 0.897869 15.1302 0.719405 15.3252C0.540941 15.5201 0.585932 15.6071 0.833382 15.6701C1.47675 15.8336 2.11863 15.7751 2.756 15.6506C3.95576 15.4151 5.09553 14.9547 6.20531 14.4298C6.33128 14.3654 6.47526 14.3429 6.61473 14.3654C7.68551 14.5498 8.78329 14.5198 9.84208 14.2754C11.8352 13.797 13.4519 12.7337 14.5646 10.931C15.3715 9.6503 15.6714 8.11611 15.4075 6.62691C15.0985 4.76728 14.1192 3.33506 12.6495 2.27778C11.3283 1.30597 9.73111 0.781076 8.09043 0.778076C7.70051 0.803571 7.30759 0.80657 6.92067 0.86056C5.244 1.09151 3.7518 1.76038 2.51905 2.96764C1.36278 4.10441 0.651919 5.48114 0.522944 7.1473C0.39547 8.662 0.825884 10.1722 1.7332 11.3915C2.00465 11.7424 2.29409 12.0798 2.60153 12.4008Z" fill="#868686"/>
</g>
<defs>
<clipPath id="clip0">
<rect width="15" height="14.9925" fill="white" transform="translate(0.5 0.778076)"/>
</clipPath>
</defs>
</svg>
