<svg width="20" height="18" viewBox="0 0 20 18" fill="none" xmlns="http://www.w3.org/2000/svg">
<g clip-path="url(#clip0)">
<path d="M4.51778 12.6578L3.89333 17.0133L9.99556 12.96H13.52C17.0978 12.96 20 10.0578 20 6.48C20 2.90222 17.0978 0 13.52 0H6.48C2.9 0 0 2.90222 0 6.48222C0 9.30444 1.82889 11.8022 4.51778 12.6578ZM6.48 0.8H13.52C16.6578 0.8 19.2 3.34222 19.2 6.48C19.2 9.61778 16.6578 12.16 13.52 12.16H9.75556L4.94 15.36L5.41111 12.0711L5.06444 11.9822C2.02444 11.1978 0.197778 8.10222 0.98 5.06222C1.62667 2.55333 3.88889 0.8 6.48 0.8Z" fill="#202020"/>
</g>
<defs>
<clipPath id="clip0">
<rect width="20" height="17.0133" fill="white"/>
</clipPath>
</defs>
</svg>
