<svg width="14" height="16" viewBox="0 0 14 16" fill="none" xmlns="http://www.w3.org/2000/svg">
<path fill-rule="evenodd" clip-rule="evenodd" d="M13.475 8.67561C13.5861 9.90026 12.4239 10.2587 11.9631 10.2587C10.1755 10.2587 8.3879 10.2587 6.60214 10.2606C6.85936 10.8119 7.1721 12.2713 6.77794 14.2821C6.62064 15.0755 6.1432 15.605 5.53438 15.5941C5.04399 15.585 4.57765 15.2138 4.52769 14.7516C4.47402 14.242 4.34634 13.5178 4.22605 13.0229C3.84299 11.4379 1.7852 9.34526 0.482422 8.61556V0.874599C1.36513 0.383283 2.3237 0.212232 3.3452 0.230429C4.96071 0.261364 9.5778 0.234069 10.4142 0.239528C11.0064 0.243167 11.5967 0.521579 11.8799 1.22398C12.2685 2.18296 11.2673 2.66335 11.2673 2.66335C11.2673 2.66335 12.3628 2.61058 12.6127 3.57502C12.8699 4.56675 11.8614 4.95798 11.8614 4.95798C12.5424 5.03077 12.9791 5.20546 13.1438 5.8096C13.3381 6.5211 12.8717 7.05427 12.1371 7.36361C12.2481 7.37453 13.3732 7.55286 13.475 8.67561Z" fill="#C5C5C5"/>
</svg>
