<svg width="22" height="22" viewBox="0 0 22 22" fill="none" xmlns="http://www.w3.org/2000/svg">
<path d="M21.9435 10.7805C21.8973 10.7112 21.8511 10.6649 21.7817 10.6187L18.8002 8.90836L20.5336 5.9037C20.6492 5.69568 20.5798 5.44144 20.3718 5.32588C20.3025 5.27965 20.2332 5.25654 20.1638 5.25654H16.72V1.83584C16.72 1.60471 16.5351 1.3967 16.304 1.3967C16.2346 1.3967 16.1422 1.41981 16.096 1.46604L13.0913 3.17638L11.3809 0.194834C11.2423 -0.0131817 10.9649 -0.0594073 10.7569 0.0792695C10.7107 0.102382 10.6645 0.148608 10.6413 0.194834L8.90788 3.17638L5.94944 1.44292C5.74142 1.32736 5.48718 1.3967 5.37162 1.60471C5.32539 1.67405 5.30228 1.74339 5.30228 1.81273V5.25654H1.85847C1.62734 5.25654 1.41933 5.44144 1.41933 5.67257C1.41933 5.74191 1.44244 5.83436 1.48867 5.88058L3.19901 8.86213L0.217461 10.6187C0.00944549 10.7343 -0.0598929 10.9885 0.0556711 11.1965C0.101897 11.2659 0.148122 11.3121 0.217461 11.3583L3.19901 13.0687L1.48867 16.0502C1.3731 16.2582 1.44244 16.5125 1.65045 16.628C1.71979 16.6743 1.78913 16.6974 1.85847 16.6974H5.30228V20.1412C5.30228 20.3723 5.48718 20.5803 5.71831 20.5803C5.78765 20.5803 5.8801 20.5572 5.92632 20.511L8.90788 18.8006L10.6182 21.7822C10.7338 21.9902 10.988 22.0595 11.196 21.944C11.2654 21.8978 11.3116 21.8515 11.3578 21.7822L13.0913 18.8006L16.0728 20.511C16.2809 20.6266 16.5351 20.5572 16.6507 20.3492C16.6969 20.2799 16.72 20.2105 16.72 20.1412V16.6974H20.1638C20.3949 16.6974 20.603 16.5125 20.603 16.2813C20.603 16.1889 20.5798 16.1196 20.5336 16.0502L18.8233 13.0687L21.8048 11.3583C21.9897 11.2428 22.0591 10.9654 21.9435 10.7805ZM18.0143 12.5371C17.8063 12.6526 17.737 12.9069 17.8525 13.1149L19.4242 15.8422H16.304C16.0728 15.8422 15.8648 16.0271 15.8648 16.2813V19.4016L13.1606 17.8299C12.9526 17.7143 12.6984 17.7837 12.5828 17.9917L11.0111 20.6959L9.43947 17.9917C9.32391 17.7837 9.06967 17.7143 8.86165 17.8299L6.15745 19.4016V16.2582C6.15745 16.0271 5.97255 15.8191 5.71831 15.8191H2.59808L4.16975 13.1149C4.28532 12.9069 4.21598 12.6526 4.00796 12.5371L1.30376 10.9885L4.00796 9.41684C4.21598 9.30128 4.28532 9.04704 4.16975 8.83902L2.59808 6.13482H5.71831C5.94944 6.13482 6.15745 5.94992 6.15745 5.69568V2.57545L8.86165 4.14712C9.06967 4.26269 9.32391 4.19335 9.43947 3.98533L11.0111 1.25802L12.5828 3.96222C12.6984 4.17024 12.9526 4.23957 13.1606 4.12401L15.8648 2.57545V5.69568C15.8648 5.92681 16.0497 6.13482 16.304 6.13482H19.4242L17.8525 8.83902C17.737 9.04704 17.8063 9.30128 18.0143 9.41684L20.7185 10.9885L18.0143 12.5371Z" fill="black"/>
<path d="M10.5725 8.47044C10.5725 7.52281 9.8098 6.7832 8.88529 6.7832C7.96078 6.7832 7.19806 7.54593 7.19806 8.47044C7.19806 9.39495 7.93767 10.1577 8.88529 10.1577C9.8098 10.1577 10.5725 9.39495 10.5725 8.47044ZM8.05323 8.47044C8.05323 8.00818 8.42304 7.63838 8.88529 7.63838C9.34755 7.63838 9.71735 8.00818 9.71735 8.47044C9.71735 8.9327 9.34755 9.3025 8.88529 9.3025C8.42304 9.27939 8.05323 8.90958 8.05323 8.47044Z" fill="black"/>
<path d="M13.416 11.6372C12.4915 11.6372 11.7288 12.3999 11.7288 13.3244C11.7288 14.249 12.4915 15.0117 13.416 15.0117C14.3405 15.0117 15.1032 14.249 15.1032 13.3244C15.1032 12.3768 14.3405 11.6372 13.416 11.6372ZM13.416 14.1565C12.9537 14.1565 12.5839 13.7867 12.5839 13.3244C12.5839 12.8622 12.9537 12.4924 13.416 12.4924C13.8783 12.4924 14.2481 12.8622 14.2481 13.3244C14.2249 13.7867 13.8551 14.1565 13.416 14.1565Z" fill="black"/>
<path d="M14.3631 6.41413C14.1782 6.27545 13.9008 6.32168 13.7621 6.50658L7.96082 14.6654C7.82214 14.8503 7.86837 15.1277 8.05327 15.2663C8.23817 15.405 8.51553 15.3588 8.6542 15.1739L14.4786 7.01506C14.5942 6.80705 14.548 6.55281 14.3631 6.41413Z" fill="black"/>
</svg>
