<svg width="25" height="17" viewBox="0 0 25 17" fill="none" xmlns="http://www.w3.org/2000/svg">
<g clip-path="url(#clip0)">
<path d="M15.4133 0.00519973C15.5128 0.0194059 15.6094 0.0591755 15.6889 0.121683L24.7809 7.22476C25.0281 7.41797 25.0735 7.77596 24.8803 8.02315C24.8519 8.06009 24.8178 8.09419 24.7809 8.1226L15.6889 15.2257C15.4389 15.416 15.0837 15.3706 14.8934 15.1206C14.8195 15.024 14.7769 14.9046 14.7769 14.7796V11.9298C14.0581 11.9014 12.4471 11.8588 10.0718 12.268C7.23626 12.7566 3.76427 13.8761 0.942931 16.3423C0.707109 16.5497 0.346272 16.5241 0.141704 16.2883C0.011007 16.1377 -0.0316115 15.9275 0.0280544 15.7371C2.40048 8.42661 9.62289 4.94326 14.7769 3.55674V0.573446C14.774 0.260911 15.0269 0.00235295 15.3395 -0.000488281C15.365 -0.000488281 15.3906 0.0023585 15.4133 0.00519973ZM15.9105 1.72699V3.98293C15.9105 4.24148 15.7344 4.46878 15.4844 4.53412C10.9952 5.67062 4.73313 8.5573 1.90895 14.2398C4.5513 12.4782 7.44083 11.569 9.87292 11.1485C12.8392 10.6371 15.1889 10.7934 15.3679 10.8019C15.6719 10.8161 15.9105 11.0661 15.9105 11.3701V13.6175L23.5108 7.67653L15.9105 1.72699Z" fill="#414141"/>
</g>
<defs>
<clipPath id="clip0">
<rect width="25" height="16.482" fill="white"/>
</clipPath>
</defs>
</svg>
