<svg width="22" height="26" viewBox="0 0 22 26" fill="none" xmlns="http://www.w3.org/2000/svg">
<g clip-path="url(#clip0)">
<path d="M10.9377 0.00184453C10.6475 0.0328463 10.4304 0.280869 10.4361 0.573977V3.95599C10.4304 4.26601 10.6813 4.52247 10.9913 4.52811C11.3013 4.53374 11.5578 4.28292 11.5634 3.9729C11.5634 3.96726 11.5634 3.96163 11.5634 3.95599V0.573977C11.569 0.263959 11.3239 0.00466013 11.011 -0.000976562C10.9857 -0.000976562 10.9603 -0.00097381 10.9377 0.00184453ZM5.56316 2.25652C5.25596 2.2988 5.03894 2.58345 5.08122 2.89065C5.08967 2.94702 5.10658 3.00339 5.13195 3.05694L6.25929 5.59345C6.35229 5.88938 6.66795 6.05566 6.96669 5.96265C7.26262 5.86965 7.4289 5.55399 7.3359 5.25524C7.3218 5.21297 7.30489 5.17351 7.28235 5.13406L6.15501 2.59755C6.05637 2.36644 5.81681 2.22552 5.56316 2.25652ZM16.3011 2.25652C16.0981 2.27907 15.9206 2.41154 15.8417 2.60037L14.7143 5.13688C14.5537 5.40462 14.641 5.75127 14.9088 5.9091C15.1765 6.06975 15.5232 5.98238 15.681 5.71464C15.7036 5.67518 15.7233 5.63572 15.7346 5.59345L16.8619 3.05694C16.9944 2.7751 16.8732 2.43971 16.5913 2.30725C16.504 2.26497 16.4025 2.24807 16.3011 2.25652ZM0.509864 4.22936C0.199846 4.26036 -0.0256219 4.53656 0.00256156 4.84376C0.0166533 4.97904 0.0758385 5.10305 0.174481 5.19605L2.71099 7.73256C2.928 7.95521 3.28593 7.96086 3.50858 7.74385C3.73123 7.52683 3.73687 7.1689 3.51986 6.94625C3.51422 6.94061 3.50858 6.93498 3.50295 6.92934L0.966435 4.39283C0.848065 4.27446 0.678964 4.21527 0.509864 4.22936ZM21.3572 4.22936C21.2332 4.24627 21.1176 4.30547 21.0302 4.39565L18.4937 6.93216C18.2683 7.14636 18.2598 7.50427 18.474 7.72974C18.6882 7.95521 19.0461 7.96367 19.2716 7.74947C19.2772 7.74384 19.2829 7.7382 19.2885 7.73256L21.825 5.19605C22.0533 4.98186 22.0617 4.62674 21.8504 4.39846C21.7207 4.26881 21.5375 4.204 21.3572 4.22936ZM4.85857 8.46815C4.7092 8.48224 4.57392 8.55552 4.48091 8.67108L1.25673 12.6168C1.17499 12.7182 1.1299 12.8479 1.13272 12.9775V24.8146C1.13272 25.1246 1.38637 25.3782 1.69639 25.3782H3.66923C3.97925 25.3839 4.23572 25.133 4.24135 24.823C4.24699 24.513 3.99616 24.2565 3.68614 24.2509C3.6805 24.2509 3.67487 24.2509 3.66923 24.2509H2.26006V13.5412H19.7338V24.2509H5.9239C5.61389 24.2453 5.35742 24.4961 5.35178 24.8061C5.34614 25.1161 5.59698 25.3726 5.90699 25.3782C5.91263 25.3782 5.91827 25.3782 5.9239 25.3782H20.2975C20.6075 25.3782 20.8611 25.1246 20.8611 24.8146V12.9775C20.8639 12.8479 20.8189 12.7182 20.7371 12.6168L17.5129 8.67108C17.403 8.54143 17.2424 8.46533 17.0733 8.46815H4.92057C4.90084 8.46533 4.88112 8.46533 4.85857 8.46815ZM5.17704 9.59548H16.8196L19.1109 12.4138H2.88573L5.17704 9.59548ZM8.74507 14.3867C7.81783 14.3867 7.05406 15.1504 7.05406 16.0777C7.05406 17.0049 7.81783 17.7687 8.74507 17.7687H13.2544C14.1817 17.7687 14.9454 17.0049 14.9454 16.0777C14.9454 15.1504 14.1817 14.3867 13.2544 14.3867H8.74507ZM8.74507 15.514H13.2544C13.5757 15.514 13.8181 15.7564 13.8181 16.0777C13.8181 16.399 13.5757 16.6413 13.2544 16.6413H8.74507C8.42378 16.6413 8.1814 16.399 8.1814 16.0777C8.1814 15.7564 8.42096 15.514 8.74507 15.514Z" fill="black"/>
</g>
<defs>
<clipPath id="clip0">
<rect width="22" height="25.3764" fill="white"/>
</clipPath>
</defs>
</svg>
