<svg width="22" height="21" viewBox="0 0 22 21" fill="none" xmlns="http://www.w3.org/2000/svg">
<g clip-path="url(#clip0)">
<path d="M19.1885 0H2.81145C1.25978 0 0 1.25978 0 2.81145V12.905C0 14.4567 1.25978 15.7165 2.81145 15.7165H3.47207L2.21229 19.7109C2.13548 19.9413 2.22765 20.2025 2.44274 20.3254C2.51955 20.3715 2.62709 20.4022 2.71927 20.4022C2.85754 20.4022 2.99581 20.3561 3.08799 20.2486L7.62011 15.7165H19.1732C20.7249 15.7165 21.9846 14.4567 21.9846 12.905V2.81145C22 1.25978 20.7402 0 19.1885 0ZM20.9399 12.905C20.9399 13.8575 20.1564 14.6411 19.1885 14.6564H7.40503C7.26676 14.6564 7.12849 14.7179 7.03631 14.8101L3.88687 17.9595L4.70112 15.3478C4.74721 15.1941 4.71648 15.0098 4.6243 14.8715C4.53212 14.7332 4.36313 14.6564 4.19413 14.6564H2.81145C1.85894 14.6564 1.07542 13.8729 1.07542 12.905V2.81145C1.07542 1.85894 1.85894 1.07542 2.81145 1.07542H19.1885C20.1411 1.07542 20.9399 1.85894 20.9399 2.82682V12.905Z" fill="#565656"/>
<path d="M15.5167 7.23633C15.1787 8.60365 13.3044 10.7238 11.6605 11.8914C11.2611 12.1679 10.7388 12.1679 10.3393 11.8914C8.71083 10.7238 6.82116 8.60365 6.48317 7.23633C6.05301 5.5003 7.34351 3.31873 9.52507 3.76426C10.0474 3.94862 10.539 4.17907 10.9999 4.48633C11.4608 4.19443 11.9678 3.94862 12.4748 3.76426C14.641 3.31873 15.9469 5.5003 15.5167 7.23633Z" fill="#565656"/>
</g>
<defs>
<clipPath id="clip0">
<rect width="22" height="20.4022" fill="white"/>
</clipPath>
</defs>
</svg>
