<svg width="20" height="22" viewBox="0 0 20 22" fill="none" xmlns="http://www.w3.org/2000/svg">
<path d="M10 0C7.65522 0 5.75039 1.90483 5.75039 4.24961V4.49959H4.00055C3.17813 4.49959 2.52819 5.17453 2.50069 5.97696L0.000920476 20.4756C-0.0290768 21.3181 0.678358 21.998 1.50078 21.998H18.4992C19.3216 21.998 20.0291 21.3181 19.9991 20.4756L17.4993 5.97696C17.4718 5.17703 16.8219 4.49959 15.9994 4.49959H14.2496V4.24961C14.2496 1.90483 12.3473 0 10 0ZM10 0.999908C11.8098 0.999908 13.2497 2.43978 13.2497 4.24961V4.49959H6.7503V4.24961C6.7503 2.44228 8.19267 0.999908 10 0.999908ZM4.00055 5.4995H5.75039V6.83438C5.17044 7.04186 4.75048 7.6018 4.75048 8.24924C4.75048 9.07167 5.42792 9.74911 6.25035 9.74911C7.07277 9.74911 7.75021 9.07167 7.75021 8.24924C7.75021 7.6018 7.33025 7.04436 6.7503 6.83438V5.4995H13.2497V6.83438C12.6698 7.04186 12.2498 7.6018 12.2498 8.24924C12.2498 9.07167 12.9272 9.74911 13.7497 9.74911C14.5721 9.74911 15.2495 9.07167 15.2495 8.24924C15.2495 7.6018 14.8296 7.04436 14.2496 6.83438V5.4995H15.9994C16.2844 5.4995 16.4894 5.70948 16.4994 6.01445L18.9992 20.5131C19.0092 20.7781 18.7842 20.9981 18.4992 20.9981H1.50078C1.21581 20.9981 0.990829 20.7781 1.00083 20.5131L3.5006 6.01445C3.5131 5.70948 3.71558 5.4995 4.00055 5.4995ZM6.25035 7.74929C6.53282 7.74929 6.7503 7.96677 6.7503 8.24924C6.7503 8.53172 6.53282 8.7492 6.25035 8.7492C5.96787 8.7492 5.75039 8.53172 5.75039 8.24924C5.75039 7.96677 5.97037 7.74929 6.25035 7.74929ZM13.7497 7.74929C14.0321 7.74929 14.2496 7.96677 14.2496 8.24924C14.2496 8.53172 14.0321 8.7492 13.7497 8.7492C13.4672 8.7492 13.2497 8.53172 13.2497 8.24924C13.2497 7.96677 13.4697 7.74929 13.7497 7.74929Z" fill="black"/>
</svg>
