<svg width="15" height="14" viewBox="0 0 15 14" fill="none" xmlns="http://www.w3.org/2000/svg">
<path d="M10.8119 0.00065078C9.70446 0.00065078 8.6438 0.43739 7.86391 1.22248L7.49476 1.59163L7.12561 1.22248C5.49824 -0.404893 2.857 -0.410092 1.22443 1.22248C-0.408144 2.85505 -0.408144 5.49109 1.22443 7.11846L7.49476 13.3992L13.7651 7.11846C15.3977 5.50149 15.4133 2.87065 13.8015 1.23808C13.0112 0.43739 11.9297 -0.0045485 10.8119 0.00065078ZM13.4115 6.75971L7.49476 12.6557L1.59358 6.75451C0.168977 5.32991 0.163777 3.01623 1.59358 1.59163C3.02338 0.167028 5.33186 0.161828 6.75646 1.58643L7.49476 2.32473L8.23306 1.58643C9.65766 0.161828 11.9713 0.161828 13.3959 1.58643C14.8205 3.01103 14.8205 5.32471 13.3959 6.74931L13.4115 6.75971Z" fill="black"/>
</svg>
