<svg width="26" height="17" viewBox="0 0 26 17" fill="none" xmlns="http://www.w3.org/2000/svg">
<path d="M19.4991 3.54541C19.1741 3.54541 18.9082 3.80836 18.9082 4.13632V5.31814C18.9082 5.64314 19.1741 5.90905 19.4991 5.90905C19.8241 5.90905 20.09 5.64314 20.09 5.31814V4.13632C20.09 3.81132 19.8271 3.54541 19.4991 3.54541Z" fill="#2457B6"/>
<path d="M19.4991 7.09082C19.1741 7.09082 18.9082 7.35377 18.9082 7.68173V8.86355C18.9082 9.18855 19.1741 9.45445 19.4991 9.45445C19.8241 9.45445 20.09 9.18855 20.09 8.86355V7.68173C20.09 7.35673 19.8271 7.09082 19.4991 7.09082Z" fill="#2457B6"/>
<path d="M19.4991 10.6362C19.1741 10.6362 18.9082 10.8992 18.9082 11.2271V12.409C18.9082 12.734 19.1741 12.9999 19.4991 12.9999C19.8241 12.9999 20.09 12.734 20.09 12.409V11.2271C20.09 10.9021 19.8271 10.6362 19.4991 10.6362Z" fill="#2457B6"/>
<path d="M25.5273 5.95636C25.802 5.90023 26 5.65796 26 5.37727V0.590909C26 0.265909 25.737 0 25.4091 0H0.590909C0.265909 0 0 0.262955 0 0.590909V5.37727C0 5.65796 0.197955 5.90023 0.472727 5.95636C1.75205 6.21932 2.57636 7.46614 2.31636 8.74545C2.12727 9.67318 1.40045 10.397 0.472727 10.5891C0.197955 10.6452 0 10.8875 0 11.1682V15.9545C0 16.2795 0.262955 16.5455 0.590909 16.5455H25.4091C25.7341 16.5455 26 16.2825 26 15.9545V11.1682C26 10.8875 25.802 10.6452 25.5273 10.5891C24.248 10.3261 23.4236 9.07932 23.6836 7.8C23.8727 6.87227 24.5995 6.14545 25.5273 5.95636ZM24.8182 11.6143V15.3636H20.0909V14.7727C20.0909 14.4477 19.825 14.1818 19.5 14.1818C19.175 14.1818 18.9091 14.4477 18.9091 14.7727V15.3636H1.18182V11.6143C3.02841 10.9614 3.99455 8.93455 3.34159 7.08795C2.98409 6.0775 2.18932 5.28273 1.18182 4.92818V1.18182H18.9091V1.77273C18.9091 2.09773 19.175 2.36364 19.5 2.36364C19.825 2.36364 20.0909 2.09773 20.0909 1.77273V1.18182H24.8182V4.93114C22.9716 5.58409 22.0055 7.61091 22.6584 9.4575C23.013 10.465 23.8077 11.2598 24.8182 11.6143Z" fill="#2457B6"/>
<path d="M8.27273 7.68168C9.25068 7.68168 10.0455 6.88691 10.0455 5.90896C10.0455 4.931 9.25068 4.13623 8.27273 4.13623C7.29477 4.13623 6.5 4.931 6.5 5.90896C6.5 6.88691 7.29477 7.68168 8.27273 7.68168ZM8.27273 5.31805C8.59773 5.31805 8.86364 5.58396 8.86364 5.90896C8.86364 6.23396 8.59773 6.49987 8.27273 6.49987C7.94773 6.49987 7.68182 6.23396 7.68182 5.90896C7.68182 5.58396 7.94773 5.31805 8.27273 5.31805Z" fill="#2457B6"/>
<path d="M13.7658 4.3105L6.67491 11.4014C6.4415 11.6289 6.43559 12.0041 6.66309 12.2375C6.89059 12.471 7.26582 12.4769 7.49923 12.2494C7.50218 12.2464 7.50514 12.2435 7.51104 12.2375L14.602 5.14664C14.8295 4.91323 14.8265 4.538 14.5901 4.3105C14.3597 4.08595 13.9933 4.08595 13.7658 4.3105Z" fill="#2457B6"/>
<path d="M12.9993 8.86377C12.0213 8.86377 11.2266 9.65854 11.2266 10.6365C11.2266 11.6145 12.0213 12.4092 12.9993 12.4092C13.9772 12.4092 14.772 11.6145 14.772 10.6365C14.772 9.65854 13.9772 8.86377 12.9993 8.86377ZM12.9993 11.2274C12.6743 11.2274 12.4084 10.9615 12.4084 10.6365C12.4084 10.3115 12.6743 10.0456 12.9993 10.0456C13.3243 10.0456 13.5902 10.3115 13.5902 10.6365C13.5902 10.9615 13.3243 11.2274 12.9993 11.2274Z" fill="#2457B6"/>
</svg>
