<svg width="13" height="18" viewBox="0 0 13 18" fill="none" xmlns="http://www.w3.org/2000/svg">
<path d="M8.96107 0H4.03893C3.85857 0.00530119 3.715 0.151614 3.71429 0.330087V1.94377H0.334643C0.151786 1.94907 0.005 2.09468 0 2.27562V4.71558C0 4.89123 0.157143 5.01846 0.334643 5.01846H0.95L1.76929 16.7249C1.77964 16.8942 1.91857 17.0281 2.09 17.0345H10.91C11.0814 17.0281 11.22 16.8942 11.2307 16.7249L12.05 5.01846H12.6654C12.8429 5.01846 13 4.89123 13 4.71558V2.27562C12.995 2.09468 12.8482 1.94942 12.6657 1.94377H9.28572V0.330087C9.285 0.151614 9.14143 0.00530119 8.96107 0ZM4.35714 0.636143H8.64286V1.94377H4.35714V0.636143ZM10.61 16.3983H2.39L1.59429 5.01846H11.4057L10.61 16.3983ZM12.3571 4.38232H0.642857V2.57991H12.3571V4.38232Z" fill="black"/>
<path d="M8.32059 7.17432H7.67773V14.0659H8.32059V7.17432Z" fill="black"/>
<path d="M5.32059 7.17432H4.67773V14.0659H5.32059V7.17432Z" fill="black"/>
</svg>
