<svg width="80" height="81" viewBox="0 0 80 81" fill="none" xmlns="http://www.w3.org/2000/svg">
<g clip-path="url(#clip0)">
<path opacity="0.1" d="M65.3707 76.5962C65.3707 78.9857 54.1626 80.9248 40.3377 80.9248C26.5114 80.9248 15.3047 78.9871 15.3047 76.5962C15.3047 74.2053 26.5128 72.2676 40.3377 72.2676C54.1626 72.2676 65.3707 74.2053 65.3707 76.5962Z" fill="black"/>
<path d="M40.0068 0C45.9617 0 54.1699 20.8699 55.0791 21.4354C55.9883 22.0022 78.0341 24.6682 79.8623 28.9561C81.6906 33.244 64.7283 48.7554 64.3074 49.812C63.8865 50.8671 68.1253 72.9227 64.6385 75.8103C61.1518 78.6965 41.2219 67.4099 40.0068 67.4028C38.7917 67.3958 19.6673 78.7569 15.3752 75.8103C11.083 72.8638 16.0164 51.006 15.7063 49.812C15.3962 48.6193 -1.78635 34.6345 0.151357 28.9561C2.08906 23.2791 24.1432 22.0233 24.9346 21.4354C25.7273 20.8475 34.0534 0 40.0068 0Z" fill="#FFBD39"/>
<path d="M40.0066 2.5918C45.5573 2.5918 52.8339 22.791 53.6814 23.3186C54.5288 23.8462 75.4493 25.5846 77.1541 29.5821C78.8588 33.5782 62.6739 47.6641 62.2838 48.6476C61.8924 49.6312 66.2154 70.5629 62.9658 73.2527C59.7162 75.9438 41.1403 65.0501 40.0066 65.043C38.8729 65.036 21.0477 76 17.0474 73.2527C13.0471 70.5068 18.3916 50.1335 18.1026 49.0209C17.8149 47.9068 1.05192 34.8733 2.85772 29.5807C4.66353 24.2882 25.967 23.8658 26.7051 23.3172C27.4431 22.77 34.4573 2.5918 40.0066 2.5918Z" fill="url(#paint0_linear)"/>
<path d="M7.71589 30.5604C7.33003 26.7972 19.6746 24.5817 20.2204 28.9861C20.7649 33.3891 8.24346 35.6874 7.71589 30.5604Z" fill="white"/>
<path d="M23.3806 27.7496C23.288 25.3292 26.9782 25.1819 27.1704 27.1673C27.3851 29.3898 23.4662 30.0128 23.3806 27.7496Z" fill="white"/>
<g opacity="0.6">
<g opacity="0.6">
<g opacity="0.6">
<g opacity="0.6">
<path opacity="0.6" d="M29.3685 47.4881C29.3685 49.9365 27.219 51.9219 24.5671 51.9219C21.9152 51.9219 19.7656 49.9365 19.7656 47.4881C19.7656 45.0397 21.9166 43.0557 24.5671 43.0557C27.2176 43.0557 29.3685 45.0397 29.3685 47.4881Z" fill="#FF5F82"/>
</g>
<g opacity="0.6">
<path opacity="0.6" d="M61.2025 47.4881C61.2025 49.9365 59.053 51.9219 56.4011 51.9219C53.7492 51.9219 51.5996 49.9365 51.5996 47.4881C51.5996 45.0397 53.7492 43.0557 56.4011 43.0557C59.053 43.0557 61.2025 45.0397 61.2025 47.4881Z" fill="#FF5F82"/>
</g>
</g>
</g>
</g>
<path d="M29.0483 46.7429C29.5618 46.3557 35.2514 46.6531 40.7306 46.6686C45.7832 46.6826 50.6562 46.3865 51.1347 46.7429C52.1337 47.488 48.661 55.981 40.0964 55.981C31.5318 55.981 28.0633 47.488 29.0483 46.7429Z" fill="#872A2A"/>
<path d="M25.3135 31.0031C12.3502 25.5506 13.7182 40.2159 28.1927 42.5311C39.1805 33.857 35.6461 21.1813 25.3135 31.0031Z" fill="#FF5F5F"/>
<path d="M54.6189 31.0017C67.3901 25.11 66.5201 39.8146 52.134 42.6209C40.8557 34.327 43.958 21.5376 54.6189 31.0017Z" fill="#FF5F5F"/>
</g>
<defs>
<linearGradient id="paint0_linear" x1="21.4467" y1="20.5981" x2="65.2522" y2="73.2187" gradientUnits="userSpaceOnUse">
<stop offset="0.043" stop-color="#FFF466"/>
<stop offset="0.0753" stop-color="#FFF466"/>
<stop offset="0.3152" stop-color="#FFEC5F"/>
<stop offset="0.6922" stop-color="#FFD54D"/>
<stop offset="0.8602" stop-color="#FFC943"/>
</linearGradient>
<clipPath id="clip0">
<rect width="80" height="80.9247" fill="white"/>
</clipPath>
</defs>
</svg>
