<svg width="18" height="20" viewBox="0 0 18 20" fill="none" xmlns="http://www.w3.org/2000/svg">
<path d="M5.06449 18.028H2.6258C2.19461 18.028 1.78108 17.8567 1.47618 17.5518C1.17129 17.2469 1 16.8334 1 16.4022V10.7119C1 10.2807 1.17129 9.86719 1.47618 9.56229C1.78108 9.2574 2.19461 9.08611 2.6258 9.08611H5.06449M10.7548 7.46031V4.20872C10.7548 3.56193 10.4979 2.94164 10.0405 2.4843C9.58316 2.02695 8.96287 1.77002 8.31609 1.77002L5.06449 9.08611V18.028H14.234C14.6261 18.0324 15.0066 17.895 15.3053 17.6411C15.6041 17.3871 15.801 17.0337 15.8598 16.6461L16.9816 9.32998C17.017 9.09697 17.0012 8.85905 16.9355 8.63271C16.8698 8.40638 16.7557 8.19704 16.601 8.01919C16.4464 7.84134 16.2549 7.69925 16.0399 7.60274C15.8249 7.50624 15.5915 7.45764 15.3558 7.46031H10.7548Z" stroke="#3463B4" stroke-width="2" stroke-linecap="round" stroke-linejoin="round"/>
</svg>
