<svg width="13" height="13" viewBox="0 0 13 13" fill="none" xmlns="http://www.w3.org/2000/svg">
<g clip-path="url(#clip0)">
<path d="M6.19 0.592285C2.77029 0.592285 0 3.36257 0 6.78229C0 10.202 2.77029 12.9723 6.19 12.9723C9.60971 12.9723 12.38 10.202 12.38 6.78229C12.3757 3.36473 9.60755 0.5966 6.19 0.592285ZM9.33786 4.72614L6.01955 9.17069C5.96346 9.2462 5.875 9.29367 5.78007 9.30014H5.75849C5.67219 9.30014 5.5902 9.26562 5.52979 9.20305L3.38519 6.99804C3.26437 6.86643 3.27516 6.66146 3.40677 6.54064C3.5319 6.42629 3.72608 6.42845 3.84906 6.54711L5.72613 8.4889L8.82005 4.33994C8.93656 4.20402 9.13937 4.18676 9.27529 4.30326C9.40043 4.40898 9.42632 4.59022 9.33786 4.72614Z" fill="#CBCBCB"/>
</g>
<defs>
<clipPath id="clip0">
<rect width="12.38" height="12.38" fill="white" transform="translate(0 0.592285)"/>
</clipPath>
</defs>
</svg>
