<svg width="21" height="21" viewBox="0 0 21 21" fill="none" xmlns="http://www.w3.org/2000/svg">
<path d="M21 7.37809C21 5.9914 19.876 4.86631 18.4882 4.86631H16.831C17.8553 3.73124 18.5359 2.28248 18.1545 1.20505C17.9905 0.72176 17.4784 -0.0508409 15.87 0.00236546C12.9237 0.0988019 11.5913 3.68247 11.2289 4.86631H9.90978C9.53401 3.68358 8.22048 0.0988019 5.27418 0.00236546C3.6658 -0.0508409 3.14925 0.731736 2.98409 1.20505C2.60278 2.28248 3.28337 3.73124 4.3076 4.86631H2.4487C1.0864 4.90067 -0.00100828 6.01468 0.000100188 7.37809C-0.0065506 8.10857 0.31823 8.80358 0.883547 9.26692V20.5057C0.883547 20.7728 1.0997 20.9889 1.36684 20.9889H19.5656C19.8328 20.9889 20.0489 20.7728 20.0489 20.5057V9.28576C20.6508 8.83683 21.0033 8.12852 21 7.37809ZM20.0334 7.37809C20.029 7.88688 19.7574 8.35687 19.3184 8.61403C19.0679 8.76811 18.7819 8.85346 18.4882 8.86011H13.0113V5.83179H18.4882C19.3373 5.84287 20.0234 6.52901 20.0334 7.37809ZM15.8988 0.968947C16.657 0.968947 17.1059 1.12857 17.2412 1.52429C17.4928 2.25366 16.7579 3.80884 15.4056 4.86631H12.2464C12.6588 3.65919 13.7883 1.03656 15.8988 0.968947ZM3.89746 1.52429C4.0327 1.12857 4.4916 0.944561 5.23982 0.968947C7.3459 1.03656 8.48097 3.65919 8.8911 4.86631H5.73308C4.37521 3.80884 3.64584 2.25366 3.89746 1.52429ZM2.4487 5.83179H7.92563V8.86011H2.4487C2.15828 8.85235 1.87562 8.76922 1.62733 8.61847C1.20722 8.34689 0.956706 7.8769 0.965574 7.37699C0.970007 6.55007 1.62179 5.87058 2.4487 5.83179ZM1.84902 9.7491L2.02305 9.78346H2.12946C2.23477 9.79898 2.34118 9.80674 2.4487 9.80785H7.92563V20.0224H1.84902V9.7491ZM8.8911 9.3434V5.83179H12.0447V20.0212H8.8911V9.3434ZM19.0823 20.0224H13.0113V9.82669H18.4882C18.5946 9.82559 18.701 9.81783 18.8074 9.80231L18.9183 9.77792C18.9737 9.77127 19.028 9.76129 19.0823 9.7491V20.0224Z" fill="black"/>
</svg>
