<svg width="13" height="14" viewBox="0 0 13 14" fill="none" xmlns="http://www.w3.org/2000/svg">
<g clip-path="url(#clip0)">
<path d="M6.19 0.782227C2.77029 0.782227 0 3.55252 0 6.97223C0 10.3919 2.77029 13.1622 6.19 13.1622C9.60971 13.1622 12.38 10.3919 12.38 6.97223C12.3757 3.55467 9.60755 0.786542 6.19 0.782227ZM9.33786 4.91608L6.01955 9.36063C5.96346 9.43614 5.875 9.48361 5.78007 9.49008H5.75849C5.67219 9.49008 5.5902 9.45556 5.52979 9.39299L3.38519 7.18798C3.26437 7.05637 3.27516 6.8514 3.40677 6.73058C3.5319 6.61623 3.72608 6.61839 3.84906 6.73705L5.72613 8.67884L8.82005 4.52988C8.93656 4.39396 9.13937 4.3767 9.27529 4.49321C9.40043 4.59893 9.42632 4.78016 9.33786 4.91608Z" fill="#FE2B6D"/>
</g>
<defs>
<clipPath id="clip0">
<rect width="12.38" height="12.38" fill="white" transform="translate(0 0.782227)"/>
</clipPath>
</defs>
</svg>
