<svg width="15" height="11" viewBox="0 0 15 11" fill="none" xmlns="http://www.w3.org/2000/svg">
<path d="M0.46875 10.728C0.209375 10.728 0 10.5082 0 10.2358V1.14021C0 0.867871 0.1625 0.782559 0.365625 0.949902L7.13125 6.57397C7.33437 6.74131 7.6625 6.74131 7.86562 6.57397L14.6344 0.949902C14.8344 0.782559 15 0.867871 15 1.14021V10.2358C15 10.5082 14.7875 10.728 14.5312 10.728H0.46875ZM14.0281 0.228027C14.2875 0.228027 14.3313 0.36584 14.1313 0.533184L7.74375 5.83896C7.60938 5.95053 7.3875 5.95053 7.25312 5.83896L0.86875 0.533184C0.66875 0.36584 0.7125 0.228027 0.971875 0.228027H14.0281Z" fill="white"/>
</svg>
