<svg width="20" height="18" viewBox="0 0 20 18" fill="none" xmlns="http://www.w3.org/2000/svg">
<g clip-path="url(#clip0)">
<path d="M19.9365 8.90053C19.8965 8.61112 19.727 8.36642 19.48 8.20877C19.3176 8.10524 19.1153 8.10289 18.9435 8.17583C18.9412 7.54994 18.9435 6.92406 18.927 6.30053C18.9106 5.59936 18.9482 4.89818 18.9765 4.19936C18.9859 3.96877 18.8376 3.76877 18.6376 3.6723C18.6188 3.40877 18.6023 3.14524 18.5788 2.88171C18.5647 2.72406 18.5506 2.56641 18.5294 2.41112C18.5247 2.38053 18.52 2.34994 18.5153 2.31936C18.5035 2.237 18.4659 2.09818 18.4212 2.03465C18.3553 1.94759 18.2965 1.84877 18.1929 1.79936C18.1176 1.76406 18.0447 1.72877 17.9623 1.717C17.8823 1.70524 17.7976 1.70524 17.7176 1.69583C17.6988 1.437 17.687 1.17818 17.6753 0.921709C17.7035 0.855827 17.72 0.782885 17.72 0.707591C17.72 0.404062 17.4659 0.157003 17.167 0.15465C16.5482 0.149944 15.9294 0.159356 15.3106 0.133474C14.7529 0.109944 14.1976 0.079356 13.6376 0.0675913C12.4635 0.0464149 11.287 0.0534737 10.1106 0.0464149C8.95763 0.039356 7.80469 0.0158266 6.64939 0.0134737C6.08469 0.0134737 5.52233 0.00170898 4.95763 0.00170898C4.4141 0.00170898 3.87057 0.0111207 3.32939 0.0487678C2.73174 0.0911207 2.12469 0.227591 1.5741 0.467591C1.03292 0.695827 0.548215 1.157 0.381157 1.72641C0.336451 1.88171 0.312921 2.03936 0.294098 2.20171C0.275274 2.33347 0.261157 2.46759 0.275274 2.59936C0.294098 2.76406 0.322333 2.92406 0.364686 3.08171C0.18351 3.17347 0.0564507 3.357 0.0540978 3.56877C0.0470389 4.18053 0.0493919 4.7923 0.0376272 5.40171C0.0282154 5.957 0.0140978 6.50994 0.00939188 7.06524C-1.98878e-05 8.18524 -0.00707871 9.30524 0.00939188 10.4252C0.0211566 11.2041 0.0376272 11.9829 0.0423331 12.7617C0.0470389 13.5429 0.0564507 14.3264 0.0399801 15.1099C0.0376272 15.2064 0.0705683 15.2935 0.11998 15.3735C0.235274 15.6723 0.357627 15.9735 0.515274 16.2511C0.578804 16.3641 0.661157 16.4699 0.738804 16.5735C0.811745 16.6699 0.887039 16.7641 0.95998 16.8582C1.07292 17.0017 1.24469 17.1147 1.39763 17.2135C1.73645 17.4347 2.1341 17.5758 2.5341 17.6464C2.87998 17.7052 3.23057 17.7641 3.58116 17.7852C4.2188 17.8229 4.8588 17.8276 5.49645 17.8394C6.10351 17.8488 6.71292 17.8605 7.31763 17.8605C7.93645 17.8605 8.55527 17.8535 9.1741 17.8582C9.79527 17.8652 10.4141 17.8817 11.0353 17.8699C11.6753 17.8582 12.3129 17.8323 12.9529 17.8229C13.567 17.8135 14.1859 17.8158 14.8 17.8158C15.3859 17.8158 15.9741 17.8158 16.56 17.8088C16.8353 17.8064 17.1082 17.8088 17.3859 17.8111C17.6753 17.8135 17.9647 17.8182 18.2541 17.8135C18.4517 17.8111 18.6235 17.7123 18.7412 17.5688C18.8894 17.4629 18.9953 17.3005 18.9906 17.1099C18.9764 16.4511 18.9835 15.7923 18.9765 15.1311C18.967 14.3735 18.9788 13.6182 18.9906 12.8605C19.1717 12.8323 19.3365 12.7805 19.487 12.6535C19.8259 12.3711 19.9059 11.8888 19.9412 11.4747C19.9623 11.2182 19.9623 10.9617 19.9741 10.7029C19.9906 10.3099 20.0094 9.9123 19.9953 9.517C19.9882 9.3123 19.9647 9.10524 19.9365 8.90053ZM3.61645 3.44406C3.6188 3.38759 3.62116 3.33112 3.60939 3.27465C3.60704 3.26053 3.60469 3.24406 3.59998 3.22994C3.58351 2.99465 3.59292 2.75936 3.59527 2.52406C4.71998 2.557 5.84704 2.557 6.9741 2.56171C7.55292 2.56406 8.1341 2.57818 8.71292 2.59465C9.25174 2.60877 9.78586 2.64877 10.3247 2.66524C10.8847 2.68406 11.4447 2.69347 12.007 2.70524C12.567 2.717 13.1294 2.72877 13.6917 2.73347C14.2635 2.73818 14.8329 2.74289 15.4047 2.74524C15.9059 2.74759 16.4094 2.76877 16.9129 2.77112C17.0988 2.77112 17.2847 2.77818 17.4682 2.7923C17.4988 3.06289 17.52 3.33347 17.527 3.60641C17.2282 3.61347 16.927 3.60877 16.6306 3.60641C16.0706 3.59936 15.5106 3.58289 14.9529 3.57818C13.8306 3.57112 12.7082 3.53347 11.5859 3.52641C10.3906 3.517 9.19763 3.52877 8.00233 3.48641C7.23292 3.46053 6.46351 3.46289 5.69645 3.46289C5.28469 3.46289 4.87527 3.46524 4.46586 3.46053C4.18351 3.45583 3.8988 3.45112 3.61645 3.44406ZM18.7812 11.6747C18.7812 11.6747 18.7835 11.6723 18.7859 11.6699C18.7859 11.6723 18.7835 11.6747 18.7812 11.6747ZM18.6329 9.26289C18.6729 9.26524 18.7129 9.26289 18.7506 9.25818C18.7741 9.59465 18.7694 9.93112 18.7647 10.2699C18.7623 10.4841 18.7576 10.6982 18.7529 10.9123C18.7506 11.1217 18.7529 11.3311 18.7341 11.5382C18.7247 11.5876 18.7153 11.6347 18.7012 11.6817C18.487 11.6935 18.2729 11.6864 18.0612 11.6794C17.8023 11.6723 17.5435 11.6699 17.2847 11.6699C16.7106 11.6699 16.1365 11.6723 15.567 11.6064C15.3929 11.5758 15.2259 11.5311 15.0612 11.4723C14.8965 11.3947 14.7435 11.3029 14.5976 11.197C14.5412 11.1476 14.4894 11.0982 14.4376 11.0464C14.407 10.9994 14.3788 10.9499 14.3529 10.9005C14.327 10.8276 14.3012 10.7547 14.2823 10.6794C14.2706 10.5076 14.2753 10.3405 14.2941 10.1711C14.3247 9.98759 14.3623 9.80877 14.4259 9.6323C14.447 9.5923 14.4682 9.5523 14.4917 9.51465C14.52 9.48641 14.5506 9.45818 14.5812 9.42994C14.64 9.39465 14.6988 9.36171 14.7623 9.33112C14.9129 9.277 15.0682 9.23465 15.2282 9.20642C15.4776 9.18053 15.727 9.17583 15.9788 9.16877C16.247 9.16171 16.5176 9.1523 16.7859 9.1523C17.4023 9.15465 18.0188 9.21583 18.6329 9.26289ZM1.45645 2.26759C1.47527 2.17347 1.49645 2.07936 1.52704 1.98759C1.54822 1.94524 1.57174 1.90289 1.59763 1.86524C1.66351 1.78994 1.73645 1.71936 1.81174 1.65347C1.91057 1.58759 2.01174 1.53112 2.11763 1.47936C2.48233 1.34053 2.86586 1.25347 3.25174 1.19465C3.77645 1.13818 4.30116 1.1123 4.82822 1.10994C5.38586 1.10759 5.94351 1.10053 6.50116 1.10053C7.02116 1.10053 7.54116 1.10289 8.06351 1.10759C8.68704 1.10994 9.31292 1.11465 9.93645 1.10994C11.1082 1.10289 12.28 1.10053 13.4517 1.12406C14.0117 1.13583 14.5717 1.14759 15.1341 1.18289C15.5953 1.21583 16.0588 1.22524 16.5223 1.237C16.5341 1.37347 16.5412 1.50994 16.5576 1.64641C16.5059 1.64641 16.4541 1.64406 16.4023 1.64641C15.3059 1.65347 14.2117 1.66994 13.1153 1.65347C12.5365 1.64641 11.9576 1.63465 11.3788 1.61583C10.8306 1.59936 10.2847 1.59465 9.7388 1.57347C9.1788 1.5523 8.62116 1.52877 8.06116 1.52171C7.50116 1.5123 6.94116 1.51465 6.38351 1.50759C5.3388 1.49112 4.29645 1.45347 3.2541 1.41112C3.24704 1.41112 3.23998 1.41112 3.23292 1.41112C2.96469 1.41112 2.74822 1.637 2.71057 1.89583C2.54822 1.99936 2.43292 2.17112 2.43292 2.37347C2.43527 2.70994 2.43998 3.05112 2.48469 3.38524C2.46116 3.38053 2.43763 3.38053 2.41174 3.37818C2.23292 3.34994 2.05645 3.32171 1.88469 3.26289C1.82822 3.23465 1.77645 3.20406 1.72469 3.16877C1.69645 3.14524 1.67057 3.11936 1.64704 3.09112C1.60469 3.02524 1.57174 2.957 1.5388 2.88642C1.50116 2.78524 1.47057 2.68406 1.44704 2.57818C1.44469 2.4723 1.44704 2.37112 1.45645 2.26759ZM16.5059 16.5782C15.9082 16.5923 15.3106 16.5923 14.7129 16.6041C13.4353 16.6276 12.1576 16.6723 10.8776 16.6817C10.2847 16.6841 9.68939 16.6982 9.09645 16.6935C8.46586 16.6911 7.83527 16.6817 7.20704 16.6794C6.61174 16.677 6.0188 16.6864 5.42351 16.6888C4.78351 16.6911 4.1388 16.6935 3.50351 16.6299C3.45174 16.6252 3.40233 16.6205 3.35057 16.6135C3.00469 16.5641 2.6541 16.5029 2.32704 16.3829C2.19527 16.3194 2.07057 16.2464 1.95057 16.1641C1.86822 16.0911 1.79527 16.0135 1.72469 15.9288C1.66351 15.8464 1.60233 15.7641 1.54586 15.677C1.48469 15.5805 1.43763 15.4746 1.39057 15.3688C1.33645 15.2394 1.28704 15.1076 1.23763 14.9735C1.20704 14.8935 1.17174 14.8252 1.12469 14.7617C1.11763 13.7735 1.11763 12.7876 1.10351 11.8017C1.0941 11.2535 1.08469 10.7052 1.07763 10.1594C1.06822 9.597 1.07527 9.03465 1.07527 8.4723C1.07527 7.66759 1.07292 6.86524 1.0941 6.06053C1.11057 5.43465 1.12939 4.81112 1.14586 4.18524C1.18351 4.20877 1.2188 4.23465 1.25645 4.25347C1.56233 4.42289 1.90586 4.46524 2.24704 4.50524C2.5341 4.54053 2.82116 4.55465 3.11057 4.56641C3.68469 4.58759 4.26116 4.58053 4.83527 4.58053C5.44233 4.58053 6.04704 4.57347 6.65175 4.57112C7.24704 4.56641 7.83998 4.59465 8.43527 4.61347C9.00939 4.62994 9.58351 4.62994 10.16 4.62994C10.7553 4.62759 11.3529 4.62289 11.9482 4.62524C12.5317 4.62759 13.1176 4.66053 13.6988 4.69583C14.7953 4.75936 15.8941 4.76406 16.9906 4.77818C17.2494 4.78053 17.5129 4.77818 17.7741 4.76642C17.7576 5.86053 17.7717 6.95465 17.7765 8.04877C17.4165 8.0323 17.0588 8.00642 16.6988 8.00171C16.4235 7.99936 16.1459 7.98994 15.8729 7.98524C15.8447 7.98524 15.8188 7.98524 15.7906 7.98524C15.4847 7.98524 15.1812 8.01347 14.8776 8.05347C14.5482 8.09818 14.2117 8.2323 13.9294 8.40641C13.7176 8.53583 13.5694 8.70994 13.4188 8.90289C13.3247 9.02524 13.2706 9.197 13.2165 9.33583C13.16 9.48641 13.1294 9.64641 13.0988 9.80406C13.0188 10.2088 12.9812 10.6182 13.0659 11.0276C13.087 11.1288 13.127 11.2276 13.1647 11.3264C13.2588 11.5688 13.3859 11.7711 13.56 11.9641C13.6988 12.117 13.8847 12.237 14.0541 12.3547C14.1623 12.4299 14.2823 12.4935 14.4047 12.5476C14.5765 12.6252 14.7553 12.7052 14.9412 12.7523C15.2706 12.8347 15.6117 12.8605 15.9506 12.8794C16.3294 12.9005 16.7106 12.8958 17.0917 12.8935C17.2517 12.8911 17.4141 12.8911 17.5765 12.8911C17.6447 12.8911 17.7106 12.8911 17.7788 12.8935C17.7717 14.117 17.8117 15.3358 17.8212 16.5546C17.3835 16.5594 16.9459 16.5688 16.5059 16.5782ZM16.2541 10.3664C16.2541 10.6958 15.9788 10.9735 15.6447 10.9735C15.3129 10.9735 15.0353 10.6982 15.0353 10.3664C15.0353 10.037 15.3106 9.75936 15.6447 9.75936C15.9788 9.75936 16.2541 10.0347 16.2541 10.3664Z" fill="black"/>
</g>
<defs>
<clipPath id="clip0">
<rect width="20" height="17.8753" fill="white"/>
</clipPath>
</defs>
</svg>
