<svg width="15" height="16" viewBox="0 0 15 16" fill="none" xmlns="http://www.w3.org/2000/svg">
<g clip-path="url(#clip0)">
<path d="M0.272052 5.82352C0.272052 5.82352 0.637951 7.30469 1.99177 8.96871C3.05288 10.2853 5.02873 12.4979 7.00458 13.9059C8.61453 15.0579 9.89517 15.442 9.89517 15.442C11.066 15.9357 11.8527 15.6248 11.8527 15.6248C12.4199 15.4602 12.9321 15.0762 13.3895 14.7105C13.9018 14.2899 14.3957 13.8328 14.8165 13.3391C14.9629 13.1562 15.036 12.9916 14.9812 12.7539C14.7799 12.2968 13.3529 10.9985 12.9687 10.6876C12.6943 10.4682 12.4382 10.2304 12.1454 10.0476C12.0174 9.97444 11.8893 9.9013 11.7613 9.86473C11.4685 9.80987 11.2673 10.0842 11.0843 10.267C10.7367 10.6145 10.133 11.4739 9.74882 11.5836C9.36462 11.7116 8.28522 10.9985 7.93762 10.7059C6.78504 9.75501 5.55928 8.56642 5.01043 7.78012C4.75431 7.4144 4.00421 6.35382 4.13228 5.96981C4.24205 5.60409 5.10191 4.98237 5.44951 4.63493C5.63246 4.45207 5.90688 4.26921 5.852 3.95835C5.8337 3.81206 5.76053 3.68406 5.66905 3.57434C5.4861 3.28177 5.24827 3.00748 5.02873 2.75148C4.71772 2.36747 3.41878 0.941161 2.9614 0.740015C2.74187 0.685157 2.55892 0.758301 2.37597 0.904589C1.86371 1.32517 1.40634 1.81889 1.00385 2.3309C0.637951 2.78805 0.253758 3.30005 0.0891034 3.86692C0.0891034 3.88521 -0.203615 4.6715 0.272052 5.82352Z" fill="white"/>
</g>
<defs>
<clipPath id="clip0">
<rect width="15" height="15" fill="white" transform="translate(0 0.72168)"/>
</clipPath>
</defs>
</svg>
