<svg width="27" height="17" viewBox="0 0 27 17" fill="none" xmlns="http://www.w3.org/2000/svg">
<path d="M6.91158 2.87231H0V4.21872H6.91158V2.87231Z" fill="#3C3C3C"/>
<path d="M6.91158 5.7627H0V7.1091H6.91158V5.7627Z" fill="#3C3C3C"/>
<path d="M26.8743 8.77859L24.1636 2.42354C24.0559 2.17221 23.8225 2.01064 23.5532 2.01064H19.5499V0.682181C19.5499 0.305186 19.2447 0 18.8677 0H4.00332H0V1.34641H4.00332H18.2035V8.36569H4.00332H0V9.7121H3.32114V12.4947C3.32114 12.8717 3.62633 13.1769 4.00332 13.1769H6.26529C6.26529 13.2307 6.26529 13.2846 6.26529 13.3564C6.26529 14.9003 7.52194 16.139 9.08378 16.139C10.6456 16.139 11.9023 14.8823 11.9023 13.3564C11.9023 13.3025 11.9023 13.2487 11.9023 13.1769H19.2088C19.2088 13.2307 19.2088 13.2846 19.2088 13.3564C19.2088 14.9003 20.4654 16.139 22.0273 16.139C23.5891 16.139 24.8457 14.8823 24.8457 13.3564C24.8457 13.3025 24.8457 13.2487 24.8457 13.1769H26.3178C26.6948 13.1769 27 12.8717 27 12.4947V9.02992C26.9282 8.94016 26.9102 8.8504 26.8743 8.77859ZM10.5379 13.3384C10.5379 14.1283 9.87367 14.7746 9.06582 14.7746C8.25798 14.7746 7.59375 14.1283 7.59375 13.3384C7.59375 12.5485 8.25798 11.9023 9.06582 11.9023C9.87367 11.8843 10.5379 12.5306 10.5379 13.3384ZM23.4455 13.3384C23.4455 14.1283 22.7812 14.7746 21.9734 14.7746C21.1656 14.7746 20.5013 14.1283 20.5013 13.3384C20.5013 12.5485 21.1656 11.9023 21.9734 11.9023C22.7812 11.8843 23.4455 12.5306 23.4455 13.3384ZM24.3431 11.8125C23.8404 11.0585 22.9787 10.5379 21.9914 10.5379C21.004 10.5379 20.1423 11.0406 19.6396 11.8125H11.4176C10.9149 11.0585 10.0532 10.5379 9.06582 10.5379C8.07846 10.5379 7.21676 11.0406 6.7141 11.8125H4.66755V9.7121H18.8677C19.2447 9.7121 19.5499 9.40691 19.5499 9.02992V3.35705H23.1044L25.2407 8.36569H21.9734V9.7121H25.5818V11.8125H24.3431Z" fill="#3C3C3C"/>
</svg>
