<svg width="22" height="21" viewBox="0 0 22 21" fill="none" xmlns="http://www.w3.org/2000/svg">
<g clip-path="url(#clip0)">
<path d="M9.30543 14.6129C9.14998 14.773 8.90033 14.7848 8.74018 14.6247L4.12161 10.0061C3.75656 9.64103 4.31003 9.0852 4.67744 9.45026L9.01574 13.7909L21.3241 1.48259C21.6891 1.11754 22.2449 1.67337 21.8799 2.03842L9.30543 14.6129ZM16.583 0.333252C17.1012 0.333252 17.1012 1.11989 16.583 1.11989H3.3444C1.93598 1.11989 0.784284 2.26923 0.784284 3.67765V16.9186C0.784284 18.3247 1.93834 19.4764 3.3444 19.4764H16.583C17.9914 19.4764 19.1431 18.327 19.1431 16.9186V8.69188C19.1431 8.17609 19.9274 8.17609 19.9274 8.69188V16.9186C19.9274 18.758 18.4224 20.263 16.583 20.263H3.3444C1.50262 20.263 0 18.758 0 16.9186V3.67765C0 1.83823 1.50498 0.333252 3.3444 0.333252H16.583Z" fill="black"/>
</g>
<defs>
<clipPath id="clip0">
<rect width="22" height="19.9298" fill="white" transform="translate(0 0.333252)"/>
</clipPath>
</defs>
</svg>
