<svg width="23" height="18" viewBox="0 0 23 18" fill="none" xmlns="http://www.w3.org/2000/svg">
<g clip-path="url(#clip0)">
<path d="M0 0.373283V14.6729C0 14.8739 0.172285 15.0462 0.373283 15.0462H1.86642C2.21099 16.6542 3.61798 17.8315 5.2834 17.8315C6.97753 17.8315 8.38452 16.6542 8.70037 15.0462H14.3283C14.6729 16.6542 16.0799 17.8315 17.7453 17.8315C19.4395 17.8315 20.8464 16.6542 21.1623 15.0462H22.6267C22.8277 15.0462 23 14.8739 23 14.6729V6.97753C23 6.89139 22.9713 6.83396 22.9426 6.77653L18.4919 0.172285C18.4345 0.0574282 18.2909 0 18.176 0H0.401998C0.200999 0 0.0287141 0.172285 0 0.373283ZM15.0175 14.3283C15.0175 12.8065 16.2235 11.6005 17.7453 11.6005C19.2672 11.6005 20.4732 12.8352 20.4732 14.3283C20.4732 15.8502 19.2385 17.0562 17.7453 17.0562C16.2522 17.0562 15.0462 15.8502 15.0175 14.3283ZM2.58427 14.3283C2.58427 12.8065 3.81898 11.6005 5.31211 11.6005C6.83396 11.6005 8.03995 12.8352 8.03995 14.3283C8.03995 15.8502 6.80524 17.0562 5.31211 17.0562C3.81898 17.0562 2.58427 15.8502 2.58427 14.3283ZM0.803995 0.746567H12.7204V10.5094C12.7204 10.7104 12.8926 10.8826 13.0936 10.8826C13.2946 10.8826 13.4669 10.7104 13.4669 10.5094V0.746567H17.975L22.2247 7.09238V14.2709H21.2197C21.191 12.4045 19.6404 10.8539 17.7453 10.8539C15.8502 10.8539 14.2996 12.4045 14.2709 14.2709H8.78652C8.7578 12.4045 7.20724 10.8539 5.31211 10.8539C3.41698 10.8539 1.86642 12.4045 1.8377 14.2709H0.803995V0.746567Z" fill="black"/>
<path d="M7.72387 6.94881H8.84372C9.04472 6.94881 9.217 6.77653 9.217 6.57553C9.217 6.37453 9.04472 6.20224 8.84372 6.20224H8.12587V5.62796H8.84372C9.04472 5.62796 9.217 5.45568 9.217 5.25468C9.217 5.05368 9.04472 4.8814 8.84372 4.8814H8.12587V4.30711H8.84372C9.04472 4.30711 9.217 4.13483 9.217 3.93383C9.217 3.73283 9.04472 3.56055 8.84372 3.56055H7.69515C7.49416 3.56055 7.35059 3.70412 7.35059 3.90512V6.63296C7.35059 6.80524 7.49416 6.94881 7.72387 6.94881Z" fill="black"/>
<path d="M10.1643 6.94881H11.2842C11.4851 6.94881 11.6574 6.77653 11.6574 6.57553C11.6574 6.37453 11.4851 6.20224 11.2842 6.20224H10.5663V5.62796H11.2842C11.4851 5.62796 11.6574 5.45568 11.6574 5.25468C11.6574 5.05368 11.4851 4.8814 11.2842 4.8814H10.5663V4.30711H11.2842C11.4851 4.30711 11.6574 4.13483 11.6574 3.93383C11.6574 3.73283 11.4851 3.56055 11.2842 3.56055H10.1356C9.93459 3.56055 9.79102 3.70412 9.79102 3.90512V6.63296C9.79102 6.80524 9.9633 6.94881 10.1643 6.94881Z" fill="black"/>
<path d="M2.46922 5.62796H2.95736C3.15836 5.62796 3.33065 5.45568 3.33065 5.25468C3.33065 5.05368 3.15836 4.8814 2.95736 4.8814H2.46922V4.30711H3.2445C3.4455 4.30711 3.61779 4.13483 3.61779 3.93383C3.61779 3.73283 3.4455 3.56055 3.2445 3.56055H2.09594C1.89494 3.56055 1.72266 3.73283 1.72266 3.93383V6.60424C1.72266 6.80524 1.89494 6.97752 2.09594 6.97752C2.29694 6.97752 2.46922 6.80524 2.46922 6.60424V5.62796Z" fill="black"/>
<path d="M4.96727 5.34078H5.11084L5.79998 6.74777C5.85741 6.89134 6.00098 6.94877 6.14455 6.94877C6.43169 6.94877 6.60398 6.66163 6.48912 6.4032L5.94355 5.28335C6.31683 5.13978 6.54655 4.73779 6.48912 4.30707C6.43169 3.81893 6.00098 3.47437 5.54155 3.47437H4.6227C4.39299 3.47437 4.2207 3.64665 4.2207 3.87636V6.57549C4.2207 6.77649 4.39299 6.94877 4.59399 6.94877C4.79499 6.94877 4.96727 6.77649 4.96727 6.57549V5.34078ZM4.96727 4.24965H5.57027C5.65641 4.24965 5.74255 4.33579 5.74255 4.42193C5.74255 4.50807 5.65641 4.59422 5.57027 4.59422H4.96727V4.24965Z" fill="black"/>
</g>
<defs>
<clipPath id="clip0">
<rect width="23" height="17.8315" fill="white"/>
</clipPath>
</defs>
</svg>
