<svg width="19" height="20" viewBox="0 0 19 20" fill="none" xmlns="http://www.w3.org/2000/svg">
<path d="M1.06101 10.4475H2.25479V18.8236C2.25479 19.153 2.52423 19.4215 2.85266 19.4215H7.63861C7.96803 19.4215 8.23648 19.152 8.23648 18.8236V13.7417C8.23648 12.9157 8.90614 12.246 9.73215 12.246C10.5582 12.246 11.2278 12.9157 11.2278 13.7417V18.8236C11.2278 19.153 11.4973 19.4215 11.8257 19.4215H16.6116C16.9411 19.4215 17.2095 19.152 17.2095 18.8236V10.4475H18.4033C18.6452 10.4475 18.8635 10.3009 18.9569 10.0797C19.0494 9.85548 18.9992 9.59784 18.8281 9.42772L10.155 0.7556C9.92194 0.522547 9.54138 0.522547 9.30833 0.7556L0.639153 9.42772C0.469034 9.59784 0.4179 9.85548 0.510334 10.0797C0.600802 10.3009 0.819105 10.4475 1.06101 10.4475ZM9.73313 2.02412L16.9607 9.25171H16.6136C16.2842 9.25171 16.0157 9.52114 16.0157 9.84958V18.2257H12.4265V13.7417C12.4265 12.2578 11.218 11.0493 9.73412 11.0493C8.25025 11.0493 7.04172 12.2578 7.04172 13.7417V18.2257H3.4525V9.84958C3.4525 9.52016 3.18307 9.25171 2.85463 9.25171H2.50751L9.73313 2.02412Z" fill="#5F5F5F"/>
</svg>
