<svg width="80" height="82" viewBox="0 0 80 82" fill="none" xmlns="http://www.w3.org/2000/svg">
<g clip-path="url(#clip0)">
<path opacity="0.1" d="M64.9359 76.8159C64.9359 79.2054 53.7279 81.1445 39.9016 81.1445C26.0753 81.1445 14.8672 79.2068 14.8672 76.8159C14.8672 74.425 26.0753 72.4873 39.9016 72.4873C53.7279 72.4873 64.9359 74.425 64.9359 76.8159Z" fill="black"/>
<path d="M40.0066 0C45.9614 0 54.1697 20.8685 55.0789 21.4354C55.9881 22.0022 78.0338 24.6682 79.8621 28.9561C81.6918 33.244 64.7281 48.7568 64.3072 49.8106C63.8876 50.8657 68.125 72.9213 64.6383 75.8089C61.1516 78.6951 41.2217 67.4084 40.0066 67.4014C38.7915 67.3944 19.6671 78.7554 15.3749 75.8089C11.0828 72.8609 16.0162 51.0046 15.7061 49.8106C15.3974 48.6179 -1.78657 34.6331 0.152535 28.9561C2.09024 23.2791 24.143 22.0233 24.9358 21.4354C25.7257 20.8475 34.0532 0 40.0066 0Z" fill="#FF5027"/>
<path d="M40.0066 2.5918C45.5559 2.5918 52.8339 22.791 53.6814 23.3186C54.5288 23.8462 75.4507 25.5846 77.1541 29.5821C78.8589 33.5782 62.6753 47.6641 62.2825 48.6476C61.891 49.6312 66.214 70.5615 62.9644 73.2527C59.7148 75.9438 41.1389 65.0501 40.0052 65.043C38.8729 65.036 21.0463 76 17.046 73.2527C13.0458 70.5068 18.3902 50.1335 18.1012 49.0209C17.8135 47.9068 1.05193 34.8733 2.85774 29.5807C4.66354 24.2882 25.967 23.8658 26.7051 23.3172C27.4431 22.77 34.4559 2.5918 40.0066 2.5918Z" fill="url(#paint0_linear)"/>
<path d="M7.71589 30.5594C7.33003 26.7963 19.6746 24.5807 20.219 28.9851C20.7649 33.3881 8.24206 35.6864 7.71589 30.5594Z" fill="#FFC88D"/>
<path d="M23.3806 27.7476C23.288 25.3272 26.9782 25.1799 27.1704 27.1653C27.3851 29.3893 23.4662 30.0122 23.3806 27.7476Z" fill="#FFC88D"/>
<g opacity="0.6">
<path opacity="0.6" d="M28.4008 41.2127C28.4008 43.6611 26.2512 45.6466 23.5993 45.6466C20.9474 45.6466 18.7979 43.6611 18.7979 41.2127C18.7979 38.7643 20.9474 36.7803 23.5993 36.7803C26.2498 36.7803 28.4008 38.7643 28.4008 41.2127Z" fill="#FF739E"/>
</g>
<g opacity="0.6">
<path opacity="0.6" d="M61.2011 41.2127C61.2011 43.6611 59.0515 45.6466 56.3997 45.6466C53.7478 45.6466 51.5996 43.6611 51.5996 41.2127C51.5996 38.7643 53.7492 36.7803 56.3997 36.7803C59.0515 36.7803 61.2011 38.7643 61.2011 41.2127Z" fill="#FF739E"/>
</g>
<path d="M27.3433 32.3115C20.3572 32.8475 22.2528 44.13 27.8653 43.9055C33.4806 43.681 34.3295 31.7755 27.3433 32.3115Z" fill="#541300"/>
<path d="M29.0304 38.6103C27.4379 38.4686 26.9314 41.4797 28.7358 41.7589C30.5402 42.0381 31.2937 38.8096 29.0304 38.6103Z" fill="white"/>
<path d="M52.6549 32.3115C59.6396 32.8475 57.7454 44.13 52.1315 43.9055C46.5191 43.681 45.6688 31.7755 52.6549 32.3115Z" fill="#541300"/>
<path d="M50.9695 38.6103C52.5635 38.4686 53.07 41.4797 51.2656 41.7589C49.4598 42.0381 48.7077 38.8096 50.9695 38.6103Z" fill="white"/>
<path d="M24.0264 24.8756C26.0385 23.5131 32.7496 27.2623 33.1509 32.4215C33.0513 33.4107 31.2328 31.0759 28.7521 28.8913C26.6924 27.0799 23.5003 25.2334 24.0264 24.8756Z" fill="#541300"/>
<path d="M55.3246 24.8756C53.3126 23.5131 46.6015 27.2623 46.2002 32.4215C46.2984 33.4107 48.1169 31.0759 50.599 28.8913C52.6573 27.0799 55.8494 25.2334 55.3246 24.8756Z" fill="#541300"/>
<path d="M47.3993 53.6284C47.0527 53.9638 43.7708 52.0373 40.061 52.0387C36.3133 52.0415 32.9584 53.968 32.6034 53.6284C31.8962 52.9549 33.942 45.2715 39.9978 45.2715C46.0537 45.2715 48.0966 52.9549 47.3993 53.6284Z" fill="#872A2A"/>
</g>
<defs>
<linearGradient id="paint0_linear" x1="20.1519" y1="18.7293" x2="60.918" y2="68.1794" gradientUnits="userSpaceOnUse">
<stop offset="0.0108" stop-color="#FF8732"/>
<stop offset="1" stop-color="#FF5027"/>
</linearGradient>
<clipPath id="clip0">
<rect width="80" height="81.1449" fill="white"/>
</clipPath>
</defs>
</svg>
