<svg width="14" height="16" viewBox="0 0 14 16" fill="none" xmlns="http://www.w3.org/2000/svg">
<path fill-rule="evenodd" clip-rule="evenodd" d="M13.475 7.14775C13.5861 5.9231 12.4239 5.56462 11.9631 5.56462C10.1755 5.56462 8.3879 5.56462 6.60214 5.5628C6.85936 5.01144 7.1721 3.55205 6.77794 1.54129C6.62064 0.747903 6.1432 0.218374 5.53438 0.229292C5.04399 0.23839 4.57765 0.609607 4.52769 1.07181C4.47402 1.58132 4.34634 2.30556 4.22605 2.80051C3.84299 4.38546 1.7852 6.47811 0.482422 7.2078V14.9488C1.36513 15.4401 2.3237 15.6111 3.3452 15.5929C4.96071 15.562 9.5778 15.5893 10.4142 15.5838C11.0064 15.5802 11.5967 15.3018 11.8799 14.5994C12.2685 13.6404 11.2673 13.16 11.2673 13.16C11.2673 13.16 12.3628 13.2128 12.6127 12.2483C12.8699 11.2566 11.8614 10.8654 11.8614 10.8654C12.5424 10.7926 12.9791 10.6179 13.1438 10.0138C13.3381 9.30227 12.8717 8.7691 12.1371 8.45975C12.2481 8.44883 13.3732 8.2705 13.475 7.14775Z" fill="#C5C5C5"/>
</svg>
