<svg width="18" height="17" viewBox="0 0 18 17" fill="none" xmlns="http://www.w3.org/2000/svg">
<path d="M9 16.5203C8.90727 16.5203 8.81453 16.4854 8.74475 16.4147L1.58589 9.25586C-0.528629 7.14134 -0.528629 3.70101 1.58589 1.58558C3.61685 -0.445378 6.87263 -0.525257 9 1.34594C11.1274 -0.525257 14.3832 -0.445378 16.4141 1.58558C18.5286 3.7001 18.5286 7.14134 16.4141 9.25586L9.25525 16.4147C9.18455 16.4845 9.09182 16.5203 9 16.5203ZM5.42011 0.722516C4.2164 0.722516 3.0127 1.18068 2.09638 2.097C0.263741 3.92963 0.263741 6.9118 2.09638 8.74444L8.99908 15.6471L15.9018 8.74444C17.7344 6.9118 17.7344 3.92963 15.9018 2.097C14.0691 0.264357 11.087 0.264357 9.25433 2.097C9.11293 2.23839 8.88431 2.23839 8.74292 2.097C7.82751 1.18068 6.62381 0.722516 5.42011 0.722516Z" fill="#202020"/>
</svg>
