<svg width="248" height="56" viewBox="0 0 248 56" fill="none" xmlns="http://www.w3.org/2000/svg">
<path fill-rule="evenodd" clip-rule="evenodd" d="M190.209 17.4243C196.187 20.7598 202.761 23.2773 214.199 15.982C225.742 8.08857 230.904 8.37001 234.73 11.0832C229.54 11.6549 224.823 14.2978 220.328 17.8619C210.836 24.9088 209.334 24.7549 205.128 25.0187C209.641 26.9932 214.425 28.5169 223.27 22.8859C225.475 21.5777 228.436 19.7924 232.177 19.5087C233.771 19.3878 235.908 19.4428 237.378 20.1837C238.466 20.7312 239.335 21.7228 239.903 23.3367C241.221 29.8339 238.556 34.1808 235.2 38.1539C239.795 35.7946 243.369 31.9293 244.81 25.5442C245.799 24.6757 246.53 23.8842 247.519 23.1696C248.026 22.6969 248.153 22.09 247.8 21.3183C247.464 20.8126 247.096 20.2761 246.76 19.7704C246.741 18.8909 246.756 18.0444 246.736 17.1649C246.58 16.657 246.218 16.3558 245.718 16.193C246.039 15.6588 246.455 15.1113 245.065 14.4912C243.904 14.0537 243.814 13.4161 244.545 12.4113C245.749 10.4522 245.148 9.84315 242.779 9.97507C241.392 9.74421 240.425 9.18573 239.716 8.43817C238.911 7.58727 238.762 6.76055 238.35 5.71615C238.205 5.34897 238.045 4.99278 237.867 4.65197C237.22 3.3987 236.404 2.46645 235.226 1.6837C231.242 -0.963553 225.813 0.120415 219.784 3.16344C214.311 6.36478 211.262 8.87571 203.911 13.3765C197.904 17.2748 193.954 17.7212 190.209 17.4243Z" fill="#FF326C"/>
<path opacity="0.5" fill-rule="evenodd" clip-rule="evenodd" d="M202.595 14.5725C206.037 12.5299 209.163 10.384 212.844 7.93679C219.581 3.01826 225.862 0.502922 229.839 0.828333C234.876 1.25269 236.707 4.53537 234.547 4.70907C233.055 4.8278 231.326 4.53097 229.791 4.53317C227.876 4.53537 225.686 4.81901 222.512 6.2086C216.51 9.10211 211.357 12.6838 206.897 14.9925C205.726 15.5993 204.528 16.2348 203.271 16.6305C200.628 17.4638 198.405 17.1978 202.595 14.5725ZM203.747 14.0097C198.8 17.2374 203.429 16.5931 206.368 15.0101C210.765 12.7476 216.093 9.08892 222.233 5.96674C225.55 4.45842 227.919 4.27812 230.679 4.18578C231.421 4.16159 232.14 4.17918 232.877 4.18797C235.657 4.21876 233.924 1.20871 228.948 0.951461C225.416 0.925076 219.7 3.23813 213.349 7.76529C210.006 10.0322 206.959 11.9868 203.747 14.0097Z" fill="#F27FC9"/>
<path opacity="0.68" fill-rule="evenodd" clip-rule="evenodd" d="M207.552 17.0615C205.189 18.6226 205.507 18.9568 208.017 17.9014C213.916 14.8848 220.42 10.6808 225.408 8.62503C228.291 7.25083 228.966 6.38893 224.498 7.36516C218.553 9.22967 213.878 12.7124 207.552 17.0615Z" fill="white"/>
<path opacity="0.24" fill-rule="evenodd" clip-rule="evenodd" d="M204.761 15.5246C201.128 16.7955 201.659 15.5818 204.267 13.8338C207.332 12.0133 210.434 10.1026 213.709 7.74994C219.36 3.57677 224.776 1.38905 228.587 1.18896C233.828 1.31649 234.966 3.96155 231.761 3.85381C228.876 4.16383 226.698 3.62075 222.001 5.86564C215.552 9.14613 211.035 12.3519 206.819 14.599C206.141 14.9617 205.485 15.2718 204.761 15.5246Z" fill="white"/>
<path opacity="0.5" fill-rule="evenodd" clip-rule="evenodd" d="M225.871 19.9705C227.949 18.6029 230.162 17.4838 232.691 17.4992C235.006 17.5146 234.782 18.2094 232.974 18.4446C231.026 18.7019 228.368 18.9657 225.871 19.9705Z" fill="white"/>
<path opacity="0.24" fill-rule="evenodd" clip-rule="evenodd" d="M234.283 10.7798C234.435 10.8765 234.584 10.9777 234.733 11.081C232.156 11.3646 229.694 12.1606 227.318 13.3259C224.706 15.1486 222.319 16.525 219.254 19.2558C215.448 22.5253 216.797 22.1626 220.492 20.1485C225.342 17.7497 229.76 15.7841 234.244 13.7525C235.293 13.3809 235.878 13.0533 236.484 12.1804C236.804 11.7164 237.155 11.5955 237.508 11.7318C238.3 12.0375 239.158 12.3871 240.132 12.5124C242.769 12.4046 240.544 9.01422 239.092 8.6954C238.298 8.5305 237.822 8.71079 237.609 9.68703C237.269 12.0441 235.72 11.3185 234.294 10.7776C234.288 10.7798 234.286 10.7798 234.283 10.7798Z" fill="white"/>
<path fill-rule="evenodd" clip-rule="evenodd" d="M222.414 17.3673C219.988 19.4187 218.448 20.883 223.039 18.216C226.705 16.2833 229.783 14.775 233.023 13.4404C234.109 13.0886 234.35 12.1519 234.201 11.8749C233.984 11.4439 233.117 11.345 231.832 11.7979C230.697 12.0596 227.008 13.779 222.414 17.3673Z" fill="#FA73BF"/>
<path opacity="0.26" fill-rule="evenodd" clip-rule="evenodd" d="M237.758 36.5951C240.46 34.6536 242.639 31.9931 243.99 28.3345C241.965 31.1444 239.535 33.596 237.758 36.5951Z" fill="white"/>
<path opacity="0.24" fill-rule="evenodd" clip-rule="evenodd" d="M246.771 23.7545C246.912 23.6336 247.057 23.5171 247.206 23.4005C247.443 22.7915 247.673 22.1671 247.881 21.5184C247.857 21.4525 247.829 21.3843 247.798 21.314C247.719 21.1952 247.64 21.0765 247.559 20.9556C247.348 21.9142 247.072 22.8399 246.771 23.7545Z" fill="white"/>
<path opacity="0.5" fill-rule="evenodd" clip-rule="evenodd" d="M206.387 13.2445C204.823 14.1701 204.417 15.1596 207.113 13.8271C215.397 8.9306 223.226 3.76801 227.767 3.38323C228.451 3.32607 229.098 3.36784 229.783 3.22053C231.463 2.85994 231.051 2.08159 229.16 1.83094C228.243 1.71001 227.545 1.77157 226.648 1.96946C223.044 2.76539 219.33 4.43202 214.6 7.67073C211.863 9.52865 209.125 11.3866 206.387 13.2445Z" fill="white"/>
<path opacity="0.12" fill-rule="evenodd" clip-rule="evenodd" d="M206.072 19.4471C206.561 19.5064 213.896 15.2893 213.896 15.2893C221.122 11.8109 219.387 12.0462 224.683 9.82769C233.1 6.15803 229.16 5.5204 224.047 6.86601C215.678 9.68037 201.151 19.5592 206.072 19.4471Z" fill="#F0BAD4"/>
<path opacity="0.575" fill-rule="evenodd" clip-rule="evenodd" d="M222.928 17.1209C221.044 18.7787 220.013 19.8297 223.479 17.8839C226.934 16.0633 229.834 14.6539 232.888 13.3941C233.836 13.0379 234.064 12.2419 233.923 11.9825C233.719 11.5779 232.954 11.4856 231.743 11.9099C230.648 12.2156 227.224 13.8096 222.928 17.1209Z" fill="#FCB9DF"/>
<path opacity="0.15" fill-rule="evenodd" clip-rule="evenodd" d="M223.441 16.8746C222.096 18.1366 221.576 18.7765 223.919 17.5518C227.163 15.8412 229.886 14.5307 232.755 13.35C233.567 12.9894 233.78 12.3342 233.648 12.0901C233.457 11.7098 232.795 11.624 231.656 12.0242C230.594 12.3738 227.435 13.8425 223.441 16.8746Z" fill="white"/>
<path fill-rule="evenodd" clip-rule="evenodd" d="M7.04177 30.7443H0V49.9831H7.04177C9.78389 49.9831 11.9688 49.1365 13.5724 47.4457C15.1804 45.7681 15.9855 43.4331 15.9855 40.4362C15.9855 37.4547 15.1804 35.0955 13.5592 33.3497C11.9425 31.615 9.76195 30.7443 7.04177 30.7443ZM7.04177 46.4101H4.11318V34.3172H7.04177C8.58174 34.3172 9.77511 34.8537 10.6153 35.9376C11.4599 37.0282 11.8723 38.5299 11.8723 40.4362C11.8723 44.2532 10.1502 46.4101 7.04177 46.4101ZM34.0703 46.9004C32.8506 47.637 31.9951 47.1423 31.9951 45.7417V40.8078C31.9951 38.9345 31.4598 37.4328 30.3783 36.2916C29.299 35.1549 27.7634 34.592 25.7496 34.592C23.7884 34.592 22.2221 35.0362 21.0332 35.92C19.8486 36.8127 19.2453 38.0088 19.2453 39.5149L22.8101 39.9459C22.8101 38.6684 23.8016 37.7516 25.3065 37.7516C25.9909 37.7516 26.5306 37.9385 26.9342 38.3298C27.7393 39.0994 27.849 40.0294 27.8841 41.4674C26.5679 41.1706 25.1047 41.0233 23.4923 41.0233C22.0116 41.0233 20.7677 41.3993 19.7411 42.1512C18.7122 42.8988 18.2055 44.0157 18.2055 45.5131C18.2055 46.9686 18.7122 48.1185 19.7148 48.9716C20.7151 49.8291 21.9172 50.2579 23.3256 50.2579C25.7518 50.2711 27.498 49.5345 28.5817 48.046C28.902 49.4246 30.1173 50.1765 31.7165 50.1765C32.6663 50.1765 33.603 49.9347 34.5134 49.44L34.0703 46.9004ZM27.8819 43.6332V45.4845C27.0373 46.7399 26.0041 47.371 24.7559 47.371C24.0714 47.371 23.4945 47.1841 23.0228 46.8213C22.5512 46.4585 22.3143 45.9044 22.3143 45.1547C22.3143 43.7167 23.3475 43.1121 24.6988 43.1121C25.8308 43.1121 26.8903 43.2858 27.8819 43.6332ZM36.9221 49.9831H41.0353C41.0353 46.9774 41.0989 44.2796 41.2218 41.8808C41.4499 39.825 42.5336 38.4947 44.0779 38.4947C45.0015 38.4947 45.7144 38.8421 46.2343 39.5259C46.7608 40.2273 47.0109 41.1112 47.0109 42.1974V46.2782C47.0109 48.8485 48.3732 50.1765 50.6305 50.1765C51.6045 50.1765 52.5412 49.9347 53.4494 49.44L52.9822 46.8895C51.8041 47.626 51.0956 47.1731 51.0956 45.7351L51.1219 41.0255C51.1219 39.051 50.6503 37.4811 49.7333 36.3268C48.801 35.1725 47.4804 34.5964 45.7517 34.5964C43.7226 34.5964 42.2243 35.6584 41.2459 37.7934H41.0309V34.6514L36.9177 35.0691V49.9831H36.9221ZM64.5824 34.647V38.0044H64.3455C64.034 37.0106 63.5909 36.2455 63.0008 35.6958C62.4524 35.1879 61.7811 34.8669 60.9892 34.7283C60.1994 34.6096 59.4711 34.6778 58.7867 34.957C57.4244 35.3198 56.3517 36.1663 55.5883 37.4811C54.8249 38.8004 54.4366 40.3571 54.4366 42.1578C54.4366 44.8424 55.3097 46.8433 56.7685 47.9932C58.2273 49.1431 60.0371 49.6796 62.279 49.6796C63.2706 49.6796 64.034 49.6115 64.5824 49.4927L64.5605 49.772C64.4091 51.5991 63.2728 52.6215 61.4849 52.5116C59.7168 52.5248 58.3501 51.9905 57.3717 50.8999L55.7769 53.4746C57.2752 54.7982 59.1815 55.4535 61.4849 55.4535C62.9196 55.4535 64.1305 55.2666 65.4248 54.6883C66.0785 54.4091 66.6401 54.0375 67.1074 53.5846C68.0529 52.6721 68.6978 51.1154 68.6978 49.1739V35.0691L64.5824 34.647ZM61.4323 46.3508C60.6382 46.1221 59.9691 45.6494 59.4031 44.9392C58.8262 44.2246 58.5476 43.2989 58.5476 42.1578C58.5476 41.0035 58.8393 40.036 59.4294 39.2665C60.0108 38.5013 60.7742 38.1803 61.6955 38.2859C62.2988 38.354 62.8516 38.7168 63.332 39.3478C63.8168 39.9811 64.1634 40.7726 64.3916 41.6983C64.5649 44.1169 64.6197 45.6736 64.5561 46.375C63.4987 46.685 62.4655 46.685 61.4323 46.3508ZM74.612 42.4261C74.612 41.1618 74.974 40.1548 75.6825 39.4028C76.3911 38.6509 77.2225 38.2771 78.1724 38.2771C79.6312 38.2771 80.7675 39.2159 81.2107 40.6143L84.0888 39.5369C83.8738 38.0748 83.1784 36.8853 82.0135 35.9596C80.8487 35.0537 79.55 34.5942 78.1153 34.5942C75.9721 34.5942 74.1667 35.3044 72.6991 36.738C71.2315 38.1671 70.4966 40.0646 70.4966 42.4283C70.4966 44.7963 71.2315 46.6872 72.6991 48.1119C74.1667 49.5455 75.9721 50.2557 78.1153 50.2557C80.3266 50.2689 82.3053 49.706 84.0888 48.5935L82.8274 45.346C81.4388 46.243 79.9888 46.6608 78.4905 46.6102C77.4068 46.597 76.4832 46.2079 75.7352 45.4647C74.9871 44.7237 74.612 43.7035 74.612 42.4261ZM101.526 46.9004C100.307 47.637 99.4512 47.1423 99.4512 45.7417V40.8078C99.4512 38.9345 98.916 37.4328 97.8345 36.2916C96.7552 35.1549 95.2196 34.592 93.2058 34.592C91.2446 34.592 89.6783 35.0362 88.4893 35.92C87.3047 36.8127 86.7015 38.0088 86.7015 39.5149L90.2662 39.9459C90.2662 38.6684 91.2578 37.7516 92.7626 37.7516C93.4471 37.7516 93.9867 37.9385 94.3904 38.3298C95.1955 39.0994 95.3051 40.0294 95.3402 41.4674C94.024 41.1706 92.5608 41.0233 90.9485 41.0233C89.4677 41.0233 88.2239 41.3993 87.1972 42.1512C86.1684 42.8988 85.6617 44.0157 85.6617 45.5131C85.6617 46.9686 86.1684 48.1185 87.1709 48.9716C88.1712 49.8291 89.3734 50.2579 90.7817 50.2579C93.208 50.2711 94.9542 49.5345 96.0378 48.046C96.3581 49.4246 97.5734 50.1765 99.1726 50.1765C100.123 50.1765 101.059 49.9347 101.97 49.44L101.526 46.9004ZM95.3381 43.6332V45.4845C94.4935 46.7399 93.4603 47.371 92.212 47.371C91.5276 47.371 90.9507 47.1841 90.479 46.8213C90.0074 46.4585 89.7705 45.9044 89.7705 45.1547C89.7705 43.7167 90.8037 43.1121 92.155 43.1121C93.2869 43.1121 94.3465 43.2858 95.3381 43.6332ZM104.378 55.4886H108.491V50.0644C109.027 50.1743 109.74 50.2293 110.608 50.2293C112.903 50.2293 114.809 49.5323 116.325 48.1537C117.848 46.7751 118.611 44.7787 118.611 42.1578C118.611 40.3724 118.223 38.8136 117.464 37.4811C116.7 36.1663 115.636 35.3198 114.261 34.957C113.576 34.6734 112.848 34.6096 112.058 34.7283C111.269 34.8603 110.611 35.1857 110.062 35.6958C109.472 36.2455 109.016 37.015 108.709 38.0088H108.494V34.647L104.38 35.0647V55.4886H104.378ZM108.491 46.3772C108.395 45.8099 108.45 44.2664 108.652 41.7554C108.853 40.8166 109.2 40.0185 109.698 39.3654C110.192 38.719 110.744 38.3584 111.376 38.2881C112.3 38.1693 113.063 38.5035 113.642 39.2687C114.219 40.0338 114.498 41.0057 114.498 42.16C114.498 43.3275 114.206 44.2818 113.603 45.0183C113 45.7615 112.273 46.2276 111.455 46.4563C110.42 46.7114 109.444 46.685 108.491 46.3772ZM120.996 55.4886H125.109V50.0644C125.644 50.1743 126.357 50.2293 127.226 50.2293C129.52 50.2293 131.427 49.5323 132.942 48.1537C134.465 46.7751 135.228 44.7787 135.228 42.1578C135.228 40.3724 134.84 38.8136 134.081 37.4811C133.318 36.1663 132.254 35.3198 130.878 34.957C130.194 34.6734 129.465 34.6096 128.676 34.7283C127.886 34.8603 127.228 35.1857 126.679 35.6958C126.089 36.2455 125.633 37.015 125.326 38.0088H125.111V34.647L120.998 35.0647V55.4886H120.996ZM125.109 46.3772C125.012 45.8099 125.067 44.2664 125.269 41.7554C125.471 40.8166 125.817 40.0185 126.315 39.3654C126.809 38.719 127.362 38.3584 127.993 38.2881C128.917 38.1693 129.68 38.5035 130.26 39.2687C130.836 40.0338 131.115 41.0057 131.115 42.16C131.115 43.3275 130.823 44.2818 130.22 45.0183C129.617 45.7615 128.891 46.2276 128.072 46.4563C127.037 46.7114 126.061 46.685 125.109 46.3772ZM137.613 49.9831H141.726C141.726 46.9774 141.79 44.2796 141.912 41.8808C142.141 39.825 143.224 38.4947 144.769 38.4947C145.692 38.4947 146.405 38.8421 146.925 39.5259C147.452 40.2273 147.702 41.1112 147.702 42.1974V46.2782C147.702 48.8485 149.064 50.1765 151.321 50.1765C152.295 50.1765 153.232 49.9347 154.14 49.44L153.673 46.8895C152.495 47.626 151.786 47.1731 151.786 45.7351L151.815 41.0255C151.815 39.051 151.343 37.4811 150.426 36.3268C149.494 35.1725 148.173 34.5964 146.445 34.5964C144.415 34.5964 142.917 35.6584 141.939 37.7934H141.724V30.0605L137.611 30.4738V49.9831H137.613ZM170.775 46.9004C169.555 47.637 168.7 47.1423 168.7 45.7417V40.8078C168.7 38.9345 168.164 37.4328 167.083 36.2916C166.004 35.1549 164.468 34.592 162.454 34.592C160.493 34.592 158.927 35.0362 157.738 35.92C156.553 36.8127 155.95 38.0088 155.95 39.5149L159.515 39.9459C159.515 38.6684 160.506 37.7516 162.011 37.7516C162.696 37.7516 163.235 37.9385 163.639 38.3298C164.444 39.0994 164.554 40.0294 164.589 41.4674C163.272 41.1706 161.809 41.0233 160.197 41.0233C158.716 41.0233 157.472 41.3993 156.446 42.1512C155.417 42.8988 154.91 44.0157 154.91 45.5131C154.91 46.9686 155.417 48.1185 156.419 48.9716C157.42 49.8291 158.622 50.2579 160.03 50.2579C162.456 50.2711 164.203 49.5345 165.286 48.046C165.607 49.4246 166.822 50.1765 168.421 50.1765C169.371 50.1765 170.308 49.9347 171.218 49.44L170.775 46.9004ZM164.586 43.6332V45.4845C163.742 46.7399 162.709 47.371 161.46 47.371C160.776 47.371 160.199 47.1841 159.727 46.8213C159.256 46.4585 159.019 45.9044 159.019 45.1547C159.019 43.7167 160.052 43.1121 161.403 43.1121C162.535 43.1121 163.595 43.2858 164.586 43.6332ZM175.934 32.866C176.685 32.866 177.301 32.6374 177.799 32.1932C178.293 31.7535 178.534 31.162 178.534 30.4254C178.534 29.6845 178.293 29.093 177.799 28.6533C177.301 28.2091 176.685 27.9805 175.934 27.9805C175.184 27.9805 174.572 28.2091 174.087 28.6533C173.594 29.093 173.352 29.6845 173.352 30.4254C173.352 31.162 173.609 31.7535 174.103 32.1932C174.601 32.6352 175.2 32.866 175.934 32.866ZM179.916 46.8873C178.696 47.6238 177.988 47.1709 177.988 45.7329V34.647L173.875 35.0647V46.2826C173.875 48.8485 175.296 50.1765 177.558 50.1765C178.508 50.1765 179.431 49.9347 180.342 49.44L179.916 46.8873ZM197.685 46.9004C196.465 47.6326 195.77 47.1797 195.77 45.7461V30.0583L191.657 30.4716V38.011H191.442C191.176 37.0304 190.733 36.2608 190.13 35.698C189.59 35.1901 188.923 34.8691 188.105 34.7305C187.287 34.6118 186.548 34.68 185.861 34.9592C184.486 35.322 183.411 36.1553 182.647 37.4328C181.884 38.7058 181.509 40.2911 181.509 42.16C181.509 44.8864 182.208 46.9136 183.584 48.2395C184.964 49.5631 186.787 50.2315 189.081 50.2315C190.689 50.2315 191.896 49.8423 192.697 49.0552C193.337 49.8028 194.219 50.1765 195.325 50.1765C196.303 50.1765 197.227 49.9347 198.122 49.44L197.685 46.9004ZM191.633 46.364C190.65 46.6982 189.632 46.6982 188.557 46.364C187.752 46.1221 187.072 45.6406 186.491 44.926C185.916 44.2158 185.622 43.2901 185.622 42.1512C185.622 40.9969 185.914 40.0295 186.504 39.2665C187.085 38.5013 187.848 38.1803 188.77 38.2859C189.402 38.354 189.954 38.7168 190.433 39.3764C190.917 40.0316 191.264 40.8232 191.466 41.7488C191.696 44.0003 191.751 45.5438 191.633 46.364ZM212.857 48.8551L212.148 45.9704C210.599 46.6806 209.009 47.0192 207.359 46.9642C206.207 46.9224 205.242 46.63 204.466 46.0759C203.689 45.5262 203.264 44.8161 203.196 43.9542C204.681 44.2114 206.304 44.2752 208.044 44.1564C209.66 43.9827 210.933 43.5012 211.854 42.6987C212.758 41.8918 213.161 40.7528 213.056 39.2577C212.96 38.099 212.558 37.1469 211.841 36.4082C210.397 34.924 208.605 34.5524 206.554 34.5898C204.319 34.6448 202.5 35.3814 201.12 36.8105C199.745 38.2441 199.045 40.091 199.045 42.3491C199.045 44.7457 199.835 46.6498 201.416 48.0878C202.981 49.5257 204.909 50.2491 207.197 50.2491C209.072 50.2953 210.961 49.8357 212.857 48.8551ZM206.422 37.6988C207.212 37.6988 207.87 37.8593 208.419 38.1715C208.954 38.4925 209.233 38.9785 209.246 39.6227C209.287 40.9551 208.162 41.5466 206.449 41.5466C204.935 41.5883 203.799 41.5598 203.049 41.4696V41.3047C203.086 40.3241 203.424 39.4908 204.062 38.7762C204.709 38.0726 205.499 37.712 206.422 37.6988ZM215.388 55.4886H219.501V50.0644C220.037 50.1743 220.749 50.2293 221.618 50.2293C223.913 50.2293 225.819 49.5323 227.335 48.1537C228.857 46.7751 229.621 44.7787 229.621 42.1578C229.621 40.3724 229.233 38.8136 228.474 37.4811C227.71 36.1663 226.646 35.3198 225.271 34.957C224.586 34.6734 223.858 34.6096 223.068 34.7283C222.279 34.8603 221.62 35.1857 221.072 35.6958C220.482 36.2455 220.026 37.015 219.718 38.0088H219.503V34.647L215.39 35.0647V55.4886H215.388ZM219.501 46.3772C219.405 45.8099 219.46 44.2664 219.661 41.7554C219.863 40.8166 220.21 40.0185 220.708 39.3654C221.201 38.719 221.754 38.3584 222.386 38.2881C223.31 38.1693 224.073 38.5035 224.652 39.2687C225.229 40.0338 225.508 41.0057 225.508 42.16C225.508 43.3275 225.216 44.2818 224.613 45.0183C224.009 45.7615 223.283 46.2276 222.465 46.4563C221.432 46.7114 220.453 46.685 219.501 46.3772ZM231.937 49.9127C232.08 49.7852 232.15 49.6137 232.15 49.4026C232.15 49.1937 232.08 49.0244 231.937 48.8969C231.795 48.7694 231.617 48.7078 231.402 48.7078C231.187 48.7078 231.009 48.7694 230.869 48.8969C230.726 49.0244 230.656 49.1937 230.656 49.4026C230.656 49.6137 230.726 49.783 230.869 49.9127C231.009 50.0424 231.187 50.1084 231.402 50.1084C231.617 50.1106 231.793 50.0446 231.937 49.9127ZM235.84 45.6296C235.52 47.1335 235.177 48.301 234.815 49.1277H234.791C234.388 48.1339 234.048 46.9708 233.767 45.6296H232.519C232.832 47.1489 233.322 48.6001 233.995 49.9831H235.614C236.292 48.5759 236.785 47.1247 237.09 45.6296H235.84ZM237.696 49.9831H238.88C238.88 49.1168 238.898 48.3406 238.935 47.6502C239.001 47.0588 239.313 46.6762 239.758 46.6762C240.023 46.6762 240.23 46.7773 240.379 46.973C240.53 47.1753 240.602 47.4303 240.602 47.7426V48.9189C240.602 49.6598 240.995 50.0424 241.644 50.0424C241.925 50.0424 242.195 49.9721 242.456 49.8291L242.322 49.0948C241.982 49.308 241.778 49.1761 241.778 48.7628L241.787 47.4062C241.787 46.8367 241.651 46.3859 241.388 46.0517C241.12 45.7197 240.738 45.5526 240.24 45.5526C239.657 45.5526 239.225 45.8583 238.942 46.4739H238.88V45.568L237.696 45.689V49.9831Z" fill="#106909"/>
</svg>
