<svg width="55" height="43" viewBox="0 0 55 43" fill="none" xmlns="http://www.w3.org/2000/svg">
<g clip-path="url(#clip0)">
<path d="M0 1.1192V35.3139C0 35.7946 0.411985 36.2066 0.892634 36.2066H4.46317C5.28714 40.0518 8.65168 42.867 12.6342 42.867C16.6854 42.867 20.0499 40.0518 20.8052 36.2066H34.2634C35.0874 40.0518 38.4519 42.867 42.4345 42.867C46.4856 42.867 49.8502 40.0518 50.6055 36.2066H54.1074C54.588 36.2066 55 35.7946 55 35.3139V16.912C55 16.706 54.9313 16.5686 54.8627 16.4313L44.2197 0.638547C44.0824 0.363891 43.7391 0.226562 43.4644 0.226562H0.961298C0.480649 0.226562 0.0686642 0.638547 0 1.1192ZM35.9114 34.49C35.9114 30.8508 38.7953 27.9669 42.4345 27.9669C46.0737 27.9669 48.9576 30.9194 48.9576 34.49C48.9576 38.1292 46.005 41.0131 42.4345 41.0131C38.8639 41.0131 35.98 38.1292 35.9114 34.49ZM6.17978 34.49C6.17978 30.8508 9.13233 27.9669 12.7029 27.9669C16.3421 27.9669 19.226 30.9194 19.226 34.49C19.226 38.1292 16.2734 41.0131 12.7029 41.0131C9.13233 41.0131 6.17978 38.1292 6.17978 34.49ZM1.9226 2.01183H30.4182V25.3576C30.4182 25.8383 30.8302 26.2503 31.3109 26.2503C31.7915 26.2503 32.2035 25.8383 32.2035 25.3576V2.01183H42.9838L53.1461 17.1866V34.3526H50.7428C50.6742 29.8895 46.9663 26.1816 42.4345 26.1816C37.9026 26.1816 34.1948 29.8895 34.1261 34.3526H21.0112C20.9426 29.8895 17.2347 26.1816 12.7029 26.1816C8.17104 26.1816 4.46317 29.8895 4.39451 34.3526H1.9226V2.01183Z" fill="#5B5B5B"/>
<path d="M18.4708 16.8433H21.1487C21.6293 16.8433 22.0413 16.4314 22.0413 15.9507C22.0413 15.4701 21.6293 15.0581 21.1487 15.0581H19.4321V13.6848H21.1487C21.6293 13.6848 22.0413 13.2728 22.0413 12.7922C22.0413 12.3115 21.6293 11.8995 21.1487 11.8995H19.4321V10.5262H21.1487C21.6293 10.5262 22.0413 10.1143 22.0413 9.6336C22.0413 9.15295 21.6293 8.74097 21.1487 8.74097H18.4021C17.9214 8.74097 17.5781 9.08429 17.5781 9.56494V16.088C17.5781 16.5 17.9214 16.8433 18.4708 16.8433Z" fill="#5B5B5B"/>
<path d="M24.3067 16.8433H26.9846C27.4653 16.8433 27.8772 16.4314 27.8772 15.9507C27.8772 15.4701 27.4653 15.0581 26.9846 15.0581H25.268V13.6848H26.9846C27.4653 13.6848 27.8772 13.2728 27.8772 12.7922C27.8772 12.3115 27.4653 11.8995 26.9846 11.8995H25.268V10.5262H26.9846C27.4653 10.5262 27.8772 10.1143 27.8772 9.6336C27.8772 9.15295 27.4653 8.74097 26.9846 8.74097H24.238C23.7574 8.74097 23.4141 9.08429 23.4141 9.56494V16.088C23.4141 16.5 23.826 16.8433 24.3067 16.8433Z" fill="#5B5B5B"/>
<path d="M5.90539 13.6848H7.07268C7.55332 13.6848 7.96531 13.2728 7.96531 12.7922C7.96531 12.3115 7.55332 11.8995 7.07268 11.8995H5.90539V10.5262H7.75932C8.23997 10.5262 8.65195 10.1142 8.65195 9.6336C8.65195 9.15295 8.23997 8.74097 7.75932 8.74097H5.01275C4.5321 8.74097 4.12012 9.15295 4.12012 9.6336V16.0194C4.12012 16.5 4.5321 16.912 5.01275 16.912C5.4934 16.912 5.90539 16.5 5.90539 16.0194V13.6848Z" fill="#5B5B5B"/>
<path d="M11.879 12.9981H12.2223L13.8703 16.3626C14.0076 16.7059 14.3509 16.8433 14.6943 16.8433C15.3809 16.8433 15.7929 16.1566 15.5182 15.5387L14.2136 12.8608C15.1062 12.5174 15.6556 11.5561 15.5182 10.5262C15.3809 9.35888 14.3509 8.53491 13.2523 8.53491H11.055C10.5057 8.53491 10.0938 8.9469 10.0938 9.49621V15.9506C10.0938 16.4313 10.5057 16.8433 10.9864 16.8433C11.467 16.8433 11.879 16.4313 11.879 15.9506V12.9981ZM11.879 10.3888H13.321C13.527 10.3888 13.733 10.5948 13.733 10.8008C13.733 11.0068 13.527 11.2128 13.321 11.2128H11.879V10.3888Z" fill="#5B5B5B"/>
</g>
<defs>
<clipPath id="clip0">
<rect width="55" height="42.6404" fill="white" transform="translate(0 0.226562)"/>
</clipPath>
</defs>
</svg>
