<svg width="12" height="14" viewBox="0 0 12 14" fill="none" xmlns="http://www.w3.org/2000/svg">
<g clip-path="url(#clip0)">
<path d="M11.7563 2.43398L8.84404 0.232596C8.68469 0.112104 8.45816 0.143733 8.33767 0.303084C8.33737 0.303385 8.33707 0.303686 8.33707 0.303987L1.27053 9.71349C1.23288 9.76349 1.20908 9.82223 1.20095 9.88428L0.75302 13.3635C0.727415 13.5614 0.867487 13.7427 1.06539 13.768C1.12444 13.7756 1.18438 13.7686 1.24011 13.7476L4.60062 12.47C4.66448 12.4456 4.72021 12.4038 4.76118 12.3492L11.8274 2.93944C11.947 2.78009 11.9154 2.55417 11.7563 2.43398ZM1.83865 10.5946L3.73278 12.0263L1.54706 12.8571L1.83865 10.5946ZM4.40091 11.6251L2.06517 9.85958L7.29662 2.89305L9.63235 4.65856L4.40091 11.6251ZM10.0664 4.0802L7.73069 2.31469L8.69704 1.02784L11.0328 2.79335L10.0664 4.0802Z" fill="#666666"/>
</g>
<defs>
<clipPath id="clip0">
<rect width="11.15" height="13.6117" fill="white" transform="translate(0.75 0.158447)"/>
</clipPath>
</defs>
</svg>
