<svg width="23" height="22" viewBox="0 0 23 22" fill="none" xmlns="http://www.w3.org/2000/svg">
<g clip-path="url(#clip0)">
<path d="M19.7676 16.8855L16.7136 14.5396C16.0878 14.0509 15.1866 14.1487 14.6609 14.7351C14.1102 15.346 13.7597 15.7614 13.6346 15.8592C12.7084 16.7633 10.7809 15.4438 8.72818 13.44C6.6755 11.4362 5.34877 9.57907 6.27498 8.67492C6.37511 8.57718 6.80066 8.21063 7.42648 7.67303C8.02726 7.15987 8.12739 6.28017 7.62674 5.66926L5.22361 2.68803C4.79805 2.17487 4.0721 2.00381 3.47132 2.24818C2.64524 2.59028 1.16832 3.78766 0.767795 4.17864C-1.43508 6.35347 1.31851 11.2896 6.12478 16.0058C10.9311 20.722 16.0127 23.41 18.2155 21.2352C18.6161 20.8442 19.8427 19.4025 20.1931 18.5961C20.4685 17.9852 20.2933 17.3009 19.7676 16.8855Z" fill="black"/>
<path d="M18.1162 12.7068C18.717 12.7557 19.2176 12.2425 19.1676 11.656C18.9923 9.70114 18.1412 7.77067 16.6142 6.28006C15.0872 4.78944 13.1097 3.95861 11.1071 3.78755C10.5063 3.73868 9.98059 4.22741 10.0307 4.81388C10.0557 5.27817 10.4312 5.66915 10.9318 5.71802C12.5089 5.8402 14.0359 6.49998 15.2124 7.67293C16.414 8.84587 17.0648 10.3365 17.215 11.8515C17.215 12.3158 17.6155 12.6824 18.1162 12.7068Z" fill="black"/>
<path d="M19.3177 3.61647C16.9396 1.31946 13.8606 0.0976474 10.7315 -9.78078e-05C10.1557 -0.0245341 9.68012 0.464192 9.73019 1.02623C9.75522 1.51495 10.1808 1.90593 10.6814 1.93037C13.3099 2.02812 15.9133 3.05444 17.8908 5.00934C19.8934 6.96425 20.9448 9.50562 21.0199 12.047C21.0449 12.5357 21.4204 12.9511 21.9461 12.9756C22.5219 13.0244 23.0225 12.5602 22.9975 11.9981C22.9224 8.94359 21.6708 5.93792 19.3177 3.61647Z" fill="black"/>
</g>
<defs>
<clipPath id="clip0">
<rect width="23" height="22" fill="white"/>
</clipPath>
</defs>
</svg>
