<svg width="74" height="29" viewBox="0 0 74 29" fill="none" xmlns="http://www.w3.org/2000/svg">
<rect x="0.5" y="0.5" width="73" height="28" rx="14" fill="#F5F5F5" stroke="#DEDEDE"/>
<path d="M38.456 9.354C38.5027 9.25133 38.568 9.172 38.652 9.116C38.7453 9.06 38.8433 9.032 38.946 9.032C39.0953 9.032 39.226 9.08333 39.338 9.186C39.4593 9.27933 39.52 9.396 39.52 9.536C39.52 9.61067 39.5013 9.68533 39.464 9.76L35.446 18.692C35.39 18.8133 35.306 18.9067 35.194 18.972C35.082 19.0373 34.9607 19.07 34.83 19.07C34.6993 19.07 34.578 19.0373 34.466 18.972C34.354 18.9067 34.27 18.8133 34.214 18.692L30.21 9.76C30.182 9.68533 30.168 9.61533 30.168 9.55C30.168 9.40067 30.2287 9.27933 30.35 9.186C30.4713 9.08333 30.6067 9.032 30.756 9.032C30.98 9.032 31.1433 9.13933 31.246 9.354L34.858 17.516L38.456 9.354ZM42.0693 19.07C41.9013 19.07 41.7613 19.0233 41.6493 18.93C41.5466 18.8273 41.4953 18.6873 41.4953 18.51V12.602C41.4953 12.4247 41.5466 12.2893 41.6493 12.196C41.7613 12.0933 41.9013 12.042 42.0693 12.042C42.2373 12.042 42.3726 12.0933 42.4753 12.196C42.578 12.2893 42.6293 12.4247 42.6293 12.602V18.51C42.6293 18.6967 42.578 18.8367 42.4753 18.93C42.3726 19.0233 42.2373 19.07 42.0693 19.07ZM42.0693 10.572C41.8453 10.572 41.6633 10.5067 41.5233 10.376C41.3833 10.2453 41.3133 10.0727 41.3133 9.858C41.3133 9.65267 41.3833 9.48467 41.5233 9.354C41.6633 9.22333 41.8453 9.158 42.0693 9.158C42.2933 9.158 42.4753 9.22333 42.6153 9.354C42.7553 9.48467 42.8253 9.65267 42.8253 9.858C42.8253 10.0727 42.7553 10.2453 42.6153 10.376C42.4753 10.5067 42.2933 10.572 42.0693 10.572ZM50.2232 9.06C50.4006 9.06 50.5406 9.11133 50.6432 9.214C50.7459 9.31667 50.7972 9.44733 50.7972 9.606V18.51C50.7972 18.678 50.7459 18.8133 50.6432 18.916C50.5406 19.0187 50.4006 19.07 50.2232 19.07C50.0459 19.07 49.9059 19.0187 49.8032 18.916C49.7099 18.8133 49.6632 18.678 49.6632 18.51V17.754C49.4579 18.1833 49.1546 18.5147 48.7532 18.748C48.3612 18.9813 47.8992 19.098 47.3672 19.098C46.7699 19.098 46.2426 18.9487 45.7852 18.65C45.3279 18.3513 44.9732 17.936 44.7212 17.404C44.4692 16.8627 44.3432 16.2373 44.3432 15.528C44.3432 14.828 44.4692 14.212 44.7212 13.68C44.9732 13.148 45.3279 12.7373 45.7852 12.448C46.2426 12.1587 46.7699 12.014 47.3672 12.014C47.8992 12.014 48.3612 12.1307 48.7532 12.364C49.1546 12.5973 49.4579 12.9287 49.6632 13.358V9.606C49.6632 9.438 49.7099 9.30733 49.8032 9.214C49.9059 9.11133 50.0459 9.06 50.2232 9.06ZM47.5912 18.16C48.2539 18.16 48.7626 17.936 49.1172 17.488C49.4812 17.0307 49.6632 16.3867 49.6632 15.556C49.6632 14.7253 49.4812 14.086 49.1172 13.638C48.7626 13.19 48.2539 12.966 47.5912 12.966C46.9286 12.966 46.4106 13.19 46.0372 13.638C45.6732 14.086 45.4912 14.716 45.4912 15.528C45.4912 16.3587 45.6732 17.0073 46.0372 17.474C46.4106 17.9313 46.9286 18.16 47.5912 18.16ZM58.1757 17.418C58.2783 17.418 58.367 17.46 58.4417 17.544C58.5163 17.628 58.5537 17.7353 58.5537 17.866C58.5537 18.0993 58.3903 18.314 58.0637 18.51C57.7277 18.706 57.373 18.8553 56.9997 18.958C56.6263 19.0513 56.2623 19.098 55.9077 19.098C54.853 19.098 54.0177 18.7853 53.4017 18.16C52.795 17.5347 52.4917 16.6713 52.4917 15.57C52.4917 14.87 52.627 14.254 52.8977 13.722C53.1683 13.1807 53.5463 12.7607 54.0317 12.462C54.5263 12.1633 55.0863 12.014 55.7117 12.014C56.5983 12.014 57.303 12.3033 57.8257 12.882C58.3483 13.4607 58.6097 14.2447 58.6097 15.234C58.6097 15.4207 58.5723 15.556 58.4977 15.64C58.423 15.724 58.3017 15.766 58.1337 15.766H53.6257C53.7097 17.3713 54.4703 18.174 55.9077 18.174C56.2717 18.174 56.5843 18.1273 56.8457 18.034C57.107 17.9313 57.387 17.796 57.6857 17.628C57.9283 17.488 58.0917 17.418 58.1757 17.418ZM55.7257 12.896C55.1283 12.896 54.6477 13.0827 54.2837 13.456C53.929 13.8293 53.719 14.3567 53.6537 15.038H57.6157C57.597 14.3473 57.4243 13.82 57.0977 13.456C56.771 13.0827 56.3137 12.896 55.7257 12.896ZM63.1085 19.098C62.4645 19.098 61.8951 18.9533 61.4005 18.664C60.9151 18.3747 60.5371 17.964 60.2665 17.432C60.0051 16.8907 59.8745 16.2653 59.8745 15.556C59.8745 14.8467 60.0051 14.226 60.2665 13.694C60.5371 13.1527 60.9151 12.7373 61.4005 12.448C61.8951 12.1587 62.4645 12.014 63.1085 12.014C63.7525 12.014 64.3218 12.1587 64.8165 12.448C65.3111 12.7373 65.6891 13.1527 65.9505 13.694C66.2211 14.226 66.3565 14.8467 66.3565 15.556C66.3565 16.2653 66.2211 16.8907 65.9505 17.432C65.6891 17.964 65.3111 18.3747 64.8165 18.664C64.3218 18.9533 63.7525 19.098 63.1085 19.098ZM63.1085 18.16C63.7805 18.16 64.2938 17.9407 64.6485 17.502C65.0125 17.054 65.1945 16.4053 65.1945 15.556C65.1945 14.7253 65.0125 14.086 64.6485 13.638C64.2845 13.1807 63.7711 12.952 63.1085 12.952C62.4458 12.952 61.9325 13.1807 61.5685 13.638C61.2045 14.086 61.0225 14.7253 61.0225 15.556C61.0225 16.396 61.1998 17.04 61.5545 17.488C61.9185 17.936 62.4365 18.16 63.1085 18.16Z" fill="black"/>
<path d="M24.9657 10.5472C24.8815 10.211 24.7102 9.903 24.4689 9.65425C24.2276 9.40551 23.925 9.22485 23.5915 9.13051C22.3732 8.83301 17.4998 8.83301 17.4998 8.83301C17.4998 8.83301 12.6265 8.83301 11.4082 9.15884C11.0747 9.25318 10.7721 9.43384 10.5308 9.68259C10.2895 9.93133 10.1181 10.2393 10.034 10.5755C9.81103 11.8119 9.70196 13.0662 9.70817 14.3226C9.70022 15.5884 9.8093 16.8523 10.034 18.098C10.1268 18.4237 10.302 18.72 10.5427 18.9583C10.7834 19.1965 11.0815 19.3686 11.4082 19.458C12.6265 19.7838 17.4998 19.7838 17.4998 19.7838C17.4998 19.7838 22.3732 19.7838 23.5915 19.458C23.925 19.3637 24.2276 19.183 24.4689 18.9343C24.7102 18.6855 24.8815 18.3775 24.9657 18.0413C25.1869 16.8142 25.296 15.5695 25.2915 14.3226C25.2994 13.0568 25.1904 11.7929 24.9657 10.5472V10.5472Z" stroke="black" stroke-linecap="round" stroke-linejoin="round"/>
<path d="M15.9062 16.6393L19.9792 14.3231L15.9062 12.0068V16.6393Z" stroke="black" stroke-linecap="round" stroke-linejoin="round"/>
</svg>
