<svg width="17" height="11" viewBox="0 0 17 11" fill="none" xmlns="http://www.w3.org/2000/svg">
<path fill-rule="evenodd" clip-rule="evenodd" d="M8.50766 10.4238C3.72498 10.4238 0.781785 6.62218 0.0459874 5.51849C-0.0153291 5.33454 -0.0153291 5.08927 0.0459874 4.90532C0.781785 3.80162 3.72498 0 8.50766 0C13.2904 0 16.1722 3.80162 16.908 4.90532C17.0307 5.08927 17.0307 5.33454 16.908 5.51849C16.1722 6.62218 13.2904 10.4238 8.50766 10.4238ZM8.50766 2.02344C10.2245 2.02344 11.6348 3.43372 11.6348 5.2119C11.6348 6.92876 10.2245 8.40036 8.50766 8.40036C6.72949 8.40036 5.31921 6.92876 5.31921 5.2119C5.31921 3.43372 6.72949 2.02344 8.50766 2.02344Z" fill="black"/>
<path fill-rule="evenodd" clip-rule="evenodd" d="M8.50776 2.88184C9.73409 2.88184 10.7765 3.92422 10.7765 5.21186C10.7765 6.49951 9.73409 7.54189 8.50776 7.54189C7.22011 7.54189 6.17773 6.49951 6.17773 5.21186C6.17773 3.92422 7.22011 2.88184 8.50776 2.88184ZM8.50776 3.92422C9.18224 3.92422 9.73409 4.53738 9.73409 5.21186C9.73409 5.88635 9.18224 6.49951 8.50776 6.49951C7.77196 6.49951 7.22011 5.88635 7.22011 5.21186C7.22011 4.53738 7.77196 3.92422 8.50776 3.92422Z" fill="black"/>
</svg>
