<svg width="12" height="15" viewBox="0 0 12 15" fill="none" xmlns="http://www.w3.org/2000/svg">
<path d="M6.00143 7.64236C8.1121 7.64236 9.54559 5.93184 9.54559 3.82118C9.54559 1.71052 8.1121 0 6.00143 0C3.89077 0 2.45508 1.71052 2.45508 3.82118C2.45728 5.93184 3.89077 7.64236 6.00143 7.64236Z" fill="#2A2A2A"/>
<path d="M8.86259 7.3916C8.10627 8.07097 7.11469 8.47332 6 8.47332C4.88531 8.47332 3.89373 8.07097 3.13521 7.3916C1.33675 8.37658 0.0945401 10.2454 0 12.4176C1.52144 13.983 3.64969 14.9592 6 14.9592C8.35031 14.9592 10.4786 13.983 12 12.4176C11.9055 10.2454 10.6632 8.37658 8.86259 7.3916Z" fill="#2A2A2A"/>
</svg>
