<svg width="16" height="13" viewBox="0 0 16 13" fill="none" xmlns="http://www.w3.org/2000/svg">
<g clip-path="url(#clip0)">
<path d="M10.448 2.97607H0.705778C0.316444 2.97607 0 3.29252 0 3.68185V9.57163C0 9.96096 0.316444 10.2756 0.705778 10.2756H1.13244L1.66756 12.985L4.31822 10.2756H10.448C10.8373 10.2756 11.152 9.95919 11.1538 9.57163V3.68185C11.152 3.29252 10.8373 2.97607 10.448 2.97607ZM2.67556 7.35474C2.27378 7.35474 1.94667 7.02941 1.94667 6.62585C1.94667 6.22407 2.272 5.89874 2.67378 5.89874C3.07556 5.89874 3.40267 6.22407 3.40267 6.62585C3.40444 7.02763 3.07733 7.35474 2.67556 7.35474ZM5.57689 7.35474C5.17511 7.35474 4.84978 7.02941 4.84978 6.62585C4.84978 6.2223 5.17511 5.89874 5.57867 5.89874C5.98044 5.89874 6.30578 6.22407 6.30578 6.62585C6.304 7.02763 5.97867 7.35474 5.57689 7.35474ZM8.47644 7.35474C8.07467 7.35474 7.74933 7.02941 7.74933 6.62585C7.74933 6.2223 8.07467 5.89874 8.47822 5.89874C8.88 5.89874 9.20533 6.22407 9.20533 6.62585C9.20533 7.02763 8.87822 7.35474 8.47644 7.35474Z" fill="black"/>
<path d="M15.2957 0H5.55343C5.1641 0 4.84766 0.316444 4.84766 0.705778V1.73156H10.4477C11.5232 1.73333 12.3961 2.60622 12.3961 3.68178V8.02844L14.3339 10.0089L14.869 7.29956H15.2957C15.685 7.29956 15.9997 6.98489 15.9997 6.59733V6.59556V0.705778C15.9997 0.316444 15.685 0 15.2957 0Z" fill="black"/>
</g>
<defs>
<clipPath id="clip0">
<rect width="16" height="12.9849" fill="white"/>
</clipPath>
</defs>
</svg>
