<svg width="15" height="15" viewBox="0 0 15 15" fill="none" xmlns="http://www.w3.org/2000/svg">
<path d="M14.8283 5.90333C14.7767 5.66333 14.7133 5.42833 14.6383 5.19667C14.2917 4.12 13.7083 3.15 12.9483 2.34833C11.5817 0.903333 9.64667 0 7.5 0C3.35833 0 0 3.35667 0 7.49833C0 11.6417 3.35833 14.9983 7.5 14.9983C10.065 14.9983 12.3283 13.71 13.6817 11.745C14.1867 11.0117 14.5633 10.1833 14.7817 9.29333C14.835 9.075 14.88 8.855 14.915 8.62833C14.97 8.26 15 7.88333 15 7.49833C15 6.95167 14.94 6.41667 14.8283 5.90333ZM7.5 13.2733C4.31167 13.2733 1.72667 10.6883 1.72667 7.5C1.72667 4.31167 4.31167 1.72667 7.5 1.72667C10.6883 1.72667 13.2733 4.31167 13.2733 7.5C13.2733 10.6883 10.6883 13.2733 7.5 13.2733Z" fill="black"/>
<path d="M7.50141 2.43994C4.71141 2.43994 2.44141 4.70994 2.44141 7.49994C2.44141 10.2899 4.71141 12.5599 7.50141 12.5599C10.2914 12.5599 12.5614 10.2883 12.5614 7.49994C12.5614 4.70994 10.2914 2.43994 7.50141 2.43994ZM7.89141 10.1499V11.0349H7.04141V10.2116C6.46141 10.1866 5.89807 10.0299 5.56807 9.83827L5.82807 8.82494C6.19141 9.02327 6.70307 9.20661 7.26641 9.20661C7.75974 9.20661 8.09807 9.01661 8.09807 8.66994C8.09807 8.34161 7.81974 8.13327 7.17974 7.91661C6.25307 7.60494 5.61974 7.17161 5.61974 6.33161C5.61974 5.56994 6.15807 4.97161 7.08474 4.78994V3.96661H7.93474V4.72994C8.51474 4.75661 8.90474 4.87827 9.19141 5.01661L8.93974 5.99494C8.71474 5.89994 8.31641 5.69994 7.69141 5.69994C7.12807 5.69994 6.94641 5.94327 6.94641 6.18494C6.94641 6.47161 7.24974 6.65327 7.98641 6.92994C9.01641 7.29327 9.43307 7.76994 9.43307 8.54994C9.43307 9.31827 8.88807 9.97661 7.89141 10.1499Z" fill="black"/>
</svg>
