<svg width="15" height="14" viewBox="0 0 15 14" fill="none" xmlns="http://www.w3.org/2000/svg">
<path d="M14.766 3.48674L14.1108 3.46334C14.0172 3.13573 13.9002 2.80811 13.7129 2.5273L14.1576 2.03588C14.2278 1.94228 14.2278 1.80187 14.1576 1.73167L13.2449 0.819033C13.1513 0.725429 13.0109 0.725429 12.9407 0.819033L12.4493 1.26365C12.1685 1.09984 11.8409 0.959439 11.5133 0.865835L11.4899 0.210608C11.4899 0.0936037 11.3963 0 11.2558 0H9.9688C9.85179 0 9.75819 0.0936037 9.73479 0.210608L9.71139 0.865835C9.38377 0.959439 9.05616 1.07644 8.77535 1.26365L8.28393 0.819033C8.19033 0.74883 8.04992 0.74883 7.97972 0.819033L7.06708 1.73167C6.97348 1.82527 6.97348 1.96568 7.06708 2.03588L7.5117 2.5273C7.34789 2.83151 7.20749 3.13573 7.11388 3.46334L6.45866 3.48674C6.34165 3.48674 6.24805 3.60374 6.24805 3.72075V5.0078C6.24805 5.12481 6.34165 5.21841 6.45866 5.24181L6.87987 5.26521C6.97348 5.26521 7.04368 5.26521 7.11388 5.26521C7.20749 5.59282 7.32449 5.89704 7.5117 6.20125L7.06708 6.69267C6.97348 6.78627 6.99688 6.92668 7.06708 6.99688C7.09048 7.02028 7.90951 7.83931 7.97972 7.90952C8.07332 8.00312 8.21373 8.00312 8.30733 7.90952C8.33073 7.88612 8.33073 7.88612 8.35413 7.86271L8.79875 7.4649C9.10296 7.65211 9.40717 7.76911 9.73479 7.86271L9.75819 8.51794C9.75819 8.63495 9.87519 8.72855 9.9922 8.72855H11.2793C11.3963 8.72855 11.4899 8.63495 11.5133 8.51794L11.5367 7.86271C11.8643 7.76911 12.1919 7.65211 12.4727 7.4649L12.9641 7.90952C13.0577 7.97972 13.1981 7.97972 13.2683 7.90952L14.181 6.99688C14.2746 6.90328 14.2746 6.76287 14.181 6.69267L13.7363 6.20125C13.9236 5.89704 14.0406 5.59282 14.1342 5.26521L14.7894 5.24181C14.9064 5.24181 15 5.12481 15 5.0078V3.69735C14.9766 3.58034 14.883 3.48674 14.766 3.48674ZM10.9282 6.01404C9.9454 6.20125 9.00936 5.47582 8.93916 4.46958C8.84555 3.53354 9.61778 2.64431 10.624 2.64431C11.5601 2.64431 12.3323 3.41654 12.3323 4.35257C12.3089 5.17161 11.7239 5.87364 10.9282 6.01404Z" fill="black"/>
<path d="M9.9688 11.4898H3.55694L2.05928 3.39303C1.96568 2.85481 1.47426 2.43359 0.912637 2.43359H0.234009C0.117005 2.43359 0 2.5506 0 2.6676C0 2.80801 0.117005 2.90161 0.234009 2.90161H0.936037C1.26365 2.90161 1.54446 3.13562 1.61466 3.46324L3.08892 11.5366C2.5507 11.677 2.17629 12.145 2.17629 12.73C2.17629 13.4086 2.73791 13.9703 3.41654 13.9703C4.09516 13.9703 4.65679 13.4086 4.65679 12.73C4.65679 12.4492 4.56318 12.1684 4.37598 11.9578H9.03276C8.86895 12.1684 8.75195 12.4258 8.75195 12.73C8.75195 13.4086 9.31357 13.9703 9.9922 13.9703C10.6708 13.9703 11.2324 13.4086 11.2324 12.73C11.209 12.0514 10.6474 11.4898 9.9688 11.4898Z" fill="black"/>
<path d="M6.38936 6.97359V5.68654C6.06175 5.63974 5.80434 5.33552 5.80434 5.00791V4.44629H4.33008L4.54069 6.97359H6.38936Z" fill="black"/>
<path d="M6.38777 9.96871V7.44141H4.5625L4.79651 9.96871H6.38777Z" fill="black"/>
<path d="M3.74341 9.96871H4.32843L4.09442 7.44141H3.27539L3.74341 9.96871Z" fill="black"/>
<path d="M4.07213 6.97355L3.83812 4.42285H2.73828L3.2063 6.97355H4.07213Z" fill="black"/>
<path d="M10.4612 9.7815L10.5782 9.17308H9.99315C9.61873 9.17308 9.31452 8.89226 9.29112 8.51785L9.26772 8.19024C9.12731 8.14343 8.98691 8.07323 8.8465 8.02643C8.7295 8.12003 8.37848 8.61145 7.84026 8.35404H7.51265V8.07323C7.16163 7.72222 6.97443 7.53501 6.88082 7.44141H6.85742V9.99211H10.2272C10.3442 9.96871 10.4378 9.8985 10.4612 9.7815Z" fill="black"/>
</svg>
