<svg width="26" height="26" viewBox="0 0 26 26" fill="none" xmlns="http://www.w3.org/2000/svg">
<path d="M18.362 16.8215C21.9354 12.4352 21.2779 5.98199 16.8916 2.40858C12.5053 -1.16483 6.05206 -0.507303 2.47865 3.879C-1.09476 8.26531 -0.437234 14.7185 3.94907 18.2919C7.71669 21.3604 13.124 21.3604 16.8916 18.2919L23.3975 24.7979C23.8026 25.2057 24.4601 25.2085 24.868 24.8034C25.2758 24.3984 25.2786 23.7408 24.8735 23.333C24.8707 23.3302 24.8707 23.3302 24.868 23.3275L18.362 16.8215ZM10.4328 18.5139C5.93276 18.5139 2.28444 14.8656 2.28444 10.3627C2.28444 5.85992 5.93276 2.21437 10.4328 2.21437C14.9329 2.21437 18.584 5.86269 18.584 10.3655C18.5784 14.8628 14.9329 18.5083 10.4328 18.5139Z" fill="#2A2A2A"/>
</svg>
