<svg width="17" height="17" viewBox="0 0 17 17" fill="none" xmlns="http://www.w3.org/2000/svg">
<g clip-path="url(#clip0)">
<path d="M16.2763 14.8767L13.2883 11.9153C15.556 9.08737 15.3426 4.92547 12.7547 2.33761C11.3941 0.976989 9.6066 0.22998 7.68572 0.22998C5.76484 0.22998 3.95068 0.976989 2.59005 2.33761C1.22943 3.69824 0.482422 5.48572 0.482422 7.43328C0.482422 9.38084 1.22943 11.1683 2.59005 12.5289C3.95068 13.8629 5.73816 14.6366 7.68572 14.6366C9.31313 14.6366 10.9139 14.0763 12.1678 13.0625L15.1291 16.0239C15.2892 16.184 15.476 16.264 15.6894 16.264C15.9028 16.264 16.1162 16.184 16.2496 16.0239C16.5698 15.7037 16.5698 15.1968 16.2763 14.8767ZM13.2883 7.43328C13.2883 8.9273 12.7014 10.3413 11.6342 11.3818C10.567 12.4222 9.17974 13.0358 7.68572 13.0358C6.1917 13.0358 4.77772 12.4489 3.73725 11.3818C2.69677 10.3146 2.08316 8.9273 2.08316 7.43328C2.08316 5.93926 2.67009 4.52528 3.73725 3.48481C4.8044 2.44433 6.16502 1.83071 7.68572 1.83071C9.17974 1.83071 10.5937 2.41765 11.6342 3.48481C12.6747 4.55196 13.2883 5.91258 13.2883 7.43328Z" fill="#BDB9B9"/>
</g>
<defs>
<clipPath id="clip0">
<rect width="16.01" height="16.034" fill="white" transform="translate(0.482422 0.22998)"/>
</clipPath>
</defs>
</svg>
