<svg width="80" height="80" viewBox="0 0 80 80" fill="none" xmlns="http://www.w3.org/2000/svg">
<circle cx="39.9995" cy="40" r="32.9412" fill="url(#paint0_linear)"/>
<circle cx="40" cy="40" r="39.5" stroke="#56E14B"/>
<path d="M19.8615 41.07C19.5815 41.07 19.3575 40.9907 19.1895 40.832C19.0308 40.664 18.9515 40.4447 18.9515 40.174V32.614H16.4035C15.8435 32.614 15.5635 32.3667 15.5635 31.872C15.5635 31.3773 15.8435 31.13 16.4035 31.13H23.3055C23.8655 31.13 24.1455 31.3773 24.1455 31.872C24.1455 32.3667 23.8655 32.614 23.3055 32.614H20.7575V40.174C20.7575 40.4447 20.6735 40.664 20.5055 40.832C20.3468 40.9907 20.1321 41.07 19.8615 41.07ZM32.9274 31.06C33.1981 31.06 33.4127 31.144 33.5714 31.312C33.7301 31.4707 33.8094 31.6853 33.8094 31.956V40.174C33.8094 40.4447 33.7254 40.664 33.5574 40.832C33.3987 41 33.1887 41.084 32.9274 41.084C32.6567 41.084 32.4421 41 32.2834 40.832C32.1247 40.664 32.0454 40.4447 32.0454 40.174V36.716H26.9914V40.174C26.9914 40.4447 26.9074 40.664 26.7394 40.832C26.5807 41 26.3661 41.084 26.0954 41.084C25.8341 41.084 25.6194 41 25.4514 40.832C25.2927 40.664 25.2134 40.4447 25.2134 40.174V31.956C25.2134 31.6853 25.2927 31.4707 25.4514 31.312C25.6101 31.144 25.8247 31.06 26.0954 31.06C26.3661 31.06 26.5807 31.144 26.7394 31.312C26.9074 31.4707 26.9914 31.6853 26.9914 31.956V35.26H32.0454V31.956C32.0454 31.6853 32.1247 31.4707 32.2834 31.312C32.4421 31.144 32.6567 31.06 32.9274 31.06ZM44.8782 39.922C44.9342 40.0433 44.9622 40.1647 44.9622 40.286C44.9622 40.5007 44.8735 40.6827 44.6962 40.832C44.5282 40.9813 44.3322 41.056 44.1082 41.056C43.9588 41.056 43.8188 41.0187 43.6882 40.944C43.5575 40.86 43.4548 40.734 43.3802 40.566L42.5402 38.69H37.6122L36.7722 40.566C36.6975 40.734 36.5948 40.86 36.4642 40.944C36.3335 41.0187 36.1888 41.056 36.0302 41.056C35.8155 41.056 35.6195 40.9813 35.4422 40.832C35.2648 40.6827 35.1762 40.5007 35.1762 40.286C35.1762 40.1647 35.2042 40.0433 35.2602 39.922L39.1242 31.62C39.2082 31.4333 39.3342 31.2933 39.5022 31.2C39.6795 31.0973 39.8662 31.046 40.0622 31.046C40.2582 31.046 40.4402 31.0973 40.6082 31.2C40.7855 31.2933 40.9162 31.4333 41.0002 31.62L44.8782 39.922ZM38.2282 37.29H41.9242L40.0762 33.132L38.2282 37.29ZM38.2562 29.38C37.9388 29.212 37.7802 28.9927 37.7802 28.722C37.7802 28.5447 37.8455 28.3907 37.9762 28.26C38.1068 28.12 38.2655 28.05 38.4522 28.05C38.6668 28.05 38.8722 28.148 39.0682 28.344L40.3422 29.66C40.4355 29.7533 40.4822 29.856 40.4822 29.968C40.4822 30.0707 40.4402 30.164 40.3562 30.248C40.2815 30.3227 40.1835 30.36 40.0622 30.36C39.9782 30.36 39.9035 30.3413 39.8382 30.304L38.2562 29.38ZM53.7988 31.06C54.0601 31.06 54.2655 31.144 54.4148 31.312C54.5735 31.4707 54.6528 31.6853 54.6528 31.956V40.174C54.6528 40.4447 54.5735 40.664 54.4148 40.832C54.2561 41 54.0508 41.084 53.7988 41.084C53.5001 41.084 53.2715 40.9767 53.1128 40.762L48.0028 34.112V40.174C48.0028 40.4447 47.9281 40.664 47.7788 40.832C47.6295 41 47.4241 41.084 47.1628 41.084C46.9015 41.084 46.6961 41 46.5468 40.832C46.3975 40.664 46.3228 40.4447 46.3228 40.174V31.956C46.3228 31.6853 46.4021 31.4707 46.5608 31.312C46.7195 31.144 46.9295 31.06 47.1908 31.06C47.4801 31.06 47.7041 31.1673 47.8628 31.382L52.9588 38.004V31.956C52.9588 31.6853 53.0335 31.4707 53.1828 31.312C53.3415 31.144 53.5468 31.06 53.7988 31.06ZM64.4958 31.06C64.7664 31.06 64.9811 31.144 65.1398 31.312C65.2984 31.4707 65.3778 31.6853 65.3778 31.956V40.174C65.3778 40.4447 65.2938 40.664 65.1258 40.832C64.9671 41 64.7571 41.084 64.4958 41.084C64.2251 41.084 64.0104 41 63.8518 40.832C63.6931 40.664 63.6138 40.4447 63.6138 40.174V36.716H58.5598V40.174C58.5598 40.4447 58.4758 40.664 58.3078 40.832C58.1491 41 57.9344 41.084 57.6638 41.084C57.4024 41.084 57.1878 41 57.0198 40.832C56.8611 40.664 56.7818 40.4447 56.7818 40.174V31.956C56.7818 31.6853 56.8611 31.4707 57.0198 31.312C57.1784 31.144 57.3931 31.06 57.6638 31.06C57.9344 31.06 58.1491 31.144 58.3078 31.312C58.4758 31.4707 58.5598 31.6853 58.5598 31.956V35.26H63.6138V31.956C63.6138 31.6853 63.6931 31.4707 63.8518 31.312C64.0104 31.144 64.2251 31.06 64.4958 31.06ZM32.9286 47.522C33.078 47.2047 33.3253 47.046 33.6706 47.046C33.904 47.046 34.114 47.1207 34.3006 47.27C34.4873 47.4193 34.5806 47.606 34.5806 47.83C34.5806 47.9327 34.5526 48.0493 34.4966 48.18L30.6186 56.524C30.5346 56.7013 30.404 56.8413 30.2266 56.944C30.0586 57.0373 29.8766 57.084 29.6806 57.084C29.4846 57.084 29.298 57.0373 29.1206 56.944C28.9526 56.8413 28.8266 56.7013 28.7426 56.524L24.8786 48.18C24.8226 48.0493 24.7946 47.9373 24.7946 47.844C24.7946 47.6107 24.888 47.4193 25.0746 47.27C25.2706 47.1207 25.49 47.046 25.7326 47.046C25.8913 47.046 26.036 47.088 26.1666 47.172C26.3066 47.2467 26.414 47.3633 26.4886 47.522L29.7086 54.676L32.9286 47.522ZM36.6368 57.084C36.3661 57.084 36.1468 57 35.9788 56.832C35.8201 56.664 35.7408 56.4447 35.7408 56.174V47.956C35.7408 47.6853 35.8201 47.4707 35.9788 47.312C36.1468 47.144 36.3661 47.06 36.6368 47.06C36.9168 47.06 37.1361 47.144 37.2948 47.312C37.4628 47.4707 37.5468 47.6853 37.5468 47.956V56.174C37.5468 56.4447 37.4628 56.664 37.2948 56.832C37.1361 57 36.9168 57.084 36.6368 57.084ZM40.5463 57C40.2756 57 40.0609 56.9253 39.9023 56.776C39.7529 56.6267 39.6783 56.4167 39.6783 56.146V47.984C39.6783 47.7133 39.7529 47.5033 39.9023 47.354C40.0609 47.2047 40.2756 47.13 40.5463 47.13H45.6003C45.8709 47.13 46.0809 47.1907 46.2303 47.312C46.3796 47.4333 46.4543 47.606 46.4543 47.83C46.4543 48.0633 46.3796 48.2453 46.2303 48.376C46.0809 48.4973 45.8709 48.558 45.6003 48.558H41.4423V51.274H45.3203C45.5909 51.274 45.8009 51.3347 45.9503 51.456C46.0996 51.5773 46.1743 51.7547 46.1743 51.988C46.1743 52.212 46.0996 52.3847 45.9503 52.506C45.8009 52.6273 45.5909 52.688 45.3203 52.688H41.4423V55.572H45.6003C45.8709 55.572 46.0809 55.6373 46.2303 55.768C46.3796 55.8893 46.4543 56.0667 46.4543 56.3C46.4543 56.524 46.3796 56.6967 46.2303 56.818C46.0809 56.9393 45.8709 57 45.6003 57H40.5463ZM42.1563 46.164C42.0256 46.2947 41.8809 46.36 41.7223 46.36C41.5729 46.36 41.4423 46.3087 41.3303 46.206C41.2276 46.094 41.1763 45.968 41.1763 45.828C41.1763 45.6693 41.2509 45.5293 41.4003 45.408L42.5623 44.33C42.7583 44.162 42.9729 44.078 43.2063 44.078C43.4396 44.078 43.6543 44.162 43.8503 44.33L45.0123 45.408C45.1523 45.5387 45.2223 45.6833 45.2223 45.842C45.2223 45.982 45.1709 46.1033 45.0683 46.206C44.9656 46.3087 44.8396 46.36 44.6903 46.36C44.5316 46.36 44.3869 46.2947 44.2563 46.164L43.2063 45.086L42.1563 46.164ZM55.3984 47.06C55.6597 47.06 55.8651 47.144 56.0144 47.312C56.1731 47.4707 56.2524 47.6853 56.2524 47.956V56.174C56.2524 56.4447 56.1731 56.664 56.0144 56.832C55.8557 57 55.6504 57.084 55.3984 57.084C55.0997 57.084 54.8711 56.9767 54.7124 56.762L49.6024 50.112V56.174C49.6024 56.4447 49.5277 56.664 49.3784 56.832C49.2291 57 49.0237 57.084 48.7624 57.084C48.5011 57.084 48.2957 57 48.1464 56.832C47.9971 56.664 47.9224 56.4447 47.9224 56.174V47.956C47.9224 47.6853 48.0017 47.4707 48.1604 47.312C48.3191 47.144 48.5291 47.06 48.7904 47.06C49.0797 47.06 49.3037 47.1673 49.4624 47.382L54.5584 54.004V47.956C54.5584 47.6853 54.6331 47.4707 54.7824 47.312C54.9411 47.144 55.1464 47.06 55.3984 47.06Z" fill="white"/>
<defs>
<linearGradient id="paint0_linear" x1="39.9995" y1="7.05884" x2="39.9995" y2="72.9412" gradientUnits="userSpaceOnUse">
<stop stop-color="#6DA769"/>
<stop offset="0.626263" stop-color="#5ACE51"/>
</linearGradient>
</defs>
</svg>
