<svg width="50" height="60" viewBox="0 0 50 60" fill="none" xmlns="http://www.w3.org/2000/svg">
<g clip-path="url(#clip0)">
<path d="M46.7633 1.44165H19.2646C18.9021 1.44165 18.6173 1.72648 18.6173 2.08898C18.6173 2.45149 18.9021 2.73632 19.2646 2.73632H46.7763C47.8509 2.73632 48.7183 3.60374 48.7183 4.67832V38.4303H31.072C30.7095 38.4303 30.4247 38.7151 30.4247 39.0776V57.928H3.23666C2.16209 57.928 1.29467 57.0605 1.29467 55.986V18.5312C1.29467 18.1687 1.00984 17.8839 0.647333 17.8839C0.284827 17.8839 0 18.1687 0 18.5312V55.986C0 57.7726 1.45003 59.2226 3.23666 59.2226H31.072C31.2662 59.2226 31.4215 59.1449 31.5381 59.0155L49.8058 39.5437L49.8317 39.5178C49.8446 39.5048 49.8446 39.5048 49.8446 39.4919C49.9094 39.4142 49.9482 39.3365 49.9741 39.233C49.987 39.1941 49.987 39.1682 50 39.1294C50 39.1035 50.0129 39.0906 50.0129 39.0776V4.67832C50 2.89168 48.55 1.44165 46.7633 1.44165ZM31.7193 56.944V39.7249H47.8638L31.7193 56.944Z" fill="#353535"/>
<path d="M0.647333 9.53325H7.56085V16.4468C7.56085 16.8093 7.84568 17.0941 8.20818 17.0941C8.57069 17.0941 8.85552 16.8093 8.85552 16.4468V9.53325H15.769C16.1315 9.53325 16.4164 9.24843 16.4164 8.88592C16.4164 8.52341 16.1315 8.23859 15.769 8.23859H8.85552V1.32507C8.85552 0.962561 8.57069 0.677734 8.20818 0.677734C7.84568 0.677734 7.56085 0.962561 7.56085 1.32507V8.23859H0.647333C0.284827 8.23859 0 8.53636 0 8.88592C0 9.23548 0.284827 9.53325 0.647333 9.53325Z" fill="#353535"/>
<path d="M39.1508 24.137C39.0472 23.8911 38.8141 23.7357 38.5552 23.7357H29.4019L25.5956 14.3105C25.5697 14.2328 25.5179 14.1681 25.4661 14.1034C25.4402 14.0775 25.4014 14.0645 25.3755 14.0386C25.3367 14.0127 25.2978 13.9739 25.259 13.961C25.259 13.961 25.259 13.961 25.246 13.961C25.2072 13.948 25.1684 13.948 25.1425 13.948C25.1036 13.9351 25.0518 13.9221 25.013 13.9221C24.9612 13.9221 24.9224 13.9351 24.8706 13.948C24.8317 13.948 24.8058 13.948 24.767 13.961C24.767 13.961 24.767 13.961 24.7541 13.961C24.7023 13.9869 24.6634 14.0127 24.6246 14.0516C24.5987 14.0645 24.5728 14.0775 24.5469 14.1034L24.534 14.1163C24.4822 14.1811 24.4304 14.2328 24.4045 14.3105L20.5982 23.7357H11.4449C11.186 23.7357 10.94 23.8911 10.8493 24.137C10.7587 24.383 10.8105 24.6549 10.9918 24.8491L17.3745 31.2318L13.4775 41.2784C13.3739 41.5244 13.4516 41.8222 13.6458 41.9905C13.7623 42.0941 13.9177 42.1588 14.0731 42.1588C14.1766 42.1588 14.2802 42.1329 14.3708 42.0811L22.9415 37.5498C23.2522 37.3815 23.3817 36.9931 23.2134 36.6824C23.0451 36.3716 22.6567 36.2422 22.333 36.4105L15.2901 40.1391L18.708 31.3224C18.7986 31.0765 18.7468 30.8175 18.5656 30.6363L12.9985 25.0692H21.0254C21.2844 25.0692 21.5303 24.9138 21.621 24.6679L24.9871 16.3302L28.3532 24.6679C28.4568 24.9138 28.6898 25.0692 28.9488 25.0692H36.9757L31.4086 30.6363C31.2274 30.8175 31.1627 31.0894 31.2662 31.3354L32.8069 35.1417C32.9105 35.3877 33.1564 35.543 33.4024 35.543C33.4801 35.543 33.5707 35.5301 33.6484 35.4913C33.985 35.3618 34.1404 34.9734 34.0109 34.6497L32.6386 31.2448L39.0083 24.875C39.2025 24.6549 39.2543 24.383 39.1508 24.137Z" fill="#353535"/>
</g>
<defs>
<clipPath id="clip0">
<rect width="50" height="58.5448" fill="white" transform="translate(0 0.677734)"/>
</clipPath>
</defs>
</svg>
