<svg width="21" height="26" viewBox="0 0 21 26" fill="none" xmlns="http://www.w3.org/2000/svg">
<path d="M10.5006 12.7923C14.0336 12.7923 16.4331 9.92915 16.4331 6.39617C16.4331 2.86319 14.0336 0 10.5006 0C6.96762 0 4.56445 2.86319 4.56445 6.39617C4.56813 9.92915 6.96762 12.7923 10.5006 12.7923Z" fill="black"/>
<path d="M15.2919 12.3728C14.0259 13.51 12.3661 14.1835 10.5003 14.1835C8.63441 14.1835 6.97464 13.51 5.70498 12.3728C2.69459 14.0215 0.615279 17.1497 0.457031 20.7857C3.00372 23.406 6.56614 25.04 10.5003 25.04C14.4344 25.04 17.9968 23.406 20.5435 20.7857C20.3853 17.1497 18.3059 14.0215 15.2919 12.3728Z" fill="black"/>
</svg>
