<svg width="15" height="19" viewBox="0 0 15 19" fill="none" xmlns="http://www.w3.org/2000/svg">
<path d="M7.50081 9.55295C10.1391 9.55295 11.931 7.4148 11.931 4.77647C11.931 2.13815 10.1391 0 7.50081 0C4.86248 0 3.06787 2.13815 3.06787 4.77647C3.07062 7.4148 4.86248 9.55295 7.50081 9.55295Z" fill="#515151"/>
<path d="M11.0782 9.2395C10.1328 10.0887 8.89337 10.5916 7.5 10.5916C6.10663 10.5916 4.86717 10.0887 3.91902 9.2395C1.67094 10.4707 0.118175 12.8067 0 15.522C1.9018 17.4788 4.56211 18.699 7.5 18.699C10.4379 18.699 13.0982 17.4788 15 15.522C14.8818 12.8067 13.3291 10.4707 11.0782 9.2395Z" fill="#515151"/>
</svg>
