<svg width="25" height="32" viewBox="0 0 25 32" fill="none" xmlns="http://www.w3.org/2000/svg">
<path d="M12.5035 15.9216C16.9007 15.9216 19.8871 12.358 19.8871 7.96079C19.8871 3.56358 16.9007 0 12.5035 0C8.10626 0 5.11523 3.56358 5.11523 7.96079C5.11981 12.358 8.10626 15.9216 12.5035 15.9216Z" fill="#9F9F9F"/>
<path d="M18.4637 15.3994C16.8881 16.8148 14.8223 17.653 12.5 17.653C10.1777 17.653 8.11195 16.8148 6.5317 15.3994C2.7849 17.4514 0.196959 21.3448 0 25.8703C3.16966 29.1315 7.60352 31.1653 12.5 31.1653C17.3965 31.1653 21.8303 29.1315 25 25.8703C24.803 21.3448 22.2151 17.4514 18.4637 15.3994Z" fill="#9F9F9F"/>
</svg>
