<svg width="11" height="13" viewBox="0 0 11 13" fill="none" xmlns="http://www.w3.org/2000/svg">
<path d="M7.69154 5.96365C9.11731 4.75365 9.29077 2.61711 8.08077 1.19134C6.87077 -0.234428 4.73423 -0.40789 3.30846 0.802111C1.88269 2.01211 1.70923 4.14865 2.91923 5.57442C3.03769 5.71404 3.16885 5.84519 3.30846 5.96365C1.41731 6.21327 0.00423077 7.82519 0 9.73327V11.4256C0 12.1279 0.566923 12.6948 1.26923 12.6948H9.73077C10.4331 12.6948 11 12.1279 11 11.4256V9.73327C10.9958 7.82519 9.58269 6.21327 7.69154 5.96365ZM2.96154 3.38711C2.96154 1.98673 4.09962 0.848649 5.5 0.848649C6.90038 0.848649 8.03846 1.98673 8.03846 3.38711C8.03846 4.7875 6.90038 5.92558 5.5 5.92558C4.09962 5.92558 2.96154 4.7875 2.96154 3.38711ZM10.1538 11.4256C10.1538 11.6583 9.96346 11.8487 9.73077 11.8487H1.26923C1.03654 11.8487 0.846154 11.6583 0.846154 11.4256V9.73327C0.846154 8.10019 2.17462 6.77173 3.80769 6.77173H7.19231C8.82539 6.77173 10.1538 8.10019 10.1538 9.73327V11.4256Z" fill="white"/>
</svg>
