<svg width="80" height="80" viewBox="0 0 80 80" fill="none" xmlns="http://www.w3.org/2000/svg">
<circle cx="39.9994" cy="40" r="32.9412" fill="url(#paint0_linear)"/>
<circle cx="40" cy="40" r="39.5" stroke="#E7DA6C"/>
<path d="M28.162 49.3401C28.3114 49.0228 28.5587 48.8641 28.904 48.8641C29.1374 48.8641 29.3474 48.9388 29.534 49.0881C29.7207 49.2374 29.814 49.4241 29.814 49.6481C29.814 49.7508 29.786 49.8674 29.73 49.9981L25.852 58.3421C25.768 58.5194 25.6374 58.6594 25.46 58.7621C25.292 58.8554 25.11 58.9021 24.914 58.9021C24.718 58.9021 24.5314 58.8554 24.354 58.7621C24.186 58.6594 24.06 58.5194 23.976 58.3421L20.112 49.9981C20.056 49.8674 20.028 49.7554 20.028 49.6621C20.028 49.4288 20.1214 49.2374 20.308 49.0881C20.504 48.9388 20.7234 48.8641 20.966 48.8641C21.1247 48.8641 21.2694 48.9061 21.4 48.9901C21.54 49.0648 21.6474 49.1814 21.722 49.3401L24.942 56.4941L28.162 49.3401ZM38.9768 57.7401C39.0328 57.8614 39.0608 57.9828 39.0608 58.1041C39.0608 58.3188 38.9722 58.5008 38.7948 58.6501C38.6268 58.7994 38.4308 58.8741 38.2068 58.8741C38.0575 58.8741 37.9175 58.8368 37.7868 58.7621C37.6562 58.6781 37.5535 58.5521 37.4788 58.3841L36.6388 56.5081H31.7108L30.8708 58.3841C30.7962 58.5521 30.6935 58.6781 30.5628 58.7621C30.4322 58.8368 30.2875 58.8741 30.1288 58.8741C29.9142 58.8741 29.7182 58.7994 29.5408 58.6501C29.3635 58.5008 29.2748 58.3188 29.2748 58.1041C29.2748 57.9828 29.3028 57.8614 29.3588 57.7401L33.2228 49.4381C33.3068 49.2514 33.4328 49.1114 33.6008 49.0181C33.7782 48.9154 33.9648 48.8641 34.1608 48.8641C34.3568 48.8641 34.5388 48.9154 34.7068 49.0181C34.8842 49.1114 35.0148 49.2514 35.0988 49.4381L38.9768 57.7401ZM32.3268 55.1081H36.0228L34.1748 50.9501L32.3268 55.1081ZM32.3548 47.1981C32.0375 47.0301 31.8788 46.8108 31.8788 46.5401C31.8788 46.3628 31.9442 46.2088 32.0748 46.0781C32.2055 45.9381 32.3642 45.8681 32.5508 45.8681C32.7655 45.8681 32.9708 45.9661 33.1668 46.1621L34.4408 47.4781C34.5342 47.5714 34.5808 47.6741 34.5808 47.7861C34.5808 47.8888 34.5388 47.9821 34.4548 48.0661C34.3802 48.1408 34.2822 48.1781 34.1608 48.1781C34.0768 48.1781 34.0022 48.1594 33.9368 48.1221L32.3548 47.1981ZM47.8975 48.8781C48.1588 48.8781 48.3641 48.9621 48.5135 49.1301C48.6721 49.2888 48.7515 49.5034 48.7515 49.7741V57.9921C48.7515 58.2628 48.6721 58.4821 48.5135 58.6501C48.3548 58.8181 48.1495 58.9021 47.8975 58.9021C47.5988 58.9021 47.3701 58.7948 47.2115 58.5801L42.1015 51.9301V57.9921C42.1015 58.2628 42.0268 58.4821 41.8775 58.6501C41.7281 58.8181 41.5228 58.9021 41.2615 58.9021C41.0001 58.9021 40.7948 58.8181 40.6455 58.6501C40.4961 58.4821 40.4215 58.2628 40.4215 57.9921V49.7741C40.4215 49.5034 40.5008 49.2888 40.6595 49.1301C40.8181 48.9621 41.0281 48.8781 41.2895 48.8781C41.5788 48.8781 41.8028 48.9854 41.9615 49.2001L47.0575 55.8221V49.7741C47.0575 49.5034 47.1321 49.2888 47.2815 49.1301C47.4401 48.9621 47.6455 48.8781 47.8975 48.8781ZM58.3984 53.4841C58.6131 53.4841 58.7858 53.5494 58.9164 53.6801C59.0471 53.8014 59.1124 53.9648 59.1124 54.1701V57.1801C59.1124 57.6094 59.0564 57.9128 58.9444 58.0901C58.8324 58.2674 58.6038 58.4121 58.2584 58.5241C57.8851 58.6548 57.4511 58.7574 56.9564 58.8321C56.4618 58.9068 55.9858 58.9441 55.5284 58.9441C54.5111 58.9441 53.6291 58.7434 52.8824 58.3421C52.1358 57.9408 51.5618 57.3621 51.1604 56.6061C50.7684 55.8408 50.5724 54.9308 50.5724 53.8761C50.5724 52.8401 50.7684 51.9441 51.1604 51.1881C51.5618 50.4228 52.1264 49.8394 52.8544 49.4381C53.5824 49.0274 54.4411 48.8221 55.4304 48.8221C56.7464 48.8221 57.8244 49.1768 58.6644 49.8861C58.7764 49.9888 58.8558 50.0914 58.9024 50.1941C58.9584 50.2968 58.9864 50.4181 58.9864 50.5581C58.9864 50.7634 58.9304 50.9361 58.8184 51.0761C58.7064 51.2161 58.5711 51.2861 58.4124 51.2861C58.3098 51.2861 58.2164 51.2721 58.1324 51.2441C58.0484 51.2068 57.9504 51.1508 57.8384 51.0761C57.4278 50.7868 57.0451 50.5861 56.6904 50.4741C56.3358 50.3528 55.9344 50.2921 55.4864 50.2921C54.4691 50.2921 53.6991 50.5954 53.1764 51.2021C52.6631 51.7994 52.4064 52.6908 52.4064 53.8761C52.4064 56.3028 53.4704 57.5161 55.5984 57.5161C56.2331 57.5161 56.8678 57.4274 57.5024 57.2501V54.7721H55.9204C55.6964 54.7721 55.5191 54.7161 55.3884 54.6041C55.2671 54.4921 55.2064 54.3334 55.2064 54.1281C55.2064 53.9228 55.2671 53.7641 55.3884 53.6521C55.5191 53.5401 55.6964 53.4841 55.9204 53.4841H58.3984Z" fill="white"/>
<path d="M21.8182 29.0908L22.9612 32.6086H26.6599L23.6676 34.7826L24.8106 38.3004L21.8182 36.1263L18.8258 38.3004L19.9688 34.7826L16.9765 32.6086H20.6752L21.8182 29.0908Z" fill="white"/>
<path d="M40 16L41.1429 19.5177H44.8417L41.8493 21.6918L42.9923 25.2095L40 23.0355L37.0076 25.2095L38.1506 21.6918L35.1582 19.5177H38.857L40 16Z" fill="white"/>
<path d="M57.4546 29.0908L58.5975 32.6086H62.2963L59.3039 34.7826L60.4469 38.3004L57.4546 36.1263L54.4622 38.3004L55.6052 34.7826L52.6128 32.6086H56.3116L57.4546 29.0908Z" fill="white"/>
<defs>
<linearGradient id="paint0_linear" x1="39.9994" y1="7.05884" x2="39.9994" y2="72.9412" gradientUnits="userSpaceOnUse">
<stop stop-color="#BBA119"/>
<stop offset="0.626263" stop-color="#E7DA6C"/>
</linearGradient>
</defs>
</svg>
