<svg width="33" height="23" viewBox="0 0 33 23" fill="none" xmlns="http://www.w3.org/2000/svg">
<path d="M31.668 4.07422C31.3164 2.66797 30.2031 1.55469 28.8555 1.20312C26.3359 0.5 16.375 0.5 16.375 0.5C16.375 0.5 6.35547 0.5 3.83594 1.20312C2.48828 1.55469 1.375 2.66797 1.02344 4.07422C0.320312 6.53516 0.320312 11.8086 0.320312 11.8086C0.320312 11.8086 0.320312 17.0234 1.02344 19.543C1.375 20.9492 2.48828 22.0039 3.83594 22.3555C6.35547 23 16.375 23 16.375 23C16.375 23 26.3359 23 28.8555 22.3555C30.2031 22.0039 31.3164 20.9492 31.668 19.543C32.3711 17.0234 32.3711 11.8086 32.3711 11.8086C32.3711 11.8086 32.3711 6.53516 31.668 4.07422ZM13.0938 16.5547V7.0625L21.4141 11.8086L13.0938 16.5547Z" fill="#B6B6B6"/>
</svg>
